<mxfile host="app.diagrams.net" modified="2023-09-15T06:58:47.641Z" agent="Mozilla/5.0 (Windows NT 10.0; Win64; x64) AppleWebKit/537.36 (KHTML, like Gecko) Chrome/116.0.0.0 Safari/537.36 Edg/116.0.1938.81" etag="JIde2DmBL_YqmyJpz_7n" version="21.7.5" type="device" pages="8">
  <diagram name="ページ1" id="4HPJljkm25rORoqFfxR9">
    <mxGraphModel dx="2357" dy="2072" grid="1" gridSize="10" guides="1" tooltips="1" connect="1" arrows="1" fold="1" page="1" pageScale="1" pageWidth="827" pageHeight="1169" math="0" shadow="0">
      <root>
        <mxCell id="0" />
        <mxCell id="1" parent="0" />
        <mxCell id="dNGo8uTC3NL4igvYwK4Q-151" value="" style="group" parent="1" vertex="1" connectable="0">
          <mxGeometry x="-1080" y="-721" width="330" height="170" as="geometry" />
        </mxCell>
        <mxCell id="dNGo8uTC3NL4igvYwK4Q-152" value="" style="rounded=0;whiteSpace=wrap;html=1;fontSize=16;verticalAlign=top;" parent="dNGo8uTC3NL4igvYwK4Q-151" vertex="1">
          <mxGeometry width="330" height="170" as="geometry" />
        </mxCell>
        <mxCell id="dNGo8uTC3NL4igvYwK4Q-153" value="" style="rounded=0;whiteSpace=wrap;html=1;fontSize=16;" parent="dNGo8uTC3NL4igvYwK4Q-151" vertex="1">
          <mxGeometry x="19.99805369127517" y="71" width="120.8053691275168" height="15" as="geometry" />
        </mxCell>
        <mxCell id="dNGo8uTC3NL4igvYwK4Q-154" value="&lt;font style=&quot;font-size: 18px;&quot;&gt;ユーザーID:&lt;/font&gt;" style="rounded=0;whiteSpace=wrap;html=1;fontSize=16;strokeColor=none;" parent="dNGo8uTC3NL4igvYwK4Q-151" vertex="1">
          <mxGeometry x="12.083691275167787" y="40" width="112.751677852349" height="21" as="geometry" />
        </mxCell>
        <mxCell id="dNGo8uTC3NL4igvYwK4Q-155" value="&lt;font style=&quot;font-size: 16px;&quot;&gt;パスワード：&lt;/font&gt;" style="rounded=0;whiteSpace=wrap;html=1;fontSize=16;strokeColor=none;" parent="dNGo8uTC3NL4igvYwK4Q-151" vertex="1">
          <mxGeometry x="8.057114093959733" y="101" width="110.73825503355705" height="18" as="geometry" />
        </mxCell>
        <mxCell id="dNGo8uTC3NL4igvYwK4Q-156" value="" style="rounded=0;whiteSpace=wrap;html=1;fontSize=16;" parent="dNGo8uTC3NL4igvYwK4Q-151" vertex="1">
          <mxGeometry x="19.99805369127517" y="123" width="120.8053691275168" height="14" as="geometry" />
        </mxCell>
        <mxCell id="dNGo8uTC3NL4igvYwK4Q-157" style="edgeStyle=none;curved=1;rounded=0;orthogonalLoop=1;jettySize=auto;html=1;exitX=0;exitY=0.75;exitDx=0;exitDy=0;fontSize=12;startSize=8;endSize=8;" parent="dNGo8uTC3NL4igvYwK4Q-151" source="dNGo8uTC3NL4igvYwK4Q-156" target="dNGo8uTC3NL4igvYwK4Q-156" edge="1">
          <mxGeometry relative="1" as="geometry" />
        </mxCell>
        <mxCell id="dNGo8uTC3NL4igvYwK4Q-158" value="&lt;font style=&quot;font-size: 20px;&quot;&gt;ログイン&lt;/font&gt;" style="rounded=0;whiteSpace=wrap;html=1;fontSize=16;" parent="dNGo8uTC3NL4igvYwK4Q-151" vertex="1">
          <mxGeometry x="8.05" y="5" width="101.95" height="25" as="geometry" />
        </mxCell>
        <mxCell id="dNGo8uTC3NL4igvYwK4Q-159" style="edgeStyle=none;curved=1;rounded=0;orthogonalLoop=1;jettySize=auto;html=1;exitX=0.5;exitY=1;exitDx=0;exitDy=0;fontSize=12;startSize=8;endSize=8;" parent="dNGo8uTC3NL4igvYwK4Q-151" source="dNGo8uTC3NL4igvYwK4Q-158" target="dNGo8uTC3NL4igvYwK4Q-158" edge="1">
          <mxGeometry relative="1" as="geometry" />
        </mxCell>
        <mxCell id="sd1OOrCkEELI2caOgN41-1" value="&lt;font style=&quot;font-size: 10px;&quot;&gt;ログイン&lt;/font&gt;" style="rounded=0;whiteSpace=wrap;html=1;" parent="dNGo8uTC3NL4igvYwK4Q-151" vertex="1">
          <mxGeometry x="20" y="151" width="45" height="14" as="geometry" />
        </mxCell>
        <mxCell id="dNGo8uTC3NL4igvYwK4Q-178" value="&lt;font style=&quot;font-size: 18px;&quot;&gt;Login.jsp&lt;/font&gt;" style="rounded=0;whiteSpace=wrap;html=1;" parent="1" vertex="1">
          <mxGeometry x="-995" y="-810" width="160" height="78" as="geometry" />
        </mxCell>
        <mxCell id="8sfblqZyrEOsmhuqwWur-16" style="edgeStyle=orthogonalEdgeStyle;rounded=0;orthogonalLoop=1;jettySize=auto;html=1;exitX=1;exitY=0.75;exitDx=0;exitDy=0;entryX=0;entryY=0.5;entryDx=0;entryDy=0;" parent="1" source="dNGo8uTC3NL4igvYwK4Q-182" target="dNGo8uTC3NL4igvYwK4Q-204" edge="1">
          <mxGeometry relative="1" as="geometry">
            <Array as="points">
              <mxPoint x="-720" y="-384" />
              <mxPoint x="-720" y="-240" />
            </Array>
          </mxGeometry>
        </mxCell>
        <mxCell id="lkkzompXg5rXh-jUh0g8-1" style="edgeStyle=orthogonalEdgeStyle;rounded=0;orthogonalLoop=1;jettySize=auto;html=1;exitX=0.25;exitY=1;exitDx=0;exitDy=0;entryX=0.25;entryY=0;entryDx=0;entryDy=0;" parent="1" source="dNGo8uTC3NL4igvYwK4Q-182" target="dNGo8uTC3NL4igvYwK4Q-192" edge="1">
          <mxGeometry relative="1" as="geometry" />
        </mxCell>
        <mxCell id="lkkzompXg5rXh-jUh0g8-7" style="edgeStyle=orthogonalEdgeStyle;rounded=0;orthogonalLoop=1;jettySize=auto;html=1;exitX=1;exitY=0.25;exitDx=0;exitDy=0;entryX=1;entryY=0.5;entryDx=0;entryDy=0;" parent="1" source="dNGo8uTC3NL4igvYwK4Q-182" target="dNGo8uTC3NL4igvYwK4Q-178" edge="1">
          <mxGeometry relative="1" as="geometry">
            <mxPoint x="-690" y="-650" as="targetPoint" />
            <Array as="points">
              <mxPoint x="-720" y="-441" />
              <mxPoint x="-720" y="-771" />
            </Array>
          </mxGeometry>
        </mxCell>
        <mxCell id="dNGo8uTC3NL4igvYwK4Q-182" value="&lt;font style=&quot;font-size: 20px;&quot;&gt;ExcuteLogin.java&lt;/font&gt;" style="rounded=0;whiteSpace=wrap;html=1;" parent="1" vertex="1">
          <mxGeometry x="-1001" y="-470" width="172" height="114" as="geometry" />
        </mxCell>
        <mxCell id="dNGo8uTC3NL4igvYwK4Q-189" value="&lt;span style=&quot;font-size: 18px;&quot;&gt;ログイン失敗&lt;/span&gt;" style="rounded=0;whiteSpace=wrap;html=1;strokeColor=none;" parent="1" vertex="1">
          <mxGeometry x="-700" y="-551" width="80" height="60" as="geometry" />
        </mxCell>
        <mxCell id="lkkzompXg5rXh-jUh0g8-2" style="edgeStyle=orthogonalEdgeStyle;rounded=0;orthogonalLoop=1;jettySize=auto;html=1;exitX=0.75;exitY=0;exitDx=0;exitDy=0;entryX=0.75;entryY=1;entryDx=0;entryDy=0;" parent="1" source="dNGo8uTC3NL4igvYwK4Q-192" target="dNGo8uTC3NL4igvYwK4Q-182" edge="1">
          <mxGeometry relative="1" as="geometry" />
        </mxCell>
        <mxCell id="lkkzompXg5rXh-jUh0g8-3" style="edgeStyle=orthogonalEdgeStyle;rounded=0;orthogonalLoop=1;jettySize=auto;html=1;exitX=0.25;exitY=1;exitDx=0;exitDy=0;entryX=0.146;entryY=0.046;entryDx=0;entryDy=0;entryPerimeter=0;" parent="1" source="dNGo8uTC3NL4igvYwK4Q-192" target="dNGo8uTC3NL4igvYwK4Q-194" edge="1">
          <mxGeometry relative="1" as="geometry" />
        </mxCell>
        <mxCell id="dNGo8uTC3NL4igvYwK4Q-192" value="&lt;div style=&quot;padding: 0px 0px 0px 2px;&quot;&gt;&lt;div style=&quot;font-family: &amp;quot;ＭＳ ゴシック&amp;quot;;&quot;&gt;&lt;p style=&quot;margin: 0px;&quot;&gt;&lt;font style=&quot;font-size: 22px;&quot;&gt;BusinessLogic&lt;/font&gt;&lt;/p&gt;&lt;/div&gt;&lt;/div&gt;" style="rounded=0;whiteSpace=wrap;html=1;" parent="1" vertex="1">
          <mxGeometry x="-1001" y="-270" width="172" height="114" as="geometry" />
        </mxCell>
        <mxCell id="lkkzompXg5rXh-jUh0g8-4" style="edgeStyle=orthogonalEdgeStyle;rounded=0;orthogonalLoop=1;jettySize=auto;html=1;exitX=0.75;exitY=0;exitDx=0;exitDy=0;entryX=0.676;entryY=0.997;entryDx=0;entryDy=0;entryPerimeter=0;" parent="1" source="dNGo8uTC3NL4igvYwK4Q-194" target="dNGo8uTC3NL4igvYwK4Q-192" edge="1">
          <mxGeometry relative="1" as="geometry" />
        </mxCell>
        <mxCell id="lkkzompXg5rXh-jUh0g8-5" style="edgeStyle=orthogonalEdgeStyle;rounded=0;orthogonalLoop=1;jettySize=auto;html=1;exitX=0.25;exitY=1;exitDx=0;exitDy=0;entryX=0.367;entryY=0.003;entryDx=0;entryDy=0;entryPerimeter=0;" parent="1" source="dNGo8uTC3NL4igvYwK4Q-194" target="dNGo8uTC3NL4igvYwK4Q-196" edge="1">
          <mxGeometry relative="1" as="geometry" />
        </mxCell>
        <mxCell id="dNGo8uTC3NL4igvYwK4Q-194" value="&lt;font style=&quot;font-size: 20px;&quot;&gt;DAO&lt;/font&gt;" style="rounded=0;whiteSpace=wrap;html=1;" parent="1" vertex="1">
          <mxGeometry x="-975" y="-100" width="120" height="60" as="geometry" />
        </mxCell>
        <mxCell id="dNGo8uTC3NL4igvYwK4Q-204" value="&lt;font style=&quot;font-size: 20px;&quot;&gt;InputSurvey&lt;/font&gt;" style="rounded=0;whiteSpace=wrap;html=1;" parent="1" vertex="1">
          <mxGeometry x="-600" y="-270" width="120" height="60" as="geometry" />
        </mxCell>
        <mxCell id="dNGo8uTC3NL4igvYwK4Q-211" value="&lt;span style=&quot;font-size: 18px;&quot;&gt;ログイン&lt;br&gt;成功&lt;br&gt;&lt;/span&gt;" style="rounded=0;whiteSpace=wrap;html=1;strokeColor=none;" parent="1" vertex="1">
          <mxGeometry x="-710" y="-340" width="80" height="60" as="geometry" />
        </mxCell>
        <mxCell id="8sfblqZyrEOsmhuqwWur-13" value="" style="group" parent="1" vertex="1" connectable="0">
          <mxGeometry x="-1030" y="40" width="230" height="310" as="geometry" />
        </mxCell>
        <mxCell id="dNGo8uTC3NL4igvYwK4Q-196" value="" style="shape=cylinder3;whiteSpace=wrap;html=1;boundedLbl=1;backgroundOutline=1;size=54.28571428571422;" parent="8sfblqZyrEOsmhuqwWur-13" vertex="1">
          <mxGeometry width="230" height="310" as="geometry" />
        </mxCell>
        <mxCell id="dNGo8uTC3NL4igvYwK4Q-198" value="&lt;font style=&quot;font-size: 18px;&quot;&gt;データベース&lt;/font&gt;" style="rounded=0;whiteSpace=wrap;html=1;" parent="8sfblqZyrEOsmhuqwWur-13" vertex="1">
          <mxGeometry x="55" y="29" width="120" height="60" as="geometry" />
        </mxCell>
        <mxCell id="dNGo8uTC3NL4igvYwK4Q-202" value="&lt;span style=&quot;font-size: 18px;&quot;&gt;USER_ID&lt;br&gt;USER_NAME&lt;br&gt;PASSWORD&lt;br&gt;&lt;/span&gt;" style="rounded=0;whiteSpace=wrap;html=1;" parent="8sfblqZyrEOsmhuqwWur-13" vertex="1">
          <mxGeometry x="55" y="149" width="120" height="100" as="geometry" />
        </mxCell>
        <mxCell id="lkkzompXg5rXh-jUh0g8-6" style="edgeStyle=orthogonalEdgeStyle;rounded=0;orthogonalLoop=1;jettySize=auto;html=1;exitX=0.632;exitY=-0.012;exitDx=0;exitDy=0;entryX=0.75;entryY=1;entryDx=0;entryDy=0;exitPerimeter=0;" parent="1" source="dNGo8uTC3NL4igvYwK4Q-196" target="dNGo8uTC3NL4igvYwK4Q-194" edge="1">
          <mxGeometry relative="1" as="geometry" />
        </mxCell>
        <mxCell id="lkkzompXg5rXh-jUh0g8-8" value="&lt;font style=&quot;font-size: 16px;&quot;&gt;入力されたユーザ情報とパスワード&lt;/font&gt;" style="rounded=0;whiteSpace=wrap;html=1;fillColor=none;strokeColor=none;" parent="1" vertex="1">
          <mxGeometry x="-1090" y="-531" width="170" height="40" as="geometry" />
        </mxCell>
        <mxCell id="lkkzompXg5rXh-jUh0g8-10" style="edgeStyle=orthogonalEdgeStyle;rounded=0;orthogonalLoop=1;jettySize=auto;html=1;exitX=0.5;exitY=1;exitDx=0;exitDy=0;entryX=0.5;entryY=0;entryDx=0;entryDy=0;" parent="1" source="dNGo8uTC3NL4igvYwK4Q-152" target="dNGo8uTC3NL4igvYwK4Q-182" edge="1">
          <mxGeometry relative="1" as="geometry" />
        </mxCell>
        <mxCell id="lkkzompXg5rXh-jUh0g8-11" value="&lt;font style=&quot;font-size: 16px;&quot;&gt;入力されたユーザ情報とパスワード&lt;/font&gt;" style="rounded=0;whiteSpace=wrap;html=1;fillColor=none;strokeColor=none;" parent="1" vertex="1">
          <mxGeometry x="-1140" y="-340" width="170" height="40" as="geometry" />
        </mxCell>
        <mxCell id="lkkzompXg5rXh-jUh0g8-12" value="&lt;font style=&quot;font-size: 16px;&quot;&gt;入力されたユーザ情報とパスワード&lt;/font&gt;" style="rounded=0;whiteSpace=wrap;html=1;fillColor=none;strokeColor=none;" parent="1" vertex="1">
          <mxGeometry x="-1145" y="-150" width="170" height="40" as="geometry" />
        </mxCell>
        <mxCell id="lkkzompXg5rXh-jUh0g8-13" value="&lt;font style=&quot;font-size: 16px;&quot;&gt;入力されたユーザ情報とパスワード do select&lt;/font&gt;" style="rounded=0;whiteSpace=wrap;html=1;fillColor=none;strokeColor=none;" parent="1" vertex="1">
          <mxGeometry x="-1130" y="-20" width="170" height="40" as="geometry" />
        </mxCell>
        <mxCell id="lkkzompXg5rXh-jUh0g8-14" value="&lt;font style=&quot;font-size: 18px;&quot;&gt;ログインユーザーデータを送る&lt;/font&gt;" style="rounded=0;whiteSpace=wrap;html=1;strokeColor=none;" parent="1" vertex="1">
          <mxGeometry x="-870" y="-10" width="220" height="30" as="geometry" />
        </mxCell>
        <mxCell id="lkkzompXg5rXh-jUh0g8-15" value="&lt;font style=&quot;font-size: 18px;&quot;&gt;ログインの結果&lt;/font&gt;" style="rounded=0;whiteSpace=wrap;html=1;fillColor=default;strokeColor=none;" parent="1" vertex="1">
          <mxGeometry x="-827" y="-423" width="145" height="20" as="geometry" />
        </mxCell>
        <mxCell id="lkkzompXg5rXh-jUh0g8-17" value="&lt;font style=&quot;font-size: 18px;&quot;&gt;ログインユーザーデータを送る&lt;/font&gt;" style="rounded=0;whiteSpace=wrap;html=1;strokeColor=none;" parent="1" vertex="1">
          <mxGeometry x="-870" y="-140" width="220" height="30" as="geometry" />
        </mxCell>
        <mxCell id="P_MATbKF_4c6j1XOjZ4d-1" value="セッションスコープ" style="ellipse;whiteSpace=wrap;html=1;" parent="1" vertex="1">
          <mxGeometry x="-1320" y="-453" width="120" height="80" as="geometry" />
        </mxCell>
        <mxCell id="miV8r1YhpNCDpZ8L1zCV-7" style="edgeStyle=none;curved=1;rounded=0;orthogonalLoop=1;jettySize=auto;html=1;exitX=0;exitY=0.75;exitDx=0;exitDy=0;fontSize=12;startSize=8;endSize=8;" parent="1" edge="1">
          <mxGeometry relative="1" as="geometry">
            <mxPoint x="-1560.0019463087249" y="-506.5" as="sourcePoint" />
            <mxPoint x="-1560.0019463087249" y="-506.5" as="targetPoint" />
          </mxGeometry>
        </mxCell>
        <mxCell id="miV8r1YhpNCDpZ8L1zCV-9" style="edgeStyle=none;curved=1;rounded=0;orthogonalLoop=1;jettySize=auto;html=1;exitX=0.5;exitY=1;exitDx=0;exitDy=0;fontSize=12;startSize=8;endSize=8;" parent="1" edge="1">
          <mxGeometry relative="1" as="geometry">
            <mxPoint x="-1520.975" y="-610" as="sourcePoint" />
            <mxPoint x="-1520.975" y="-610" as="targetPoint" />
          </mxGeometry>
        </mxCell>
        <mxCell id="wLnuX1LWg1Ttk9Cw-pft-1" value="" style="curved=1;endArrow=classic;html=1;rounded=0;entryX=-0.021;entryY=0.059;entryDx=0;entryDy=0;exitX=0.001;exitY=0.861;exitDx=0;exitDy=0;exitPerimeter=0;entryPerimeter=0;" parent="1" source="dNGo8uTC3NL4igvYwK4Q-182" target="dNGo8uTC3NL4igvYwK4Q-182" edge="1">
          <mxGeometry width="50" height="50" relative="1" as="geometry">
            <mxPoint x="-1034.6119999999999" y="-372.9979999999999" as="sourcePoint" />
            <mxPoint x="-1031" y="-439.46" as="targetPoint" />
            <Array as="points">
              <mxPoint x="-1140" y="-377.96" />
              <mxPoint x="-1240" y="-427.96" />
            </Array>
          </mxGeometry>
        </mxCell>
        <mxCell id="wLnuX1LWg1Ttk9Cw-pft-2" value="&lt;font style=&quot;font-size: 12px;&quot;&gt;ユーザーデータの保存&lt;/font&gt;" style="rounded=0;whiteSpace=wrap;html=1;strokeColor=none;" parent="1" vertex="1">
          <mxGeometry x="-1160" y="-386" width="130" height="13" as="geometry" />
        </mxCell>
        <mxCell id="wLnuX1LWg1Ttk9Cw-pft-3" value="&lt;font style=&quot;font-size: 12px;&quot;&gt;ユーザーデータの取得&lt;/font&gt;" style="rounded=0;whiteSpace=wrap;html=1;strokeColor=none;" parent="1" vertex="1">
          <mxGeometry x="-1170" y="-450" width="130" height="13" as="geometry" />
        </mxCell>
      </root>
    </mxGraphModel>
  </diagram>
  <diagram id="RQk7cRiJqdChGrz92p3-" name="ページ2">
    <mxGraphModel dx="2584" dy="5192" grid="1" gridSize="10" guides="1" tooltips="1" connect="1" arrows="1" fold="1" page="1" pageScale="1" pageWidth="827" pageHeight="1169" math="0" shadow="0">
      <root>
        <mxCell id="0" />
        <mxCell id="1" parent="0" />
        <mxCell id="_MH9jKTk7bNkno5BnJLa-3" style="edgeStyle=orthogonalEdgeStyle;rounded=0;orthogonalLoop=1;jettySize=auto;html=1;exitX=0.5;exitY=1;exitDx=0;exitDy=0;entryX=0.5;entryY=0;entryDx=0;entryDy=0;" parent="1" source="_MH9jKTk7bNkno5BnJLa-1" target="_MH9jKTk7bNkno5BnJLa-2" edge="1">
          <mxGeometry relative="1" as="geometry" />
        </mxCell>
        <mxCell id="_MH9jKTk7bNkno5BnJLa-1" value="&lt;font style=&quot;font-size: 20px;&quot;&gt;InputSavey&lt;/font&gt;" style="rounded=0;whiteSpace=wrap;html=1;" parent="1" vertex="1">
          <mxGeometry x="-1284" y="-3640" width="120" height="30" as="geometry" />
        </mxCell>
        <mxCell id="_MH9jKTk7bNkno5BnJLa-2" value="&lt;font style=&quot;font-size: 20px;&quot;&gt;form.jsp&lt;/font&gt;" style="rounded=0;whiteSpace=wrap;html=1;fillColor=none;" parent="1" vertex="1">
          <mxGeometry x="-1284" y="-3570" width="120" height="30" as="geometry" />
        </mxCell>
        <mxCell id="_MH9jKTk7bNkno5BnJLa-4" value="" style="rounded=0;whiteSpace=wrap;html=1;strokeColor=none;" parent="1" vertex="1">
          <mxGeometry x="-430" y="-3430" width="60" height="20" as="geometry" />
        </mxCell>
        <mxCell id="hIAI5zJXY0UFDR0oC7-2-4" style="edgeStyle=orthogonalEdgeStyle;rounded=0;orthogonalLoop=1;jettySize=auto;html=1;exitX=0.5;exitY=0;exitDx=0;exitDy=0;entryX=0.5;entryY=0;entryDx=0;entryDy=0;" parent="1" target="_MH9jKTk7bNkno5BnJLa-5" edge="1">
          <mxGeometry relative="1" as="geometry">
            <mxPoint x="-1320" y="-3100" as="sourcePoint" />
          </mxGeometry>
        </mxCell>
        <mxCell id="_MH9jKTk7bNkno5BnJLa-5" value="&lt;div style=&quot;padding: 0px 0px 0px 2px;&quot;&gt;&lt;div style=&quot;font-family: &amp;quot;ＭＳ ゴシック&amp;quot;;&quot;&gt;&lt;p style=&quot;margin: 0px;&quot;&gt;&lt;span style=&quot;background-color: rgb(255, 255, 255);&quot;&gt;&lt;font style=&quot;font-size: 20px;&quot;&gt;ShowAllSurvey&lt;/font&gt;&lt;/span&gt;&lt;/p&gt;&lt;/div&gt;&lt;/div&gt;" style="rounded=0;whiteSpace=wrap;html=1;" parent="1" vertex="1">
          <mxGeometry x="-1390" y="-3000" width="140" height="30" as="geometry" />
        </mxCell>
        <mxCell id="_MH9jKTk7bNkno5BnJLa-6" value="&lt;div style=&quot;padding: 0px 0px 0px 2px;&quot;&gt;&lt;div style=&quot;font-family: &amp;quot;ＭＳ ゴシック&amp;quot;;&quot;&gt;&lt;p style=&quot;margin: 0px;&quot;&gt;&lt;span style=&quot;background-color: rgb(255, 255, 255);&quot;&gt;&lt;font style=&quot;font-size: 20px;&quot;&gt;ExecuteLogout&lt;/font&gt;&lt;/span&gt;&lt;/p&gt;&lt;/div&gt;&lt;/div&gt;" style="rounded=0;whiteSpace=wrap;html=1;" parent="1" vertex="1">
          <mxGeometry x="-1208" y="-3000" width="150" height="30" as="geometry" />
        </mxCell>
        <mxCell id="K8VXgNQ1jiFXR9R-Qw6s-40" style="edgeStyle=none;curved=1;rounded=0;orthogonalLoop=1;jettySize=auto;html=1;exitX=0;exitY=0.5;exitDx=0;exitDy=0;fontSize=12;startSize=8;endSize=8;" parent="1" edge="1">
          <mxGeometry relative="1" as="geometry">
            <mxPoint x="-208.99999999999994" y="-3525" as="sourcePoint" />
            <mxPoint x="-208.99999999999994" y="-3525" as="targetPoint" />
          </mxGeometry>
        </mxCell>
        <mxCell id="K8VXgNQ1jiFXR9R-Qw6s-45" value="" style="group" parent="1" vertex="1" connectable="0">
          <mxGeometry x="-1390" y="-3525" width="332" height="420" as="geometry" />
        </mxCell>
        <mxCell id="K8VXgNQ1jiFXR9R-Qw6s-46" value="" style="rounded=0;whiteSpace=wrap;html=1;fontSize=16;" parent="K8VXgNQ1jiFXR9R-Qw6s-45" vertex="1">
          <mxGeometry width="332" height="420" as="geometry" />
        </mxCell>
        <mxCell id="K8VXgNQ1jiFXR9R-Qw6s-47" value="&lt;font style=&quot;font-size: 14px;&quot;&gt;MORIOKA&lt;/font&gt;" style="rounded=0;whiteSpace=wrap;html=1;fontSize=16;strokeColor=none;" parent="K8VXgNQ1jiFXR9R-Qw6s-45" vertex="1">
          <mxGeometry x="82.5" y="72" width="75.5" height="22" as="geometry" />
        </mxCell>
        <mxCell id="K8VXgNQ1jiFXR9R-Qw6s-48" value="&lt;font style=&quot;font-size: 14px;&quot;&gt;名前&lt;/font&gt;" style="rounded=0;whiteSpace=wrap;html=1;fontSize=16;strokeColor=none;" parent="K8VXgNQ1jiFXR9R-Qw6s-45" vertex="1">
          <mxGeometry x="32" y="72" width="43" height="22" as="geometry" />
        </mxCell>
        <mxCell id="K8VXgNQ1jiFXR9R-Qw6s-49" value="ねこちゃん暮らしアンケート" style="rounded=0;whiteSpace=wrap;html=1;fontSize=16;" parent="K8VXgNQ1jiFXR9R-Qw6s-45" vertex="1">
          <mxGeometry x="36" y="18" width="213" height="22" as="geometry" />
        </mxCell>
        <mxCell id="K8VXgNQ1jiFXR9R-Qw6s-50" value="&lt;font style=&quot;font-size: 14px;&quot;&gt;年齢：&lt;/font&gt;" style="rounded=0;whiteSpace=wrap;html=1;fontSize=16;strokeColor=none;" parent="K8VXgNQ1jiFXR9R-Qw6s-45" vertex="1">
          <mxGeometry x="29" y="113" width="55" height="22" as="geometry" />
        </mxCell>
        <mxCell id="K8VXgNQ1jiFXR9R-Qw6s-51" value="" style="rounded=0;whiteSpace=wrap;html=1;fontSize=16;" parent="K8VXgNQ1jiFXR9R-Qw6s-45" vertex="1">
          <mxGeometry x="84" y="113" width="78" height="22" as="geometry" />
        </mxCell>
        <mxCell id="K8VXgNQ1jiFXR9R-Qw6s-52" value="&lt;font style=&quot;font-size: 10px;&quot;&gt;オス&lt;/font&gt;" style="rounded=0;whiteSpace=wrap;html=1;fontSize=16;strokeColor=none;" parent="K8VXgNQ1jiFXR9R-Qw6s-45" vertex="1">
          <mxGeometry x="51" y="141" width="27" height="22" as="geometry" />
        </mxCell>
        <mxCell id="K8VXgNQ1jiFXR9R-Qw6s-53" value="メス" style="rounded=0;whiteSpace=wrap;html=1;fontSize=10;strokeColor=none;" parent="K8VXgNQ1jiFXR9R-Qw6s-45" vertex="1">
          <mxGeometry x="97" y="143" width="23" height="22" as="geometry" />
        </mxCell>
        <mxCell id="K8VXgNQ1jiFXR9R-Qw6s-54" value="" style="ellipse;whiteSpace=wrap;html=1;aspect=fixed;fontSize=16;strokeColor=#0000CC;" parent="K8VXgNQ1jiFXR9R-Qw6s-45" vertex="1">
          <mxGeometry x="41" y="149" width="10" height="10" as="geometry" />
        </mxCell>
        <mxCell id="K8VXgNQ1jiFXR9R-Qw6s-55" value="" style="ellipse;whiteSpace=wrap;html=1;aspect=fixed;fontSize=16;" parent="K8VXgNQ1jiFXR9R-Qw6s-45" vertex="1">
          <mxGeometry x="84" y="149" width="10" height="10" as="geometry" />
        </mxCell>
        <mxCell id="K8VXgNQ1jiFXR9R-Qw6s-56" value="" style="group" parent="K8VXgNQ1jiFXR9R-Qw6s-45" vertex="1" connectable="0">
          <mxGeometry x="22" y="165" width="57" height="22" as="geometry" />
        </mxCell>
        <mxCell id="K8VXgNQ1jiFXR9R-Qw6s-57" value="" style="whiteSpace=wrap;html=1;aspect=fixed;fontSize=16;" parent="K8VXgNQ1jiFXR9R-Qw6s-56" vertex="1">
          <mxGeometry y="6" width="10" height="10" as="geometry" />
        </mxCell>
        <mxCell id="K8VXgNQ1jiFXR9R-Qw6s-58" value="&lt;font style=&quot;font-size: 14px;&quot;&gt;りんご&lt;/font&gt;" style="rounded=0;whiteSpace=wrap;html=1;fontSize=16;strokeColor=none;" parent="K8VXgNQ1jiFXR9R-Qw6s-56" vertex="1">
          <mxGeometry x="10" y="-3" width="47" height="25" as="geometry" />
        </mxCell>
        <mxCell id="K8VXgNQ1jiFXR9R-Qw6s-59" value="&lt;font style=&quot;font-size: 11px;&quot;&gt;とても満足&lt;/font&gt;" style="rounded=1;whiteSpace=wrap;html=1;fontSize=16;arcSize=8;" parent="K8VXgNQ1jiFXR9R-Qw6s-45" vertex="1">
          <mxGeometry x="22" y="197" width="91" height="17" as="geometry" />
        </mxCell>
        <mxCell id="K8VXgNQ1jiFXR9R-Qw6s-60" value="" style="endArrow=none;html=1;rounded=0;fontSize=12;startSize=8;endSize=8;curved=1;" parent="K8VXgNQ1jiFXR9R-Qw6s-45" edge="1">
          <mxGeometry width="50" height="50" relative="1" as="geometry">
            <mxPoint x="120" y="206.5" as="sourcePoint" />
            <mxPoint x="115" y="200" as="targetPoint" />
          </mxGeometry>
        </mxCell>
        <mxCell id="K8VXgNQ1jiFXR9R-Qw6s-61" value="&lt;font style=&quot;font-size: 14px;&quot;&gt;飼い主へのご意見・ご感想をご記入ください。&lt;/font&gt;" style="rounded=0;whiteSpace=wrap;html=1;fontSize=16;strokeColor=none;" parent="K8VXgNQ1jiFXR9R-Qw6s-45" vertex="1">
          <mxGeometry x="11" y="223" width="297" height="16" as="geometry" />
        </mxCell>
        <mxCell id="K8VXgNQ1jiFXR9R-Qw6s-62" value="" style="rounded=0;whiteSpace=wrap;html=1;fontSize=16;" parent="K8VXgNQ1jiFXR9R-Qw6s-45" vertex="1">
          <mxGeometry x="11" y="247" width="203" height="37" as="geometry" />
        </mxCell>
        <mxCell id="K8VXgNQ1jiFXR9R-Qw6s-63" value="&lt;font style=&quot;font-size: 14px;&quot;&gt;回答する&lt;/font&gt;" style="rounded=1;whiteSpace=wrap;html=1;fontSize=16;arcSize=8;verticalAlign=middle;" parent="K8VXgNQ1jiFXR9R-Qw6s-45" vertex="1">
          <mxGeometry x="11" y="297" width="95" height="16" as="geometry" />
        </mxCell>
        <mxCell id="K8VXgNQ1jiFXR9R-Qw6s-64" value="" style="ellipse;whiteSpace=wrap;html=1;aspect=fixed;fontSize=16;strokeColor=#0000CC;" parent="K8VXgNQ1jiFXR9R-Qw6s-45" vertex="1">
          <mxGeometry x="42.35" y="150.35" width="7.29" height="7.29" as="geometry" />
        </mxCell>
        <mxCell id="K8VXgNQ1jiFXR9R-Qw6s-65" style="edgeStyle=none;curved=1;rounded=0;orthogonalLoop=1;jettySize=auto;html=1;exitX=1;exitY=0.5;exitDx=0;exitDy=0;fontSize=12;startSize=8;endSize=8;" parent="K8VXgNQ1jiFXR9R-Qw6s-45" source="K8VXgNQ1jiFXR9R-Qw6s-64" target="K8VXgNQ1jiFXR9R-Qw6s-64" edge="1">
          <mxGeometry relative="1" as="geometry" />
        </mxCell>
        <mxCell id="K8VXgNQ1jiFXR9R-Qw6s-66" value="" style="ellipse;whiteSpace=wrap;html=1;aspect=fixed;fontSize=16;strokeColor=#0000CC;" parent="K8VXgNQ1jiFXR9R-Qw6s-45" vertex="1">
          <mxGeometry x="42.99" y="151" width="6" height="6" as="geometry" />
        </mxCell>
        <mxCell id="K8VXgNQ1jiFXR9R-Qw6s-67" value="" style="ellipse;whiteSpace=wrap;html=1;aspect=fixed;fontSize=16;strokeColor=#0000CC;" parent="K8VXgNQ1jiFXR9R-Qw6s-45" vertex="1">
          <mxGeometry x="43.5" y="151.49" width="5" height="5" as="geometry" />
        </mxCell>
        <mxCell id="K8VXgNQ1jiFXR9R-Qw6s-68" value="" style="ellipse;whiteSpace=wrap;html=1;aspect=fixed;fontSize=16;strokeColor=#0000CC;" parent="K8VXgNQ1jiFXR9R-Qw6s-45" vertex="1">
          <mxGeometry x="44.25" y="152.24" width="3.5" height="3.5" as="geometry" />
        </mxCell>
        <mxCell id="K8VXgNQ1jiFXR9R-Qw6s-69" value="" style="ellipse;whiteSpace=wrap;html=1;aspect=fixed;fontSize=16;strokeColor=#0000CC;" parent="K8VXgNQ1jiFXR9R-Qw6s-45" vertex="1">
          <mxGeometry x="44.75" y="152.74" width="3" height="3" as="geometry" />
        </mxCell>
        <mxCell id="K8VXgNQ1jiFXR9R-Qw6s-70" value="" style="ellipse;whiteSpace=wrap;html=1;aspect=fixed;fontSize=16;strokeColor=#0000CC;" parent="K8VXgNQ1jiFXR9R-Qw6s-45" vertex="1">
          <mxGeometry x="45.62" y="153.61" width="1.26" height="1.26" as="geometry" />
        </mxCell>
        <mxCell id="K8VXgNQ1jiFXR9R-Qw6s-71" value="" style="ellipse;whiteSpace=wrap;html=1;aspect=fixed;fontSize=16;strokeColor=#0000CC;" parent="K8VXgNQ1jiFXR9R-Qw6s-45" vertex="1">
          <mxGeometry x="46.75" y="153" width="1" height="1" as="geometry" />
        </mxCell>
        <mxCell id="K8VXgNQ1jiFXR9R-Qw6s-72" value="" style="ellipse;whiteSpace=wrap;html=1;aspect=fixed;fontSize=16;strokeColor=#0000CC;" parent="K8VXgNQ1jiFXR9R-Qw6s-45" vertex="1">
          <mxGeometry x="45.49000000000001" y="153.61" width="1" height="1" as="geometry" />
        </mxCell>
        <mxCell id="K8VXgNQ1jiFXR9R-Qw6s-73" value="" style="endArrow=none;html=1;rounded=0;fontSize=12;startSize=8;endSize=8;curved=1;" parent="K8VXgNQ1jiFXR9R-Qw6s-45" edge="1">
          <mxGeometry width="50" height="50" relative="1" as="geometry">
            <mxPoint x="120" y="206.5" as="sourcePoint" />
            <mxPoint x="125" y="200" as="targetPoint" />
          </mxGeometry>
        </mxCell>
        <mxCell id="K8VXgNQ1jiFXR9R-Qw6s-74" value="" style="group" parent="K8VXgNQ1jiFXR9R-Qw6s-45" vertex="1" connectable="0">
          <mxGeometry x="6" y="325" width="100" height="17" as="geometry" />
        </mxCell>
        <mxCell id="K8VXgNQ1jiFXR9R-Qw6s-75" value="" style="shape=link;html=1;rounded=0;fontSize=12;startSize=8;endSize=8;curved=1;width=-0.2702702702702702;strokeColor=#0000FF;" parent="K8VXgNQ1jiFXR9R-Qw6s-74" edge="1">
          <mxGeometry width="100" relative="1" as="geometry">
            <mxPoint y="17" as="sourcePoint" />
            <mxPoint x="100" y="17" as="targetPoint" />
          </mxGeometry>
        </mxCell>
        <mxCell id="K8VXgNQ1jiFXR9R-Qw6s-76" value="&lt;font color=&quot;#0000ff&quot; style=&quot;font-size: 16px;&quot;&gt;回答一覧画面&lt;/font&gt;" style="rounded=1;whiteSpace=wrap;html=1;fontSize=16;arcSize=8;verticalAlign=middle;strokeColor=none;" parent="K8VXgNQ1jiFXR9R-Qw6s-74" vertex="1">
          <mxGeometry width="100" height="16" as="geometry" />
        </mxCell>
        <mxCell id="K8VXgNQ1jiFXR9R-Qw6s-77" value="" style="group" parent="K8VXgNQ1jiFXR9R-Qw6s-45" vertex="1" connectable="0">
          <mxGeometry x="110" y="324" width="102" height="18" as="geometry" />
        </mxCell>
        <mxCell id="K8VXgNQ1jiFXR9R-Qw6s-78" value="&lt;font color=&quot;#0000ff&quot; style=&quot;font-size: 14px;&quot;&gt;ログアウトする&lt;/font&gt;" style="rounded=1;whiteSpace=wrap;html=1;fontSize=16;arcSize=8;verticalAlign=middle;strokeColor=none;" parent="K8VXgNQ1jiFXR9R-Qw6s-77" vertex="1">
          <mxGeometry width="102" height="16" as="geometry" />
        </mxCell>
        <mxCell id="K8VXgNQ1jiFXR9R-Qw6s-79" value="" style="endArrow=none;html=1;rounded=0;fontSize=12;startSize=8;endSize=8;curved=1;exitX=0.055;exitY=1;exitDx=0;exitDy=0;exitPerimeter=0;strokeColor=#0000CC;" parent="K8VXgNQ1jiFXR9R-Qw6s-77" edge="1">
          <mxGeometry width="50" height="50" relative="1" as="geometry">
            <mxPoint x="0.5" y="18" as="sourcePoint" />
            <mxPoint x="99.5" y="18" as="targetPoint" />
            <Array as="points">
              <mxPoint x="34.889999999999986" y="18" />
            </Array>
          </mxGeometry>
        </mxCell>
        <mxCell id="K8VXgNQ1jiFXR9R-Qw6s-80" value="" style="whiteSpace=wrap;html=1;aspect=fixed;fontSize=16;" parent="K8VXgNQ1jiFXR9R-Qw6s-45" vertex="1">
          <mxGeometry x="78" y="171" width="10" height="10" as="geometry" />
        </mxCell>
        <mxCell id="K8VXgNQ1jiFXR9R-Qw6s-81" value="" style="group" parent="K8VXgNQ1jiFXR9R-Qw6s-45" vertex="1" connectable="0">
          <mxGeometry x="88.5" y="169" width="61.5" height="18" as="geometry" />
        </mxCell>
        <mxCell id="K8VXgNQ1jiFXR9R-Qw6s-82" value="&lt;font style=&quot;font-size: 14px;&quot;&gt;いちご&lt;/font&gt;" style="rounded=0;whiteSpace=wrap;html=1;fontSize=16;strokeColor=none;" parent="K8VXgNQ1jiFXR9R-Qw6s-81" vertex="1">
          <mxGeometry x="1.322830188679246" y="-3.7245454545454546" width="49.89622641509434" height="20.454545454545457" as="geometry" />
        </mxCell>
        <mxCell id="K8VXgNQ1jiFXR9R-Qw6s-83" value="" style="whiteSpace=wrap;html=1;aspect=fixed;fontSize=16;" parent="K8VXgNQ1jiFXR9R-Qw6s-81" vertex="1">
          <mxGeometry x="51.5" y="2" width="10" height="10" as="geometry" />
        </mxCell>
        <mxCell id="K8VXgNQ1jiFXR9R-Qw6s-84" value="" style="group" parent="K8VXgNQ1jiFXR9R-Qw6s-45" vertex="1" connectable="0">
          <mxGeometry x="151" y="166.5" width="38" height="22" as="geometry" />
        </mxCell>
        <mxCell id="K8VXgNQ1jiFXR9R-Qw6s-85" value="&lt;font style=&quot;font-size: 14px;&quot;&gt;もも&lt;/font&gt;" style="rounded=0;whiteSpace=wrap;html=1;fontSize=16;strokeColor=none;" parent="K8VXgNQ1jiFXR9R-Qw6s-84" vertex="1">
          <mxGeometry x="7.169811320754717" y="-3" width="30.830188679245285" height="25" as="geometry" />
        </mxCell>
        <mxCell id="Mlym16SDOjxTRcLdPkZf-29" style="edgeStyle=orthogonalEdgeStyle;rounded=0;orthogonalLoop=1;jettySize=auto;html=1;exitX=0.5;exitY=0;exitDx=0;exitDy=0;entryX=0.467;entryY=0.993;entryDx=0;entryDy=0;entryPerimeter=0;" parent="1" source="K8VXgNQ1jiFXR9R-Qw6s-86" target="Mlym16SDOjxTRcLdPkZf-23" edge="1">
          <mxGeometry relative="1" as="geometry" />
        </mxCell>
        <mxCell id="Mlym16SDOjxTRcLdPkZf-35" style="edgeStyle=orthogonalEdgeStyle;rounded=0;orthogonalLoop=1;jettySize=auto;html=1;exitX=0.25;exitY=1;exitDx=0;exitDy=0;entryX=0.25;entryY=0;entryDx=0;entryDy=0;" parent="1" source="K8VXgNQ1jiFXR9R-Qw6s-86" target="4cbkZzqjSaDBzv7GfPLl-1" edge="1">
          <mxGeometry relative="1" as="geometry" />
        </mxCell>
        <mxCell id="hIAI5zJXY0UFDR0oC7-2-5" style="edgeStyle=orthogonalEdgeStyle;rounded=0;orthogonalLoop=1;jettySize=auto;html=1;exitX=0;exitY=0.5;exitDx=0;exitDy=0;entryX=1;entryY=0.5;entryDx=0;entryDy=0;" parent="1" source="Mlym16SDOjxTRcLdPkZf-7" target="K8VXgNQ1jiFXR9R-Qw6s-86" edge="1">
          <mxGeometry relative="1" as="geometry" />
        </mxCell>
        <mxCell id="K8VXgNQ1jiFXR9R-Qw6s-86" value="&lt;font style=&quot;font-size: 20px;&quot;&gt;SaveSuvey&lt;/font&gt;" style="rounded=0;whiteSpace=wrap;html=1;" parent="1" vertex="1">
          <mxGeometry x="-910" y="-3340" width="140" height="50" as="geometry" />
        </mxCell>
        <mxCell id="K8VXgNQ1jiFXR9R-Qw6s-87" value="ログアウト" style="rounded=0;whiteSpace=wrap;html=1;fontSize=16;strokeColor=none;fillColor=none;" parent="1" vertex="1">
          <mxGeometry x="-1130" y="-3080" width="88" height="41" as="geometry" />
        </mxCell>
        <mxCell id="K8VXgNQ1jiFXR9R-Qw6s-88" value="回答一覧画面" style="rounded=0;whiteSpace=wrap;html=1;fontSize=16;strokeColor=none;" parent="1" vertex="1">
          <mxGeometry x="-1400" y="-3070" width="76" height="41" as="geometry" />
        </mxCell>
        <mxCell id="xnZSr8QH6Jtr4Gc8rrdG-9" style="edgeStyle=orthogonalEdgeStyle;rounded=0;orthogonalLoop=1;jettySize=auto;html=1;exitX=0.75;exitY=0;exitDx=0;exitDy=0;entryX=0.75;entryY=1;entryDx=0;entryDy=0;" parent="1" source="4cbkZzqjSaDBzv7GfPLl-1" target="K8VXgNQ1jiFXR9R-Qw6s-86" edge="1">
          <mxGeometry relative="1" as="geometry" />
        </mxCell>
        <mxCell id="Mlym16SDOjxTRcLdPkZf-31" style="edgeStyle=orthogonalEdgeStyle;rounded=0;orthogonalLoop=1;jettySize=auto;html=1;exitX=0.25;exitY=1;exitDx=0;exitDy=0;entryX=0.25;entryY=0;entryDx=0;entryDy=0;" parent="1" source="4cbkZzqjSaDBzv7GfPLl-1" target="4cbkZzqjSaDBzv7GfPLl-3" edge="1">
          <mxGeometry relative="1" as="geometry" />
        </mxCell>
        <mxCell id="4cbkZzqjSaDBzv7GfPLl-1" value="&lt;font style=&quot;font-size: 20px;&quot;&gt;SaveSuveyBL&lt;/font&gt;" style="rounded=0;whiteSpace=wrap;html=1;" parent="1" vertex="1">
          <mxGeometry x="-910" y="-3210" width="140" height="60" as="geometry" />
        </mxCell>
        <mxCell id="xnZSr8QH6Jtr4Gc8rrdG-12" style="edgeStyle=orthogonalEdgeStyle;rounded=0;orthogonalLoop=1;jettySize=auto;html=1;exitX=0.75;exitY=0;exitDx=0;exitDy=0;entryX=0.75;entryY=1;entryDx=0;entryDy=0;" parent="1" source="4cbkZzqjSaDBzv7GfPLl-3" target="4cbkZzqjSaDBzv7GfPLl-1" edge="1">
          <mxGeometry relative="1" as="geometry" />
        </mxCell>
        <mxCell id="xnZSr8QH6Jtr4Gc8rrdG-13" style="edgeStyle=orthogonalEdgeStyle;rounded=0;orthogonalLoop=1;jettySize=auto;html=1;exitX=0.25;exitY=1;exitDx=0;exitDy=0;entryX=0.349;entryY=0.001;entryDx=0;entryDy=0;entryPerimeter=0;" parent="1" source="4cbkZzqjSaDBzv7GfPLl-3" target="xnZSr8QH6Jtr4Gc8rrdG-2" edge="1">
          <mxGeometry relative="1" as="geometry" />
        </mxCell>
        <mxCell id="4cbkZzqjSaDBzv7GfPLl-3" value="&lt;font style=&quot;font-size: 20px;&quot;&gt;SuveyDao&lt;/font&gt;" style="rounded=0;whiteSpace=wrap;html=1;" parent="1" vertex="1">
          <mxGeometry x="-910" y="-3070" width="140" height="47" as="geometry" />
        </mxCell>
        <mxCell id="xnZSr8QH6Jtr4Gc8rrdG-1" value="" style="group" parent="1" vertex="1" connectable="0">
          <mxGeometry x="-955" y="-2970" width="230" height="310" as="geometry" />
        </mxCell>
        <mxCell id="xnZSr8QH6Jtr4Gc8rrdG-2" value="" style="shape=cylinder3;whiteSpace=wrap;html=1;boundedLbl=1;backgroundOutline=1;size=54.28571428571422;" parent="xnZSr8QH6Jtr4Gc8rrdG-1" vertex="1">
          <mxGeometry width="230" height="310" as="geometry" />
        </mxCell>
        <mxCell id="xnZSr8QH6Jtr4Gc8rrdG-3" value="&lt;font style=&quot;font-size: 18px;&quot;&gt;データベース&lt;/font&gt;" style="rounded=0;whiteSpace=wrap;html=1;" parent="xnZSr8QH6Jtr4Gc8rrdG-1" vertex="1">
          <mxGeometry x="55" y="29" width="120" height="60" as="geometry" />
        </mxCell>
        <mxCell id="NIMQLbz5PkKyuse4x5OV-1" value="&lt;font style=&quot;font-size: 18px;&quot;&gt;ID&lt;br&gt;NAME&lt;br&gt;AGE&lt;br&gt;FOOD&lt;br&gt;SEX&lt;br&gt;SATISFACTION_LEVEL&lt;br&gt;MESSAGE&lt;br&gt;TIME&lt;/font&gt;" style="rounded=0;whiteSpace=wrap;html=1;strokeColor=none;" parent="xnZSr8QH6Jtr4Gc8rrdG-1" vertex="1">
          <mxGeometry x="15" y="110" width="200" height="170" as="geometry" />
        </mxCell>
        <mxCell id="xnZSr8QH6Jtr4Gc8rrdG-14" style="edgeStyle=orthogonalEdgeStyle;rounded=0;orthogonalLoop=1;jettySize=auto;html=1;exitX=0.653;exitY=0.004;exitDx=0;exitDy=0;entryX=0.75;entryY=1;entryDx=0;entryDy=0;exitPerimeter=0;" parent="1" source="xnZSr8QH6Jtr4Gc8rrdG-2" target="4cbkZzqjSaDBzv7GfPLl-3" edge="1">
          <mxGeometry relative="1" as="geometry" />
        </mxCell>
        <mxCell id="Mlym16SDOjxTRcLdPkZf-2" value="&lt;font style=&quot;font-size: 20px;&quot;&gt;finish.html&lt;/font&gt;" style="rounded=0;whiteSpace=wrap;html=1;" parent="1" vertex="1">
          <mxGeometry x="-900" y="-3660" width="120" height="30" as="geometry" />
        </mxCell>
        <mxCell id="Mlym16SDOjxTRcLdPkZf-7" value="&lt;font style=&quot;font-size: 14px;&quot;&gt;SurveyDto&lt;/font&gt;" style="rounded=0;whiteSpace=wrap;html=1;" parent="1" vertex="1">
          <mxGeometry x="-700" y="-3325" width="80" height="20" as="geometry" />
        </mxCell>
        <mxCell id="Mlym16SDOjxTRcLdPkZf-14" value="&lt;font style=&quot;font-size: 14px;&quot;&gt;SET&lt;/font&gt;" style="rounded=0;whiteSpace=wrap;html=1;strokeColor=none;fillColor=none;fontSize=9;" parent="1" vertex="1">
          <mxGeometry x="-750" y="-3340" width="30" height="20" as="geometry" />
        </mxCell>
        <mxCell id="Mlym16SDOjxTRcLdPkZf-17" value="&lt;font style=&quot;font-size: 14px;&quot;&gt;Insert&lt;/font&gt;" style="rounded=0;whiteSpace=wrap;html=1;strokeColor=none;fillColor=default;fontSize=9;" parent="1" vertex="1">
          <mxGeometry x="-900" y="-3010" width="55" height="20" as="geometry" />
        </mxCell>
        <mxCell id="Mlym16SDOjxTRcLdPkZf-18" value="&lt;font style=&quot;font-size: 14px;&quot;&gt;DB更新の可否&lt;/font&gt;" style="rounded=0;whiteSpace=wrap;html=1;strokeColor=none;fillColor=default;fontSize=9;" parent="1" vertex="1">
          <mxGeometry x="-835" y="-3010" width="95" height="20" as="geometry" />
        </mxCell>
        <mxCell id="Mlym16SDOjxTRcLdPkZf-20" value="&lt;font style=&quot;font-size: 14px;&quot;&gt;DB更新の可否&lt;/font&gt;" style="rounded=0;whiteSpace=wrap;html=1;strokeColor=none;fillColor=default;fontSize=9;" parent="1" vertex="1">
          <mxGeometry x="-835" y="-3120" width="95" height="20" as="geometry" />
        </mxCell>
        <mxCell id="Mlym16SDOjxTRcLdPkZf-21" value="&lt;font style=&quot;font-size: 14px;&quot;&gt;DB更新の成功&lt;/font&gt;" style="rounded=0;whiteSpace=wrap;html=1;strokeColor=none;fillColor=default;fontSize=9;" parent="1" vertex="1">
          <mxGeometry x="-888.75" y="-3410" width="97.5" height="20" as="geometry" />
        </mxCell>
        <mxCell id="Mlym16SDOjxTRcLdPkZf-23" value="" style="whiteSpace=wrap;html=1;fontSize=16;" parent="1" vertex="1">
          <mxGeometry x="-990" y="-3622" width="323" height="115" as="geometry" />
        </mxCell>
        <mxCell id="Mlym16SDOjxTRcLdPkZf-24" value="&lt;font style=&quot;font-size: 14px;&quot;&gt;アンケートにご回答頂きありがとうございました&lt;/font&gt;" style="rounded=0;whiteSpace=wrap;html=1;fontSize=16;strokeColor=none;" parent="1" vertex="1">
          <mxGeometry x="-985" y="-3622" width="313" height="20" as="geometry" />
        </mxCell>
        <mxCell id="Mlym16SDOjxTRcLdPkZf-25" value="" style="group" parent="1" vertex="1" connectable="0">
          <mxGeometry x="-980" y="-3600" width="118" height="44" as="geometry" />
        </mxCell>
        <mxCell id="Mlym16SDOjxTRcLdPkZf-26" value="&lt;font color=&quot;#0000ff&quot; style=&quot;font-size: 16px;&quot;&gt;回答画面に戻る&lt;/font&gt;" style="rounded=1;whiteSpace=wrap;html=1;fontSize=16;arcSize=8;verticalAlign=middle;strokeColor=none;" parent="Mlym16SDOjxTRcLdPkZf-25" vertex="1">
          <mxGeometry width="118" height="44" as="geometry" />
        </mxCell>
        <mxCell id="Mlym16SDOjxTRcLdPkZf-27" style="edgeStyle=none;curved=1;rounded=0;orthogonalLoop=1;jettySize=auto;html=1;exitX=0.75;exitY=1;exitDx=0;exitDy=0;fontSize=12;startSize=8;endSize=8;" parent="Mlym16SDOjxTRcLdPkZf-25" source="Mlym16SDOjxTRcLdPkZf-26" target="Mlym16SDOjxTRcLdPkZf-26" edge="1">
          <mxGeometry relative="1" as="geometry" />
        </mxCell>
        <mxCell id="Mlym16SDOjxTRcLdPkZf-28" value="" style="shape=link;html=1;rounded=0;fontSize=12;startSize=8;endSize=8;curved=1;width=1;strokeColor=#0000FF;" parent="Mlym16SDOjxTRcLdPkZf-25" edge="1">
          <mxGeometry width="100" relative="1" as="geometry">
            <mxPoint x="-1" y="33" as="sourcePoint" />
            <mxPoint x="119" y="33" as="targetPoint" />
          </mxGeometry>
        </mxCell>
        <mxCell id="Mlym16SDOjxTRcLdPkZf-16" value="&lt;font style=&quot;font-size: 14px;&quot;&gt;SurveyDto&lt;/font&gt;" style="rounded=0;whiteSpace=wrap;html=1;strokeColor=none;fillColor=default;fontSize=9;" parent="1" vertex="1">
          <mxGeometry x="-910" y="-3121" width="55" height="20" as="geometry" />
        </mxCell>
        <mxCell id="Mlym16SDOjxTRcLdPkZf-32" value="&lt;font style=&quot;font-size: 14px;&quot;&gt;DB更新の可否&lt;/font&gt;" style="rounded=0;whiteSpace=wrap;html=1;strokeColor=none;fillColor=default;fontSize=9;" parent="1" vertex="1">
          <mxGeometry x="-835" y="-3260" width="95" height="20" as="geometry" />
        </mxCell>
        <mxCell id="Mlym16SDOjxTRcLdPkZf-33" value="&lt;font style=&quot;font-size: 14px;&quot;&gt;SurveyDto&lt;/font&gt;" style="rounded=0;whiteSpace=wrap;html=1;strokeColor=none;fillColor=default;fontSize=9;" parent="1" vertex="1">
          <mxGeometry x="-910" y="-3260" width="55" height="20" as="geometry" />
        </mxCell>
        <mxCell id="hIAI5zJXY0UFDR0oC7-2-1" style="edgeStyle=orthogonalEdgeStyle;rounded=0;orthogonalLoop=1;jettySize=auto;html=1;exitX=1;exitY=0.5;exitDx=0;exitDy=0;entryX=0;entryY=0.5;entryDx=0;entryDy=0;" parent="1" source="K8VXgNQ1jiFXR9R-Qw6s-46" target="K8VXgNQ1jiFXR9R-Qw6s-86" edge="1">
          <mxGeometry relative="1" as="geometry" />
        </mxCell>
        <mxCell id="hIAI5zJXY0UFDR0oC7-2-3" style="edgeStyle=orthogonalEdgeStyle;rounded=0;orthogonalLoop=1;jettySize=auto;html=1;exitX=0.775;exitY=1.012;exitDx=0;exitDy=0;entryX=0.5;entryY=0;entryDx=0;entryDy=0;exitPerimeter=0;" parent="1" source="K8VXgNQ1jiFXR9R-Qw6s-46" target="_MH9jKTk7bNkno5BnJLa-6" edge="1">
          <mxGeometry relative="1" as="geometry" />
        </mxCell>
        <mxCell id="C_FEAakUNSGaaKCgpK9H-1" value="「回答する」を押したとき" style="rounded=0;whiteSpace=wrap;html=1;strokeColor=none;fillColor=none;" parent="1" vertex="1">
          <mxGeometry x="-1058" y="-3340" width="148" height="20" as="geometry" />
        </mxCell>
      </root>
    </mxGraphModel>
  </diagram>
  <diagram id="X4MBHWU-X8IjqgbjCeiv" name="ページ3">
    <mxGraphModel dx="2410" dy="3874" grid="1" gridSize="10" guides="1" tooltips="1" connect="1" arrows="1" fold="1" page="1" pageScale="1" pageWidth="827" pageHeight="1169" math="0" shadow="0">
      <root>
        <mxCell id="0" />
        <mxCell id="1" parent="0" />
        <mxCell id="zFuBj_0lC2ANNg6hLrLW-1" value="&lt;font style=&quot;font-size: 20px;&quot;&gt;form.jsp&lt;/font&gt;" style="rounded=0;whiteSpace=wrap;html=1;" parent="1" vertex="1">
          <mxGeometry x="-910" y="-3120" width="120" height="30" as="geometry" />
        </mxCell>
        <mxCell id="zFuBj_0lC2ANNg6hLrLW-49" style="edgeStyle=orthogonalEdgeStyle;rounded=0;orthogonalLoop=1;jettySize=auto;html=1;exitX=0.5;exitY=1;exitDx=0;exitDy=0;entryX=0.5;entryY=0;entryDx=0;entryDy=0;" parent="1" source="zFuBj_0lC2ANNg6hLrLW-5" target="zFuBj_0lC2ANNg6hLrLW-48" edge="1">
          <mxGeometry relative="1" as="geometry" />
        </mxCell>
        <mxCell id="1jB9demt3B7dtNLpHYdN-3" style="edgeStyle=orthogonalEdgeStyle;rounded=0;orthogonalLoop=1;jettySize=auto;html=1;exitX=1;exitY=0.5;exitDx=0;exitDy=0;entryX=0;entryY=0.5;entryDx=0;entryDy=0;" parent="1" source="zFuBj_0lC2ANNg6hLrLW-5" target="2zcn6rCcjnf1BnhXZ0Fy-1" edge="1">
          <mxGeometry relative="1" as="geometry" />
        </mxCell>
        <mxCell id="zFuBj_0lC2ANNg6hLrLW-5" value="&lt;div style=&quot;padding: 0px 0px 0px 2px;&quot;&gt;&lt;div style=&quot;font-family: &amp;quot;ＭＳ ゴシック&amp;quot;;&quot;&gt;&lt;p style=&quot;margin: 0px;&quot;&gt;&lt;span style=&quot;background-color: rgb(255, 255, 255);&quot;&gt;&lt;font style=&quot;font-size: 20px;&quot;&gt;ExecuteLogout&lt;/font&gt;&lt;/span&gt;&lt;/p&gt;&lt;/div&gt;&lt;/div&gt;" style="rounded=0;whiteSpace=wrap;html=1;" parent="1" vertex="1">
          <mxGeometry x="-519" y="-2890" width="150" height="30" as="geometry" />
        </mxCell>
        <mxCell id="zFuBj_0lC2ANNg6hLrLW-6" value="" style="group" parent="1" vertex="1" connectable="0">
          <mxGeometry x="-1000" y="-3085" width="332" height="420" as="geometry" />
        </mxCell>
        <mxCell id="zFuBj_0lC2ANNg6hLrLW-7" value="" style="rounded=0;whiteSpace=wrap;html=1;fontSize=16;" parent="zFuBj_0lC2ANNg6hLrLW-6" vertex="1">
          <mxGeometry width="332" height="420" as="geometry" />
        </mxCell>
        <mxCell id="zFuBj_0lC2ANNg6hLrLW-8" value="&lt;font style=&quot;font-size: 14px;&quot;&gt;MORIOKA&lt;/font&gt;" style="rounded=0;whiteSpace=wrap;html=1;fontSize=16;strokeColor=none;" parent="zFuBj_0lC2ANNg6hLrLW-6" vertex="1">
          <mxGeometry x="82.5" y="72" width="75.5" height="22" as="geometry" />
        </mxCell>
        <mxCell id="zFuBj_0lC2ANNg6hLrLW-9" value="&lt;font style=&quot;font-size: 14px;&quot;&gt;名前&lt;/font&gt;" style="rounded=0;whiteSpace=wrap;html=1;fontSize=16;strokeColor=none;" parent="zFuBj_0lC2ANNg6hLrLW-6" vertex="1">
          <mxGeometry x="32" y="72" width="43" height="22" as="geometry" />
        </mxCell>
        <mxCell id="zFuBj_0lC2ANNg6hLrLW-10" value="ねこちゃん暮らしアンケート" style="rounded=0;whiteSpace=wrap;html=1;fontSize=16;" parent="zFuBj_0lC2ANNg6hLrLW-6" vertex="1">
          <mxGeometry x="36" y="18" width="213" height="22" as="geometry" />
        </mxCell>
        <mxCell id="zFuBj_0lC2ANNg6hLrLW-11" value="&lt;font style=&quot;font-size: 14px;&quot;&gt;年齢：&lt;/font&gt;" style="rounded=0;whiteSpace=wrap;html=1;fontSize=16;strokeColor=none;" parent="zFuBj_0lC2ANNg6hLrLW-6" vertex="1">
          <mxGeometry x="29" y="113" width="55" height="22" as="geometry" />
        </mxCell>
        <mxCell id="zFuBj_0lC2ANNg6hLrLW-12" value="" style="rounded=0;whiteSpace=wrap;html=1;fontSize=16;" parent="zFuBj_0lC2ANNg6hLrLW-6" vertex="1">
          <mxGeometry x="84" y="113" width="78" height="22" as="geometry" />
        </mxCell>
        <mxCell id="zFuBj_0lC2ANNg6hLrLW-13" value="&lt;font style=&quot;font-size: 10px;&quot;&gt;オス&lt;/font&gt;" style="rounded=0;whiteSpace=wrap;html=1;fontSize=16;strokeColor=none;" parent="zFuBj_0lC2ANNg6hLrLW-6" vertex="1">
          <mxGeometry x="51" y="141" width="27" height="22" as="geometry" />
        </mxCell>
        <mxCell id="zFuBj_0lC2ANNg6hLrLW-14" value="メス" style="rounded=0;whiteSpace=wrap;html=1;fontSize=10;strokeColor=none;" parent="zFuBj_0lC2ANNg6hLrLW-6" vertex="1">
          <mxGeometry x="97" y="143" width="23" height="22" as="geometry" />
        </mxCell>
        <mxCell id="zFuBj_0lC2ANNg6hLrLW-15" value="" style="ellipse;whiteSpace=wrap;html=1;aspect=fixed;fontSize=16;strokeColor=#0000CC;" parent="zFuBj_0lC2ANNg6hLrLW-6" vertex="1">
          <mxGeometry x="41" y="149" width="10" height="10" as="geometry" />
        </mxCell>
        <mxCell id="zFuBj_0lC2ANNg6hLrLW-16" value="" style="ellipse;whiteSpace=wrap;html=1;aspect=fixed;fontSize=16;" parent="zFuBj_0lC2ANNg6hLrLW-6" vertex="1">
          <mxGeometry x="84" y="149" width="10" height="10" as="geometry" />
        </mxCell>
        <mxCell id="zFuBj_0lC2ANNg6hLrLW-17" value="" style="group" parent="zFuBj_0lC2ANNg6hLrLW-6" vertex="1" connectable="0">
          <mxGeometry x="22" y="165" width="57" height="22" as="geometry" />
        </mxCell>
        <mxCell id="zFuBj_0lC2ANNg6hLrLW-18" value="" style="whiteSpace=wrap;html=1;aspect=fixed;fontSize=16;" parent="zFuBj_0lC2ANNg6hLrLW-17" vertex="1">
          <mxGeometry y="6" width="10" height="10" as="geometry" />
        </mxCell>
        <mxCell id="zFuBj_0lC2ANNg6hLrLW-19" value="&lt;font style=&quot;font-size: 14px;&quot;&gt;りんご&lt;/font&gt;" style="rounded=0;whiteSpace=wrap;html=1;fontSize=16;strokeColor=none;" parent="zFuBj_0lC2ANNg6hLrLW-17" vertex="1">
          <mxGeometry x="10" y="-3" width="47" height="25" as="geometry" />
        </mxCell>
        <mxCell id="zFuBj_0lC2ANNg6hLrLW-20" value="&lt;font style=&quot;font-size: 11px;&quot;&gt;とても満足&lt;/font&gt;" style="rounded=1;whiteSpace=wrap;html=1;fontSize=16;arcSize=8;" parent="zFuBj_0lC2ANNg6hLrLW-6" vertex="1">
          <mxGeometry x="22" y="197" width="91" height="17" as="geometry" />
        </mxCell>
        <mxCell id="zFuBj_0lC2ANNg6hLrLW-21" value="" style="endArrow=none;html=1;rounded=0;fontSize=12;startSize=8;endSize=8;curved=1;" parent="zFuBj_0lC2ANNg6hLrLW-6" edge="1">
          <mxGeometry width="50" height="50" relative="1" as="geometry">
            <mxPoint x="120" y="206.5" as="sourcePoint" />
            <mxPoint x="115" y="200" as="targetPoint" />
          </mxGeometry>
        </mxCell>
        <mxCell id="zFuBj_0lC2ANNg6hLrLW-22" value="&lt;font style=&quot;font-size: 14px;&quot;&gt;飼い主へのご意見・ご感想をご記入ください。&lt;/font&gt;" style="rounded=0;whiteSpace=wrap;html=1;fontSize=16;strokeColor=none;" parent="zFuBj_0lC2ANNg6hLrLW-6" vertex="1">
          <mxGeometry x="11" y="223" width="297" height="16" as="geometry" />
        </mxCell>
        <mxCell id="zFuBj_0lC2ANNg6hLrLW-23" value="" style="rounded=0;whiteSpace=wrap;html=1;fontSize=16;" parent="zFuBj_0lC2ANNg6hLrLW-6" vertex="1">
          <mxGeometry x="11" y="247" width="203" height="37" as="geometry" />
        </mxCell>
        <mxCell id="zFuBj_0lC2ANNg6hLrLW-24" value="&lt;font style=&quot;font-size: 14px;&quot;&gt;回答する&lt;/font&gt;" style="rounded=1;whiteSpace=wrap;html=1;fontSize=16;arcSize=8;verticalAlign=middle;" parent="zFuBj_0lC2ANNg6hLrLW-6" vertex="1">
          <mxGeometry x="11" y="297" width="95" height="16" as="geometry" />
        </mxCell>
        <mxCell id="zFuBj_0lC2ANNg6hLrLW-25" value="" style="ellipse;whiteSpace=wrap;html=1;aspect=fixed;fontSize=16;strokeColor=#0000CC;" parent="zFuBj_0lC2ANNg6hLrLW-6" vertex="1">
          <mxGeometry x="42.35" y="150.35" width="7.29" height="7.29" as="geometry" />
        </mxCell>
        <mxCell id="zFuBj_0lC2ANNg6hLrLW-26" style="edgeStyle=none;curved=1;rounded=0;orthogonalLoop=1;jettySize=auto;html=1;exitX=1;exitY=0.5;exitDx=0;exitDy=0;fontSize=12;startSize=8;endSize=8;" parent="zFuBj_0lC2ANNg6hLrLW-6" source="zFuBj_0lC2ANNg6hLrLW-25" target="zFuBj_0lC2ANNg6hLrLW-25" edge="1">
          <mxGeometry relative="1" as="geometry" />
        </mxCell>
        <mxCell id="zFuBj_0lC2ANNg6hLrLW-27" value="" style="ellipse;whiteSpace=wrap;html=1;aspect=fixed;fontSize=16;strokeColor=#0000CC;" parent="zFuBj_0lC2ANNg6hLrLW-6" vertex="1">
          <mxGeometry x="42.99" y="151" width="6" height="6" as="geometry" />
        </mxCell>
        <mxCell id="zFuBj_0lC2ANNg6hLrLW-28" value="" style="ellipse;whiteSpace=wrap;html=1;aspect=fixed;fontSize=16;strokeColor=#0000CC;" parent="zFuBj_0lC2ANNg6hLrLW-6" vertex="1">
          <mxGeometry x="43.5" y="151.49" width="5" height="5" as="geometry" />
        </mxCell>
        <mxCell id="zFuBj_0lC2ANNg6hLrLW-29" value="" style="ellipse;whiteSpace=wrap;html=1;aspect=fixed;fontSize=16;strokeColor=#0000CC;" parent="zFuBj_0lC2ANNg6hLrLW-6" vertex="1">
          <mxGeometry x="44.25" y="152.24" width="3.5" height="3.5" as="geometry" />
        </mxCell>
        <mxCell id="zFuBj_0lC2ANNg6hLrLW-30" value="" style="ellipse;whiteSpace=wrap;html=1;aspect=fixed;fontSize=16;strokeColor=#0000CC;" parent="zFuBj_0lC2ANNg6hLrLW-6" vertex="1">
          <mxGeometry x="44.75" y="152.74" width="3" height="3" as="geometry" />
        </mxCell>
        <mxCell id="zFuBj_0lC2ANNg6hLrLW-31" value="" style="ellipse;whiteSpace=wrap;html=1;aspect=fixed;fontSize=16;strokeColor=#0000CC;" parent="zFuBj_0lC2ANNg6hLrLW-6" vertex="1">
          <mxGeometry x="45.62" y="153.61" width="1.26" height="1.26" as="geometry" />
        </mxCell>
        <mxCell id="zFuBj_0lC2ANNg6hLrLW-32" value="" style="ellipse;whiteSpace=wrap;html=1;aspect=fixed;fontSize=16;strokeColor=#0000CC;" parent="zFuBj_0lC2ANNg6hLrLW-6" vertex="1">
          <mxGeometry x="46.75" y="153" width="1" height="1" as="geometry" />
        </mxCell>
        <mxCell id="zFuBj_0lC2ANNg6hLrLW-33" value="" style="ellipse;whiteSpace=wrap;html=1;aspect=fixed;fontSize=16;strokeColor=#0000CC;" parent="zFuBj_0lC2ANNg6hLrLW-6" vertex="1">
          <mxGeometry x="45.49000000000001" y="153.61" width="1" height="1" as="geometry" />
        </mxCell>
        <mxCell id="zFuBj_0lC2ANNg6hLrLW-34" value="" style="endArrow=none;html=1;rounded=0;fontSize=12;startSize=8;endSize=8;curved=1;" parent="zFuBj_0lC2ANNg6hLrLW-6" edge="1">
          <mxGeometry width="50" height="50" relative="1" as="geometry">
            <mxPoint x="120" y="206.5" as="sourcePoint" />
            <mxPoint x="125" y="200" as="targetPoint" />
          </mxGeometry>
        </mxCell>
        <mxCell id="zFuBj_0lC2ANNg6hLrLW-35" value="" style="group" parent="zFuBj_0lC2ANNg6hLrLW-6" vertex="1" connectable="0">
          <mxGeometry x="6" y="325" width="100" height="17" as="geometry" />
        </mxCell>
        <mxCell id="zFuBj_0lC2ANNg6hLrLW-36" value="" style="shape=link;html=1;rounded=0;fontSize=12;startSize=8;endSize=8;curved=1;width=-0.2702702702702702;strokeColor=#0000FF;" parent="zFuBj_0lC2ANNg6hLrLW-35" edge="1">
          <mxGeometry width="100" relative="1" as="geometry">
            <mxPoint y="17" as="sourcePoint" />
            <mxPoint x="100" y="17" as="targetPoint" />
          </mxGeometry>
        </mxCell>
        <mxCell id="zFuBj_0lC2ANNg6hLrLW-37" value="&lt;font color=&quot;#0000ff&quot; style=&quot;font-size: 16px;&quot;&gt;回答一覧画面&lt;/font&gt;" style="rounded=1;whiteSpace=wrap;html=1;fontSize=16;arcSize=8;verticalAlign=middle;strokeColor=none;" parent="zFuBj_0lC2ANNg6hLrLW-35" vertex="1">
          <mxGeometry width="100" height="16" as="geometry" />
        </mxCell>
        <mxCell id="zFuBj_0lC2ANNg6hLrLW-38" value="" style="group" parent="zFuBj_0lC2ANNg6hLrLW-6" vertex="1" connectable="0">
          <mxGeometry x="110" y="324" width="102" height="18" as="geometry" />
        </mxCell>
        <mxCell id="zFuBj_0lC2ANNg6hLrLW-39" value="&lt;font color=&quot;#0000ff&quot; style=&quot;font-size: 14px;&quot;&gt;ログアウトする&lt;/font&gt;" style="rounded=1;whiteSpace=wrap;html=1;fontSize=16;arcSize=8;verticalAlign=middle;strokeColor=none;" parent="zFuBj_0lC2ANNg6hLrLW-38" vertex="1">
          <mxGeometry width="102" height="16" as="geometry" />
        </mxCell>
        <mxCell id="zFuBj_0lC2ANNg6hLrLW-40" value="" style="endArrow=none;html=1;rounded=0;fontSize=12;startSize=8;endSize=8;curved=1;exitX=0.055;exitY=1;exitDx=0;exitDy=0;exitPerimeter=0;strokeColor=#0000CC;" parent="zFuBj_0lC2ANNg6hLrLW-38" edge="1">
          <mxGeometry width="50" height="50" relative="1" as="geometry">
            <mxPoint x="0.5" y="18" as="sourcePoint" />
            <mxPoint x="99.5" y="18" as="targetPoint" />
            <Array as="points">
              <mxPoint x="34.889999999999986" y="18" />
            </Array>
          </mxGeometry>
        </mxCell>
        <mxCell id="zFuBj_0lC2ANNg6hLrLW-41" value="" style="whiteSpace=wrap;html=1;aspect=fixed;fontSize=16;" parent="zFuBj_0lC2ANNg6hLrLW-6" vertex="1">
          <mxGeometry x="78" y="171" width="10" height="10" as="geometry" />
        </mxCell>
        <mxCell id="zFuBj_0lC2ANNg6hLrLW-42" value="" style="group" parent="zFuBj_0lC2ANNg6hLrLW-6" vertex="1" connectable="0">
          <mxGeometry x="88.5" y="169" width="61.5" height="18" as="geometry" />
        </mxCell>
        <mxCell id="zFuBj_0lC2ANNg6hLrLW-43" value="&lt;font style=&quot;font-size: 14px;&quot;&gt;いちご&lt;/font&gt;" style="rounded=0;whiteSpace=wrap;html=1;fontSize=16;strokeColor=none;" parent="zFuBj_0lC2ANNg6hLrLW-42" vertex="1">
          <mxGeometry x="1.322830188679246" y="-3.7245454545454546" width="49.89622641509434" height="20.454545454545457" as="geometry" />
        </mxCell>
        <mxCell id="zFuBj_0lC2ANNg6hLrLW-44" value="" style="whiteSpace=wrap;html=1;aspect=fixed;fontSize=16;" parent="zFuBj_0lC2ANNg6hLrLW-42" vertex="1">
          <mxGeometry x="51.5" y="2" width="10" height="10" as="geometry" />
        </mxCell>
        <mxCell id="zFuBj_0lC2ANNg6hLrLW-45" value="" style="group" parent="zFuBj_0lC2ANNg6hLrLW-6" vertex="1" connectable="0">
          <mxGeometry x="151" y="166.5" width="38" height="22" as="geometry" />
        </mxCell>
        <mxCell id="zFuBj_0lC2ANNg6hLrLW-46" value="&lt;font style=&quot;font-size: 14px;&quot;&gt;もも&lt;/font&gt;" style="rounded=0;whiteSpace=wrap;html=1;fontSize=16;strokeColor=none;" parent="zFuBj_0lC2ANNg6hLrLW-45" vertex="1">
          <mxGeometry x="7.169811320754717" y="-3" width="30.830188679245285" height="25" as="geometry" />
        </mxCell>
        <mxCell id="zFuBj_0lC2ANNg6hLrLW-48" value="&lt;font style=&quot;font-size: 20px;&quot;&gt;logout.jsp&lt;/font&gt;" style="rounded=0;whiteSpace=wrap;html=1;" parent="1" vertex="1">
          <mxGeometry x="-504" y="-2820" width="120" height="60" as="geometry" />
        </mxCell>
        <mxCell id="8SN_RRxamKvGPW4IFMCa-1" value="" style="group" parent="1" vertex="1" connectable="0">
          <mxGeometry x="-587" y="-2750" width="298" height="152" as="geometry" />
        </mxCell>
        <mxCell id="8SN_RRxamKvGPW4IFMCa-2" value="" style="rounded=0;whiteSpace=wrap;html=1;fontSize=16;verticalAlign=top;" parent="8SN_RRxamKvGPW4IFMCa-1" vertex="1">
          <mxGeometry x="-3" width="298" height="152" as="geometry" />
        </mxCell>
        <mxCell id="8SN_RRxamKvGPW4IFMCa-3" value="&lt;font style=&quot;font-size: 14px;&quot;&gt;ログアウトしました。&lt;/font&gt;" style="rounded=0;whiteSpace=wrap;html=1;fontSize=16;strokeColor=none;" parent="8SN_RRxamKvGPW4IFMCa-1" vertex="1">
          <mxGeometry x="8" y="29" width="147" height="21" as="geometry" />
        </mxCell>
        <mxCell id="8SN_RRxamKvGPW4IFMCa-4" value="&lt;font style=&quot;font-size: 15px;&quot;&gt;ログイン（ログアウト完了画面&lt;/font&gt;）" style="rounded=0;whiteSpace=wrap;html=1;fontSize=16;" parent="8SN_RRxamKvGPW4IFMCa-1" vertex="1">
          <mxGeometry x="8" y="5" width="238" height="24" as="geometry" />
        </mxCell>
        <mxCell id="8SN_RRxamKvGPW4IFMCa-5" style="edgeStyle=none;curved=1;rounded=0;orthogonalLoop=1;jettySize=auto;html=1;exitX=0.5;exitY=1;exitDx=0;exitDy=0;fontSize=12;startSize=8;endSize=8;" parent="8SN_RRxamKvGPW4IFMCa-1" source="8SN_RRxamKvGPW4IFMCa-4" target="8SN_RRxamKvGPW4IFMCa-4" edge="1">
          <mxGeometry relative="1" as="geometry" />
        </mxCell>
        <mxCell id="8SN_RRxamKvGPW4IFMCa-6" value="&lt;font color=&quot;#0000cc&quot; style=&quot;font-size: 14px;&quot;&gt;ログイン画面に戻る&lt;/font&gt;" style="rounded=0;whiteSpace=wrap;html=1;fontSize=16;strokeColor=none;" parent="8SN_RRxamKvGPW4IFMCa-1" vertex="1">
          <mxGeometry x="8" y="50" width="132" height="15" as="geometry" />
        </mxCell>
        <mxCell id="8SN_RRxamKvGPW4IFMCa-7" value="" style="endArrow=none;html=1;rounded=0;fontSize=12;startSize=8;endSize=8;strokeColor=#0000CC;entryX=0.967;entryY=0.981;entryDx=0;entryDy=0;entryPerimeter=0;" parent="8SN_RRxamKvGPW4IFMCa-1" target="8SN_RRxamKvGPW4IFMCa-6" edge="1">
          <mxGeometry width="50" height="50" relative="1" as="geometry">
            <mxPoint x="11.819999999999993" y="65" as="sourcePoint" />
            <mxPoint x="136.1739999999998" y="66.13999999999999" as="targetPoint" />
            <Array as="points" />
          </mxGeometry>
        </mxCell>
        <mxCell id="8SN_RRxamKvGPW4IFMCa-8" style="edgeStyle=none;curved=1;rounded=0;orthogonalLoop=1;jettySize=auto;html=1;exitX=0;exitY=0.75;exitDx=0;exitDy=0;fontSize=12;startSize=8;endSize=8;" parent="1" edge="1">
          <mxGeometry relative="1" as="geometry">
            <mxPoint x="-520" y="-2535.5" as="sourcePoint" />
            <mxPoint x="-520" y="-2535.5" as="targetPoint" />
          </mxGeometry>
        </mxCell>
        <mxCell id="8SN_RRxamKvGPW4IFMCa-9" style="edgeStyle=none;curved=1;rounded=0;orthogonalLoop=1;jettySize=auto;html=1;exitX=0.5;exitY=1;exitDx=0;exitDy=0;fontSize=12;startSize=8;endSize=8;" parent="1" edge="1">
          <mxGeometry relative="1" as="geometry">
            <mxPoint x="-555.5" y="-2545.3199999999997" as="sourcePoint" />
            <mxPoint x="-555.5" y="-2545.3199999999997" as="targetPoint" />
          </mxGeometry>
        </mxCell>
        <mxCell id="E-w3H-xNV4unTu2V2W77-1" value="" style="group" parent="1" vertex="1" connectable="0">
          <mxGeometry x="-608" y="-2470" width="330" height="170" as="geometry" />
        </mxCell>
        <mxCell id="E-w3H-xNV4unTu2V2W77-2" value="" style="rounded=0;whiteSpace=wrap;html=1;fontSize=16;verticalAlign=top;" parent="E-w3H-xNV4unTu2V2W77-1" vertex="1">
          <mxGeometry width="330" height="170" as="geometry" />
        </mxCell>
        <mxCell id="E-w3H-xNV4unTu2V2W77-3" value="" style="rounded=0;whiteSpace=wrap;html=1;fontSize=16;" parent="E-w3H-xNV4unTu2V2W77-1" vertex="1">
          <mxGeometry x="19.99805369127517" y="71" width="120.8053691275168" height="15" as="geometry" />
        </mxCell>
        <mxCell id="E-w3H-xNV4unTu2V2W77-4" value="&lt;font style=&quot;font-size: 18px;&quot;&gt;ユーザーID:&lt;/font&gt;" style="rounded=0;whiteSpace=wrap;html=1;fontSize=16;strokeColor=none;" parent="E-w3H-xNV4unTu2V2W77-1" vertex="1">
          <mxGeometry x="12.083691275167787" y="40" width="112.751677852349" height="21" as="geometry" />
        </mxCell>
        <mxCell id="E-w3H-xNV4unTu2V2W77-5" value="&lt;font style=&quot;font-size: 16px;&quot;&gt;パスワード：&lt;/font&gt;" style="rounded=0;whiteSpace=wrap;html=1;fontSize=16;strokeColor=none;" parent="E-w3H-xNV4unTu2V2W77-1" vertex="1">
          <mxGeometry x="8.057114093959733" y="101" width="110.73825503355705" height="18" as="geometry" />
        </mxCell>
        <mxCell id="E-w3H-xNV4unTu2V2W77-6" value="" style="rounded=0;whiteSpace=wrap;html=1;fontSize=16;" parent="E-w3H-xNV4unTu2V2W77-1" vertex="1">
          <mxGeometry x="19.99805369127517" y="123" width="120.8053691275168" height="14" as="geometry" />
        </mxCell>
        <mxCell id="E-w3H-xNV4unTu2V2W77-7" style="edgeStyle=none;curved=1;rounded=0;orthogonalLoop=1;jettySize=auto;html=1;exitX=0;exitY=0.75;exitDx=0;exitDy=0;fontSize=12;startSize=8;endSize=8;" parent="E-w3H-xNV4unTu2V2W77-1" source="E-w3H-xNV4unTu2V2W77-6" target="E-w3H-xNV4unTu2V2W77-6" edge="1">
          <mxGeometry relative="1" as="geometry" />
        </mxCell>
        <mxCell id="E-w3H-xNV4unTu2V2W77-8" value="&lt;font style=&quot;font-size: 20px;&quot;&gt;ログイン&lt;/font&gt;" style="rounded=0;whiteSpace=wrap;html=1;fontSize=16;" parent="E-w3H-xNV4unTu2V2W77-1" vertex="1">
          <mxGeometry x="8.05" y="5" width="151.95" height="35" as="geometry" />
        </mxCell>
        <mxCell id="E-w3H-xNV4unTu2V2W77-9" style="edgeStyle=none;curved=1;rounded=0;orthogonalLoop=1;jettySize=auto;html=1;exitX=0.5;exitY=1;exitDx=0;exitDy=0;fontSize=12;startSize=8;endSize=8;" parent="E-w3H-xNV4unTu2V2W77-1" source="E-w3H-xNV4unTu2V2W77-8" target="E-w3H-xNV4unTu2V2W77-8" edge="1">
          <mxGeometry relative="1" as="geometry" />
        </mxCell>
        <mxCell id="E-w3H-xNV4unTu2V2W77-10" value="&lt;font style=&quot;font-size: 18px;&quot;&gt;Login.jsp&lt;/font&gt;" style="rounded=0;whiteSpace=wrap;html=1;" parent="1" vertex="1">
          <mxGeometry x="-524" y="-2560" width="160" height="78" as="geometry" />
        </mxCell>
        <mxCell id="E-w3H-xNV4unTu2V2W77-11" style="edgeStyle=orthogonalEdgeStyle;rounded=0;orthogonalLoop=1;jettySize=auto;html=1;exitX=0.5;exitY=1;exitDx=0;exitDy=0;entryX=0.5;entryY=0;entryDx=0;entryDy=0;" parent="1" source="8SN_RRxamKvGPW4IFMCa-2" target="E-w3H-xNV4unTu2V2W77-10" edge="1">
          <mxGeometry relative="1" as="geometry" />
        </mxCell>
        <mxCell id="2zcn6rCcjnf1BnhXZ0Fy-1" value="セッションスコープ" style="ellipse;whiteSpace=wrap;html=1;align=center;dashed=1;" parent="1" vertex="1">
          <mxGeometry x="-210" y="-2910" width="120" height="70" as="geometry" />
        </mxCell>
        <mxCell id="2zcn6rCcjnf1BnhXZ0Fy-6" value="" style="shape=mxgraph.sysml.x;strokeWidth=3;perimeterSpacing=0;" parent="1" vertex="1">
          <mxGeometry x="-170" y="-2930" width="40" height="40" as="geometry" />
        </mxCell>
        <mxCell id="1jB9demt3B7dtNLpHYdN-1" value="&lt;span style=&quot;font-size: 14px;&quot;&gt;破棄&lt;/span&gt;" style="rounded=0;whiteSpace=wrap;html=1;strokeColor=none;fillColor=default;fontSize=9;" parent="1" vertex="1">
          <mxGeometry x="-340" y="-2885" width="95" height="20" as="geometry" />
        </mxCell>
        <mxCell id="1jB9demt3B7dtNLpHYdN-6" style="edgeStyle=orthogonalEdgeStyle;rounded=0;orthogonalLoop=1;jettySize=auto;html=1;exitX=1;exitY=0.5;exitDx=0;exitDy=0;entryX=0;entryY=0.5;entryDx=0;entryDy=0;" parent="1" source="zFuBj_0lC2ANNg6hLrLW-7" target="zFuBj_0lC2ANNg6hLrLW-5" edge="1">
          <mxGeometry relative="1" as="geometry" />
        </mxCell>
      </root>
    </mxGraphModel>
  </diagram>
  <diagram id="Yek-QFav7Qo08oFdiMlI" name="ページ4">
    <mxGraphModel dx="2259" dy="3801" grid="1" gridSize="10" guides="1" tooltips="1" connect="1" arrows="1" fold="1" page="1" pageScale="1" pageWidth="827" pageHeight="1169" math="0" shadow="0">
      <root>
        <mxCell id="0" />
        <mxCell id="1" parent="0" />
        <mxCell id="AoSO9Ku1F6AYonf7Y3hE-1" style="edgeStyle=orthogonalEdgeStyle;rounded=0;orthogonalLoop=1;jettySize=auto;html=1;exitX=0.5;exitY=1;exitDx=0;exitDy=0;entryX=0.5;entryY=0;entryDx=0;entryDy=0;" parent="1" source="AoSO9Ku1F6AYonf7Y3hE-2" target="AoSO9Ku1F6AYonf7Y3hE-3" edge="1">
          <mxGeometry relative="1" as="geometry" />
        </mxCell>
        <mxCell id="AoSO9Ku1F6AYonf7Y3hE-2" value="&lt;font style=&quot;font-size: 20px;&quot;&gt;InputSavey&lt;/font&gt;" style="rounded=0;whiteSpace=wrap;html=1;" parent="1" vertex="1">
          <mxGeometry x="-500" y="-3470" width="120" height="30" as="geometry" />
        </mxCell>
        <mxCell id="AoSO9Ku1F6AYonf7Y3hE-3" value="&lt;font style=&quot;font-size: 20px;&quot;&gt;form.jsp&lt;/font&gt;" style="rounded=0;whiteSpace=wrap;html=1;" parent="1" vertex="1">
          <mxGeometry x="-500" y="-3400" width="120" height="30" as="geometry" />
        </mxCell>
        <mxCell id="AoSO9Ku1F6AYonf7Y3hE-4" value="" style="rounded=0;whiteSpace=wrap;html=1;strokeColor=none;" parent="1" vertex="1">
          <mxGeometry x="-430" y="-3430" width="60" height="20" as="geometry" />
        </mxCell>
        <mxCell id="y_MgGNPtTECNk1MXh9GY-4" style="edgeStyle=orthogonalEdgeStyle;rounded=0;orthogonalLoop=1;jettySize=auto;html=1;exitX=0.75;exitY=1;exitDx=0;exitDy=0;entryX=0.714;entryY=0;entryDx=0;entryDy=0;entryPerimeter=0;" parent="1" edge="1">
          <mxGeometry relative="1" as="geometry">
            <mxPoint x="-482.77" y="-2820" as="sourcePoint" />
            <mxPoint x="-482.674" y="-2750" as="targetPoint" />
          </mxGeometry>
        </mxCell>
        <mxCell id="nGMME1pJz1aA9q55MlCc-5" style="edgeStyle=orthogonalEdgeStyle;rounded=0;orthogonalLoop=1;jettySize=auto;html=1;exitX=0;exitY=0.25;exitDx=0;exitDy=0;entryX=1;entryY=0.25;entryDx=0;entryDy=0;" parent="1" source="AoSO9Ku1F6AYonf7Y3hE-6" target="Ysd4YFMl1Z-nb0zGZ5A9-3" edge="1">
          <mxGeometry relative="1" as="geometry" />
        </mxCell>
        <mxCell id="AoSO9Ku1F6AYonf7Y3hE-6" value="&lt;div style=&quot;padding: 0px 0px 0px 2px;&quot;&gt;&lt;div style=&quot;&quot;&gt;&lt;p style=&quot;margin: 0px;&quot;&gt;&lt;span style=&quot;background-color: rgb(255, 255, 255);&quot;&gt;&lt;font style=&quot;font-size: 20px;&quot;&gt;ShowAllSurvey&lt;/font&gt;&lt;/span&gt;&lt;/p&gt;&lt;/div&gt;&lt;/div&gt;" style="rounded=0;whiteSpace=wrap;html=1;" parent="1" vertex="1">
          <mxGeometry x="-514" y="-2850" width="140" height="30" as="geometry" />
        </mxCell>
        <mxCell id="AoSO9Ku1F6AYonf7Y3hE-9" value="" style="group" parent="1" vertex="1" connectable="0">
          <mxGeometry x="-610" y="-3360" width="332" height="420" as="geometry" />
        </mxCell>
        <mxCell id="AoSO9Ku1F6AYonf7Y3hE-10" value="" style="rounded=0;whiteSpace=wrap;html=1;fontSize=16;" parent="AoSO9Ku1F6AYonf7Y3hE-9" vertex="1">
          <mxGeometry width="332" height="420" as="geometry" />
        </mxCell>
        <mxCell id="AoSO9Ku1F6AYonf7Y3hE-11" value="&lt;font style=&quot;font-size: 14px;&quot;&gt;MORIOKA&lt;/font&gt;" style="rounded=0;whiteSpace=wrap;html=1;fontSize=16;strokeColor=none;" parent="AoSO9Ku1F6AYonf7Y3hE-9" vertex="1">
          <mxGeometry x="82.5" y="72" width="75.5" height="22" as="geometry" />
        </mxCell>
        <mxCell id="AoSO9Ku1F6AYonf7Y3hE-12" value="&lt;font style=&quot;font-size: 14px;&quot;&gt;名前&lt;/font&gt;" style="rounded=0;whiteSpace=wrap;html=1;fontSize=16;strokeColor=none;" parent="AoSO9Ku1F6AYonf7Y3hE-9" vertex="1">
          <mxGeometry x="32" y="72" width="43" height="22" as="geometry" />
        </mxCell>
        <mxCell id="AoSO9Ku1F6AYonf7Y3hE-13" value="ねこちゃん暮らしアンケート" style="rounded=0;whiteSpace=wrap;html=1;fontSize=16;" parent="AoSO9Ku1F6AYonf7Y3hE-9" vertex="1">
          <mxGeometry x="36" y="18" width="213" height="22" as="geometry" />
        </mxCell>
        <mxCell id="AoSO9Ku1F6AYonf7Y3hE-14" value="&lt;font style=&quot;font-size: 14px;&quot;&gt;年齢：&lt;/font&gt;" style="rounded=0;whiteSpace=wrap;html=1;fontSize=16;strokeColor=none;" parent="AoSO9Ku1F6AYonf7Y3hE-9" vertex="1">
          <mxGeometry x="29" y="113" width="55" height="22" as="geometry" />
        </mxCell>
        <mxCell id="AoSO9Ku1F6AYonf7Y3hE-15" value="" style="rounded=0;whiteSpace=wrap;html=1;fontSize=16;" parent="AoSO9Ku1F6AYonf7Y3hE-9" vertex="1">
          <mxGeometry x="84" y="113" width="78" height="22" as="geometry" />
        </mxCell>
        <mxCell id="AoSO9Ku1F6AYonf7Y3hE-16" value="&lt;font style=&quot;font-size: 10px;&quot;&gt;オス&lt;/font&gt;" style="rounded=0;whiteSpace=wrap;html=1;fontSize=16;strokeColor=none;" parent="AoSO9Ku1F6AYonf7Y3hE-9" vertex="1">
          <mxGeometry x="51" y="141" width="27" height="22" as="geometry" />
        </mxCell>
        <mxCell id="AoSO9Ku1F6AYonf7Y3hE-17" value="メス" style="rounded=0;whiteSpace=wrap;html=1;fontSize=10;strokeColor=none;" parent="AoSO9Ku1F6AYonf7Y3hE-9" vertex="1">
          <mxGeometry x="97" y="143" width="23" height="22" as="geometry" />
        </mxCell>
        <mxCell id="AoSO9Ku1F6AYonf7Y3hE-18" value="" style="ellipse;whiteSpace=wrap;html=1;aspect=fixed;fontSize=16;strokeColor=#0000CC;" parent="AoSO9Ku1F6AYonf7Y3hE-9" vertex="1">
          <mxGeometry x="41" y="149" width="10" height="10" as="geometry" />
        </mxCell>
        <mxCell id="AoSO9Ku1F6AYonf7Y3hE-19" value="" style="ellipse;whiteSpace=wrap;html=1;aspect=fixed;fontSize=16;" parent="AoSO9Ku1F6AYonf7Y3hE-9" vertex="1">
          <mxGeometry x="84" y="149" width="10" height="10" as="geometry" />
        </mxCell>
        <mxCell id="AoSO9Ku1F6AYonf7Y3hE-20" value="" style="group" parent="AoSO9Ku1F6AYonf7Y3hE-9" vertex="1" connectable="0">
          <mxGeometry x="22" y="165" width="57" height="22" as="geometry" />
        </mxCell>
        <mxCell id="AoSO9Ku1F6AYonf7Y3hE-21" value="" style="whiteSpace=wrap;html=1;aspect=fixed;fontSize=16;" parent="AoSO9Ku1F6AYonf7Y3hE-20" vertex="1">
          <mxGeometry y="6" width="10" height="10" as="geometry" />
        </mxCell>
        <mxCell id="AoSO9Ku1F6AYonf7Y3hE-22" value="&lt;font style=&quot;font-size: 14px;&quot;&gt;りんご&lt;/font&gt;" style="rounded=0;whiteSpace=wrap;html=1;fontSize=16;strokeColor=none;" parent="AoSO9Ku1F6AYonf7Y3hE-20" vertex="1">
          <mxGeometry x="10" y="-3" width="47" height="25" as="geometry" />
        </mxCell>
        <mxCell id="AoSO9Ku1F6AYonf7Y3hE-23" value="&lt;font style=&quot;font-size: 11px;&quot;&gt;とても満足&lt;/font&gt;" style="rounded=1;whiteSpace=wrap;html=1;fontSize=16;arcSize=8;" parent="AoSO9Ku1F6AYonf7Y3hE-9" vertex="1">
          <mxGeometry x="22" y="197" width="91" height="17" as="geometry" />
        </mxCell>
        <mxCell id="AoSO9Ku1F6AYonf7Y3hE-24" value="" style="endArrow=none;html=1;rounded=0;fontSize=12;startSize=8;endSize=8;curved=1;" parent="AoSO9Ku1F6AYonf7Y3hE-9" edge="1">
          <mxGeometry width="50" height="50" relative="1" as="geometry">
            <mxPoint x="120" y="206.5" as="sourcePoint" />
            <mxPoint x="115" y="200" as="targetPoint" />
          </mxGeometry>
        </mxCell>
        <mxCell id="AoSO9Ku1F6AYonf7Y3hE-25" value="&lt;font style=&quot;font-size: 14px;&quot;&gt;飼い主へのご意見・ご感想をご記入ください。&lt;/font&gt;" style="rounded=0;whiteSpace=wrap;html=1;fontSize=16;strokeColor=none;" parent="AoSO9Ku1F6AYonf7Y3hE-9" vertex="1">
          <mxGeometry x="11" y="223" width="297" height="16" as="geometry" />
        </mxCell>
        <mxCell id="AoSO9Ku1F6AYonf7Y3hE-26" value="" style="rounded=0;whiteSpace=wrap;html=1;fontSize=16;" parent="AoSO9Ku1F6AYonf7Y3hE-9" vertex="1">
          <mxGeometry x="11" y="247" width="203" height="37" as="geometry" />
        </mxCell>
        <mxCell id="AoSO9Ku1F6AYonf7Y3hE-27" value="&lt;font style=&quot;font-size: 14px;&quot;&gt;回答する&lt;/font&gt;" style="rounded=1;whiteSpace=wrap;html=1;fontSize=16;arcSize=8;verticalAlign=middle;" parent="AoSO9Ku1F6AYonf7Y3hE-9" vertex="1">
          <mxGeometry x="11" y="297" width="95" height="16" as="geometry" />
        </mxCell>
        <mxCell id="AoSO9Ku1F6AYonf7Y3hE-28" value="" style="ellipse;whiteSpace=wrap;html=1;aspect=fixed;fontSize=16;strokeColor=#0000CC;" parent="AoSO9Ku1F6AYonf7Y3hE-9" vertex="1">
          <mxGeometry x="42.35" y="150.35" width="7.29" height="7.29" as="geometry" />
        </mxCell>
        <mxCell id="AoSO9Ku1F6AYonf7Y3hE-29" style="edgeStyle=none;curved=1;rounded=0;orthogonalLoop=1;jettySize=auto;html=1;exitX=1;exitY=0.5;exitDx=0;exitDy=0;fontSize=12;startSize=8;endSize=8;" parent="AoSO9Ku1F6AYonf7Y3hE-9" source="AoSO9Ku1F6AYonf7Y3hE-28" target="AoSO9Ku1F6AYonf7Y3hE-28" edge="1">
          <mxGeometry relative="1" as="geometry" />
        </mxCell>
        <mxCell id="AoSO9Ku1F6AYonf7Y3hE-30" value="" style="ellipse;whiteSpace=wrap;html=1;aspect=fixed;fontSize=16;strokeColor=#0000CC;" parent="AoSO9Ku1F6AYonf7Y3hE-9" vertex="1">
          <mxGeometry x="42.99" y="151" width="6" height="6" as="geometry" />
        </mxCell>
        <mxCell id="AoSO9Ku1F6AYonf7Y3hE-31" value="" style="ellipse;whiteSpace=wrap;html=1;aspect=fixed;fontSize=16;strokeColor=#0000CC;" parent="AoSO9Ku1F6AYonf7Y3hE-9" vertex="1">
          <mxGeometry x="43.5" y="151.49" width="5" height="5" as="geometry" />
        </mxCell>
        <mxCell id="AoSO9Ku1F6AYonf7Y3hE-32" value="" style="ellipse;whiteSpace=wrap;html=1;aspect=fixed;fontSize=16;strokeColor=#0000CC;" parent="AoSO9Ku1F6AYonf7Y3hE-9" vertex="1">
          <mxGeometry x="44.25" y="152.24" width="3.5" height="3.5" as="geometry" />
        </mxCell>
        <mxCell id="AoSO9Ku1F6AYonf7Y3hE-33" value="" style="ellipse;whiteSpace=wrap;html=1;aspect=fixed;fontSize=16;strokeColor=#0000CC;" parent="AoSO9Ku1F6AYonf7Y3hE-9" vertex="1">
          <mxGeometry x="44.75" y="152.74" width="3" height="3" as="geometry" />
        </mxCell>
        <mxCell id="AoSO9Ku1F6AYonf7Y3hE-34" value="" style="ellipse;whiteSpace=wrap;html=1;aspect=fixed;fontSize=16;strokeColor=#0000CC;" parent="AoSO9Ku1F6AYonf7Y3hE-9" vertex="1">
          <mxGeometry x="45.62" y="153.61" width="1.26" height="1.26" as="geometry" />
        </mxCell>
        <mxCell id="AoSO9Ku1F6AYonf7Y3hE-35" value="" style="ellipse;whiteSpace=wrap;html=1;aspect=fixed;fontSize=16;strokeColor=#0000CC;" parent="AoSO9Ku1F6AYonf7Y3hE-9" vertex="1">
          <mxGeometry x="46.75" y="153" width="1" height="1" as="geometry" />
        </mxCell>
        <mxCell id="AoSO9Ku1F6AYonf7Y3hE-36" value="" style="ellipse;whiteSpace=wrap;html=1;aspect=fixed;fontSize=16;strokeColor=#0000CC;" parent="AoSO9Ku1F6AYonf7Y3hE-9" vertex="1">
          <mxGeometry x="45.49000000000001" y="153.61" width="1" height="1" as="geometry" />
        </mxCell>
        <mxCell id="AoSO9Ku1F6AYonf7Y3hE-37" value="" style="endArrow=none;html=1;rounded=0;fontSize=12;startSize=8;endSize=8;curved=1;" parent="AoSO9Ku1F6AYonf7Y3hE-9" edge="1">
          <mxGeometry width="50" height="50" relative="1" as="geometry">
            <mxPoint x="120" y="206.5" as="sourcePoint" />
            <mxPoint x="125" y="200" as="targetPoint" />
          </mxGeometry>
        </mxCell>
        <mxCell id="AoSO9Ku1F6AYonf7Y3hE-38" value="" style="group" parent="AoSO9Ku1F6AYonf7Y3hE-9" vertex="1" connectable="0">
          <mxGeometry x="6" y="325" width="100" height="17" as="geometry" />
        </mxCell>
        <mxCell id="AoSO9Ku1F6AYonf7Y3hE-39" value="" style="shape=link;html=1;rounded=0;fontSize=12;startSize=8;endSize=8;curved=1;width=-0.2702702702702702;strokeColor=#0000FF;" parent="AoSO9Ku1F6AYonf7Y3hE-38" edge="1">
          <mxGeometry width="100" relative="1" as="geometry">
            <mxPoint y="17" as="sourcePoint" />
            <mxPoint x="100" y="17" as="targetPoint" />
          </mxGeometry>
        </mxCell>
        <mxCell id="AoSO9Ku1F6AYonf7Y3hE-40" value="&lt;font color=&quot;#0000ff&quot; style=&quot;font-size: 16px;&quot;&gt;回答一覧画面&lt;/font&gt;" style="rounded=1;whiteSpace=wrap;html=1;fontSize=16;arcSize=8;verticalAlign=middle;strokeColor=none;" parent="AoSO9Ku1F6AYonf7Y3hE-38" vertex="1">
          <mxGeometry width="100" height="16" as="geometry" />
        </mxCell>
        <mxCell id="AoSO9Ku1F6AYonf7Y3hE-41" value="" style="group" parent="AoSO9Ku1F6AYonf7Y3hE-9" vertex="1" connectable="0">
          <mxGeometry x="110" y="324" width="102" height="18" as="geometry" />
        </mxCell>
        <mxCell id="AoSO9Ku1F6AYonf7Y3hE-42" value="&lt;font color=&quot;#0000ff&quot; style=&quot;font-size: 14px;&quot;&gt;ログアウトする&lt;/font&gt;" style="rounded=1;whiteSpace=wrap;html=1;fontSize=16;arcSize=8;verticalAlign=middle;strokeColor=none;" parent="AoSO9Ku1F6AYonf7Y3hE-41" vertex="1">
          <mxGeometry width="102" height="16" as="geometry" />
        </mxCell>
        <mxCell id="AoSO9Ku1F6AYonf7Y3hE-43" value="" style="endArrow=none;html=1;rounded=0;fontSize=12;startSize=8;endSize=8;curved=1;exitX=0.055;exitY=1;exitDx=0;exitDy=0;exitPerimeter=0;strokeColor=#0000CC;" parent="AoSO9Ku1F6AYonf7Y3hE-41" edge="1">
          <mxGeometry width="50" height="50" relative="1" as="geometry">
            <mxPoint x="0.5" y="18" as="sourcePoint" />
            <mxPoint x="99.5" y="18" as="targetPoint" />
            <Array as="points">
              <mxPoint x="34.889999999999986" y="18" />
            </Array>
          </mxGeometry>
        </mxCell>
        <mxCell id="AoSO9Ku1F6AYonf7Y3hE-44" value="" style="whiteSpace=wrap;html=1;aspect=fixed;fontSize=16;" parent="AoSO9Ku1F6AYonf7Y3hE-9" vertex="1">
          <mxGeometry x="78" y="171" width="10" height="10" as="geometry" />
        </mxCell>
        <mxCell id="AoSO9Ku1F6AYonf7Y3hE-45" value="" style="group" parent="AoSO9Ku1F6AYonf7Y3hE-9" vertex="1" connectable="0">
          <mxGeometry x="88.5" y="169" width="61.5" height="18" as="geometry" />
        </mxCell>
        <mxCell id="AoSO9Ku1F6AYonf7Y3hE-46" value="&lt;font style=&quot;font-size: 14px;&quot;&gt;いちご&lt;/font&gt;" style="rounded=0;whiteSpace=wrap;html=1;fontSize=16;strokeColor=none;" parent="AoSO9Ku1F6AYonf7Y3hE-45" vertex="1">
          <mxGeometry x="1.322830188679246" y="-3.7245454545454546" width="49.89622641509434" height="20.454545454545457" as="geometry" />
        </mxCell>
        <mxCell id="AoSO9Ku1F6AYonf7Y3hE-47" value="" style="whiteSpace=wrap;html=1;aspect=fixed;fontSize=16;" parent="AoSO9Ku1F6AYonf7Y3hE-45" vertex="1">
          <mxGeometry x="51.5" y="2" width="10" height="10" as="geometry" />
        </mxCell>
        <mxCell id="AoSO9Ku1F6AYonf7Y3hE-48" value="" style="group" parent="AoSO9Ku1F6AYonf7Y3hE-9" vertex="1" connectable="0">
          <mxGeometry x="151" y="166.5" width="38" height="22" as="geometry" />
        </mxCell>
        <mxCell id="AoSO9Ku1F6AYonf7Y3hE-49" value="&lt;font style=&quot;font-size: 14px;&quot;&gt;もも&lt;/font&gt;" style="rounded=0;whiteSpace=wrap;html=1;fontSize=16;strokeColor=none;" parent="AoSO9Ku1F6AYonf7Y3hE-48" vertex="1">
          <mxGeometry x="7.169811320754717" y="-3" width="30.830188679245285" height="25" as="geometry" />
        </mxCell>
        <mxCell id="06kgE_6u0D8-DtCVua7_-1" style="edgeStyle=orthogonalEdgeStyle;rounded=0;orthogonalLoop=1;jettySize=auto;html=1;exitX=0.5;exitY=1;exitDx=0;exitDy=0;entryX=0.5;entryY=0;entryDx=0;entryDy=0;" parent="1" source="AoSO9Ku1F6AYonf7Y3hE-10" target="AoSO9Ku1F6AYonf7Y3hE-6" edge="1">
          <mxGeometry relative="1" as="geometry" />
        </mxCell>
        <mxCell id="GQ25qrsRcH8uAQPaZZ6N-12" style="edgeStyle=orthogonalEdgeStyle;rounded=0;orthogonalLoop=1;jettySize=auto;html=1;exitX=0.75;exitY=0;exitDx=0;exitDy=0;entryX=0.75;entryY=1;entryDx=0;entryDy=0;" parent="1" source="y2e5RnbPxVuHuCp0bzij-2" target="06kgE_6u0D8-DtCVua7_-2" edge="1">
          <mxGeometry relative="1" as="geometry" />
        </mxCell>
        <mxCell id="GQ25qrsRcH8uAQPaZZ6N-13" style="edgeStyle=orthogonalEdgeStyle;rounded=0;orthogonalLoop=1;jettySize=auto;html=1;exitX=0.25;exitY=1;exitDx=0;exitDy=0;entryX=0.192;entryY=-0.064;entryDx=0;entryDy=0;entryPerimeter=0;" parent="1" source="06kgE_6u0D8-DtCVua7_-2" target="y2e5RnbPxVuHuCp0bzij-2" edge="1">
          <mxGeometry relative="1" as="geometry" />
        </mxCell>
        <mxCell id="y_MgGNPtTECNk1MXh9GY-3" style="edgeStyle=orthogonalEdgeStyle;rounded=0;orthogonalLoop=1;jettySize=auto;html=1;exitX=0.25;exitY=0;exitDx=0;exitDy=0;entryX=0.206;entryY=1.139;entryDx=0;entryDy=0;entryPerimeter=0;" parent="1" edge="1">
          <mxGeometry relative="1" as="geometry">
            <mxPoint x="-400.15" y="-2750" as="sourcePoint" />
            <mxPoint x="-400.31000000000006" y="-2815.83" as="targetPoint" />
          </mxGeometry>
        </mxCell>
        <mxCell id="06kgE_6u0D8-DtCVua7_-2" value="&lt;font style=&quot;font-size: 20px;&quot;&gt;ShowAllSurveyBL&lt;/font&gt;" style="rounded=0;whiteSpace=wrap;html=1;" parent="1" vertex="1">
          <mxGeometry x="-526" y="-2750" width="164" height="60" as="geometry" />
        </mxCell>
        <mxCell id="GQ25qrsRcH8uAQPaZZ6N-14" style="edgeStyle=orthogonalEdgeStyle;rounded=0;orthogonalLoop=1;jettySize=auto;html=1;exitX=0.25;exitY=1;exitDx=0;exitDy=0;entryX=0.362;entryY=0.006;entryDx=0;entryDy=0;entryPerimeter=0;" parent="1" source="y2e5RnbPxVuHuCp0bzij-2" target="y2e5RnbPxVuHuCp0bzij-4" edge="1">
          <mxGeometry relative="1" as="geometry" />
        </mxCell>
        <mxCell id="y2e5RnbPxVuHuCp0bzij-2" value="&lt;font style=&quot;font-size: 20px;&quot;&gt;SuveyDao&lt;/font&gt;" style="rounded=0;whiteSpace=wrap;html=1;" parent="1" vertex="1">
          <mxGeometry x="-512" y="-2616.5" width="144" height="47" as="geometry" />
        </mxCell>
        <mxCell id="y2e5RnbPxVuHuCp0bzij-3" value="" style="group" parent="1" vertex="1" connectable="0">
          <mxGeometry x="-559" y="-2510" width="230" height="310" as="geometry" />
        </mxCell>
        <mxCell id="y2e5RnbPxVuHuCp0bzij-4" value="" style="shape=cylinder3;whiteSpace=wrap;html=1;boundedLbl=1;backgroundOutline=1;size=54.28571428571422;" parent="y2e5RnbPxVuHuCp0bzij-3" vertex="1">
          <mxGeometry width="230" height="310" as="geometry" />
        </mxCell>
        <mxCell id="y2e5RnbPxVuHuCp0bzij-5" value="&lt;font style=&quot;font-size: 18px;&quot;&gt;データベース&lt;/font&gt;" style="rounded=0;whiteSpace=wrap;html=1;" parent="y2e5RnbPxVuHuCp0bzij-3" vertex="1">
          <mxGeometry x="55" y="29" width="120" height="60" as="geometry" />
        </mxCell>
        <mxCell id="y2e5RnbPxVuHuCp0bzij-6" value="&lt;font style=&quot;font-size: 18px;&quot;&gt;ID&lt;br&gt;NAME&lt;br&gt;AGE&lt;br&gt;FOOD&lt;br&gt;SEX&lt;br&gt;SATISFACTION_LEVEL&lt;br&gt;MESSAGE&lt;br&gt;TIME&lt;/font&gt;" style="rounded=0;whiteSpace=wrap;html=1;strokeColor=none;" parent="y2e5RnbPxVuHuCp0bzij-3" vertex="1">
          <mxGeometry x="15" y="110" width="200" height="170" as="geometry" />
        </mxCell>
        <mxCell id="tR4sTLyd2ebT-FxLkmpU-1" value="&lt;font style=&quot;font-size: 14px;&quot;&gt;Select&lt;/font&gt;" style="rounded=0;whiteSpace=wrap;html=1;strokeColor=none;fillColor=default;fontSize=9;" parent="1" vertex="1">
          <mxGeometry x="-510" y="-2550" width="55" height="20" as="geometry" />
        </mxCell>
        <mxCell id="Ysd4YFMl1Z-nb0zGZ5A9-1" value="&lt;font style=&quot;font-size: 14px;&quot;&gt;フォワード&lt;/font&gt;" style="rounded=0;whiteSpace=wrap;html=1;strokeColor=none;fillColor=default;fontSize=9;" parent="1" vertex="1">
          <mxGeometry x="-730" y="-2870" width="90" height="20" as="geometry" />
        </mxCell>
        <mxCell id="Ysd4YFMl1Z-nb0zGZ5A9-3" value="&lt;font style=&quot;font-size: 20px;&quot;&gt;show.jsp&lt;/font&gt;" style="rounded=0;whiteSpace=wrap;html=1;" parent="1" vertex="1">
          <mxGeometry x="-1060" y="-2840" width="120" height="35" as="geometry" />
        </mxCell>
        <mxCell id="GQ25qrsRcH8uAQPaZZ6N-15" style="edgeStyle=orthogonalEdgeStyle;rounded=0;orthogonalLoop=1;jettySize=auto;html=1;exitX=0.673;exitY=0.016;exitDx=0;exitDy=0;entryX=0.75;entryY=1;entryDx=0;entryDy=0;exitPerimeter=0;" parent="1" source="y2e5RnbPxVuHuCp0bzij-4" target="y2e5RnbPxVuHuCp0bzij-2" edge="1">
          <mxGeometry relative="1" as="geometry" />
        </mxCell>
        <mxCell id="Ysd4YFMl1Z-nb0zGZ5A9-2" value="&lt;span style=&quot;font-size: 14px;&quot;&gt;DBデータ全件抽出&lt;/span&gt;" style="rounded=0;whiteSpace=wrap;html=1;strokeColor=none;fillColor=default;fontSize=9;" parent="1" vertex="1">
          <mxGeometry x="-430" y="-2550" width="120" height="20" as="geometry" />
        </mxCell>
        <mxCell id="GQ25qrsRcH8uAQPaZZ6N-16" value="&lt;span style=&quot;font-size: 14px;&quot;&gt;DBデータ全件抽出&lt;/span&gt;" style="rounded=0;whiteSpace=wrap;html=1;strokeColor=none;fillColor=default;fontSize=9;" parent="1" vertex="1">
          <mxGeometry x="-440" y="-2660" width="120" height="20" as="geometry" />
        </mxCell>
        <mxCell id="LdKrj9FGav3xJ7UdZ-Ue-1" value="" style="group;strokeColor=default;" parent="1" vertex="1" connectable="0">
          <mxGeometry x="-1250" y="-2800" width="580" height="88" as="geometry" />
        </mxCell>
        <mxCell id="LdKrj9FGav3xJ7UdZ-Ue-2" value="&lt;font style=&quot;font-size: 14px;&quot;&gt;名前&lt;/font&gt;" style="rounded=0;whiteSpace=wrap;html=1;fontSize=16;strokeColor=none;" parent="LdKrj9FGav3xJ7UdZ-Ue-1" vertex="1">
          <mxGeometry x="15.660250042242348" y="5.587301587301587" width="62.259682052530984" height="6.634920634920634" as="geometry" />
        </mxCell>
        <mxCell id="LdKrj9FGav3xJ7UdZ-Ue-3" value="&lt;font style=&quot;font-size: 14px;&quot;&gt;年齢&lt;/font&gt;" style="rounded=0;whiteSpace=wrap;html=1;fontSize=16;strokeColor=none;" parent="LdKrj9FGav3xJ7UdZ-Ue-1" vertex="1">
          <mxGeometry x="86.40268383842503" y="5.587301587301587" width="62.259682052530984" height="6.634920634920634" as="geometry" />
        </mxCell>
        <mxCell id="LdKrj9FGav3xJ7UdZ-Ue-4" value="&lt;font style=&quot;font-size: 14px;&quot;&gt;好きな食べ物&lt;/font&gt;" style="rounded=0;whiteSpace=wrap;html=1;fontSize=16;strokeColor=none;" parent="LdKrj9FGav3xJ7UdZ-Ue-1" vertex="1">
          <mxGeometry x="189.23472853865547" y="5.59" width="147.96442781227185" height="6.63" as="geometry" />
        </mxCell>
        <mxCell id="LdKrj9FGav3xJ7UdZ-Ue-5" value="&lt;font style=&quot;font-size: 14px;&quot;&gt;性別&lt;/font&gt;" style="rounded=0;whiteSpace=wrap;html=1;fontSize=16;strokeColor=none;" parent="LdKrj9FGav3xJ7UdZ-Ue-1" vertex="1">
          <mxGeometry x="144.4693320452293" y="5.587301587301587" width="62.259682052530984" height="6.634920634920634" as="geometry" />
        </mxCell>
        <mxCell id="LdKrj9FGav3xJ7UdZ-Ue-6" value="&lt;font style=&quot;font-size: 14px;&quot;&gt;満足度&lt;/font&gt;" style="rounded=0;whiteSpace=wrap;html=1;fontSize=16;strokeColor=none;" parent="LdKrj9FGav3xJ7UdZ-Ue-1" vertex="1">
          <mxGeometry x="325.04172585683006" y="5.59" width="66.88579484100495" height="6.63" as="geometry" />
        </mxCell>
        <mxCell id="LdKrj9FGav3xJ7UdZ-Ue-7" value="&lt;font color=&quot;#0000cc&quot; style=&quot;font-size: 14px;&quot;&gt;回答画面に戻る&lt;/font&gt;" style="rounded=0;whiteSpace=wrap;html=1;fontSize=16;strokeColor=none;" parent="LdKrj9FGav3xJ7UdZ-Ue-1" vertex="1">
          <mxGeometry x="10" y="70" width="149.23" height="7.68" as="geometry" />
        </mxCell>
        <mxCell id="LdKrj9FGav3xJ7UdZ-Ue-8" value="&lt;font style=&quot;font-size: 14px;&quot;&gt;コメント&lt;/font&gt;" style="rounded=0;whiteSpace=wrap;html=1;fontSize=16;strokeColor=none;" parent="LdKrj9FGav3xJ7UdZ-Ue-1" vertex="1">
          <mxGeometry x="391.92752069783506" y="5.59" width="78.82119921058026" height="6.63" as="geometry" />
        </mxCell>
        <mxCell id="LdKrj9FGav3xJ7UdZ-Ue-9" value="" style="endArrow=none;html=1;rounded=0;fontSize=12;startSize=8;endSize=8;strokeColor=#0000FF;" parent="LdKrj9FGav3xJ7UdZ-Ue-1" edge="1">
          <mxGeometry width="50" height="50" relative="1" as="geometry">
            <mxPoint x="32.84492916282724" y="80" as="sourcePoint" />
            <mxPoint x="130" y="80" as="targetPoint" />
            <Array as="points">
              <mxPoint x="120.22118263236575" y="80.1" />
            </Array>
          </mxGeometry>
        </mxCell>
        <mxCell id="LdKrj9FGav3xJ7UdZ-Ue-10" value="&lt;font style=&quot;font-size: 14px;&quot;&gt;コマンド&lt;/font&gt;" style="rounded=0;whiteSpace=wrap;html=1;fontSize=16;strokeColor=none;" parent="LdKrj9FGav3xJ7UdZ-Ue-1" vertex="1">
          <mxGeometry x="459.39528715937087" y="5.59" width="74.26963803539509" height="6.63" as="geometry" />
        </mxCell>
        <mxCell id="LdKrj9FGav3xJ7UdZ-Ue-11" value="&lt;font style=&quot;font-size: 13px;&quot;&gt;MORIOKA&lt;/font&gt;" style="rounded=0;whiteSpace=wrap;html=1;fontSize=16;strokeColor=none;" parent="LdKrj9FGav3xJ7UdZ-Ue-1" vertex="1">
          <mxGeometry x="15.656368169555925" y="29.997301587301536" width="62.259682052530984" height="6.634920634920634" as="geometry" />
        </mxCell>
        <mxCell id="LdKrj9FGav3xJ7UdZ-Ue-12" value="&lt;font style=&quot;font-size: 13px;&quot;&gt;26&lt;/font&gt;" style="rounded=0;whiteSpace=wrap;html=1;fontSize=16;strokeColor=none;" parent="LdKrj9FGav3xJ7UdZ-Ue-1" vertex="1">
          <mxGeometry x="90.58790292466222" y="29.997301587301536" width="53.87857100699797" height="6.634920634920634" as="geometry" />
        </mxCell>
        <mxCell id="LdKrj9FGav3xJ7UdZ-Ue-13" value="&lt;font style=&quot;font-size: 13px;&quot;&gt;1&lt;/font&gt;" style="rounded=0;whiteSpace=wrap;html=1;fontSize=16;strokeColor=none;" parent="LdKrj9FGav3xJ7UdZ-Ue-1" vertex="1">
          <mxGeometry x="148.65586597492722" y="29.997301587301536" width="53.87857100699797" height="6.634920634920634" as="geometry" />
        </mxCell>
        <mxCell id="LdKrj9FGav3xJ7UdZ-Ue-14" value="&lt;font style=&quot;font-size: 13px;&quot;&gt;apple&lt;/font&gt;" style="rounded=0;whiteSpace=wrap;html=1;fontSize=16;strokeColor=none;" parent="LdKrj9FGav3xJ7UdZ-Ue-1" vertex="1">
          <mxGeometry x="224.45360545029416" y="29.997301587301536" width="53.87857100699797" height="6.634920634920634" as="geometry" />
        </mxCell>
        <mxCell id="LdKrj9FGav3xJ7UdZ-Ue-15" value="&lt;font style=&quot;font-size: 13px;&quot;&gt;1&lt;/font&gt;" style="rounded=0;whiteSpace=wrap;html=1;fontSize=16;strokeColor=none;" parent="LdKrj9FGav3xJ7UdZ-Ue-1" vertex="1">
          <mxGeometry x="331.542172752977" y="29.997301587301536" width="53.87857100699797" height="6.634920634920634" as="geometry" />
        </mxCell>
        <mxCell id="LdKrj9FGav3xJ7UdZ-Ue-16" value="&lt;font style=&quot;font-size: 13px;&quot;&gt;コメント&lt;/font&gt;" style="rounded=0;whiteSpace=wrap;html=1;fontSize=16;strokeColor=none;" parent="LdKrj9FGav3xJ7UdZ-Ue-1" vertex="1">
          <mxGeometry x="395.8883849797737" y="30" width="70.91267352764264" height="6.63" as="geometry" />
        </mxCell>
        <mxCell id="LdKrj9FGav3xJ7UdZ-Ue-17" value="&lt;font color=&quot;#0000cc&quot; style=&quot;font-size: 13px;&quot;&gt;削除&lt;/font&gt;" style="rounded=0;whiteSpace=wrap;html=1;fontSize=16;strokeColor=none;" parent="LdKrj9FGav3xJ7UdZ-Ue-1" vertex="1">
          <mxGeometry x="466.8056879811839" y="29.997301587301536" width="53.87857100699797" height="6.634920634920634" as="geometry" />
        </mxCell>
        <mxCell id="LdKrj9FGav3xJ7UdZ-Ue-18" value="&lt;span style=&quot;font-size: 12px;&quot;&gt;編集&lt;/span&gt;" style="rounded=0;whiteSpace=wrap;html=1;fontSize=16;strokeColor=none;" parent="LdKrj9FGav3xJ7UdZ-Ue-1" vertex="1">
          <mxGeometry x="533.66" y="5.59" width="36.34" height="6.63" as="geometry" />
        </mxCell>
        <mxCell id="LdKrj9FGav3xJ7UdZ-Ue-19" value="&lt;font color=&quot;#0000cc&quot; style=&quot;font-size: 13px;&quot;&gt;編集&lt;/font&gt;" style="rounded=0;whiteSpace=wrap;html=1;fontSize=16;strokeColor=none;" parent="LdKrj9FGav3xJ7UdZ-Ue-1" vertex="1">
          <mxGeometry x="533.6635064118116" y="29.997301587301536" width="40.80819273663141" height="6.634920634920634" as="geometry" />
        </mxCell>
        <mxCell id="h4A2Xy5pX3i8kcreiQGg-5" value="" style="endArrow=classic;html=1;curved=1;" edge="1" parent="1">
          <mxGeometry width="50" height="50" relative="1" as="geometry">
            <mxPoint x="-500" y="-2820" as="sourcePoint" />
            <mxPoint x="-520" y="-2820" as="targetPoint" />
            <Array as="points">
              <mxPoint x="-520" y="-2820" />
              <mxPoint x="-650" y="-2610" />
              <mxPoint x="-650" y="-2780" />
              <mxPoint x="-550" y="-2820" />
            </Array>
          </mxGeometry>
        </mxCell>
        <mxCell id="p93PiVRpp01wP2SQCanU-1" value="リクエストスコープ" style="ellipse;whiteSpace=wrap;html=1;" parent="1" vertex="1">
          <mxGeometry x="-720" y="-2660" width="120" height="80" as="geometry" />
        </mxCell>
        <mxCell id="h4A2Xy5pX3i8kcreiQGg-6" value="" style="curved=1;endArrow=classic;html=1;rounded=0;" edge="1" parent="1">
          <mxGeometry width="50" height="50" relative="1" as="geometry">
            <mxPoint x="-820" y="-2710" as="sourcePoint" />
            <mxPoint x="-760" y="-2710" as="targetPoint" />
            <Array as="points">
              <mxPoint x="-760" y="-2625" />
              <mxPoint x="-690" y="-2640" />
            </Array>
          </mxGeometry>
        </mxCell>
        <mxCell id="h4A2Xy5pX3i8kcreiQGg-7" value="DB全件を取得" style="rounded=0;whiteSpace=wrap;html=1;strokeColor=none;" vertex="1" parent="1">
          <mxGeometry x="-860" y="-2680" width="120" height="30" as="geometry" />
        </mxCell>
        <mxCell id="h4A2Xy5pX3i8kcreiQGg-8" value="&lt;span style=&quot;font-size: 14px;&quot;&gt;DBデータ全件保存&lt;/span&gt;" style="rounded=0;whiteSpace=wrap;html=1;strokeColor=none;fillColor=default;fontSize=9;" vertex="1" parent="1">
          <mxGeometry x="-650" y="-2790" width="120" height="20" as="geometry" />
        </mxCell>
      </root>
    </mxGraphModel>
  </diagram>
  <diagram id="3KswTn9q1tvx2d2qZEfb" name="ページ5">
    <mxGraphModel dx="2410" dy="3874" grid="1" gridSize="10" guides="1" tooltips="1" connect="1" arrows="1" fold="1" page="1" pageScale="1" pageWidth="827" pageHeight="1169" math="0" shadow="0">
      <root>
        <mxCell id="0" />
        <mxCell id="1" parent="0" />
        <mxCell id="a_BFMCWsll-u18ZBWjqX-1" value="&lt;font style=&quot;font-size: 20px;&quot;&gt;show.jsp&lt;/font&gt;" style="rounded=0;whiteSpace=wrap;html=1;" parent="1" vertex="1">
          <mxGeometry x="-800" y="-2750" width="120" height="60" as="geometry" />
        </mxCell>
        <mxCell id="a_BFMCWsll-u18ZBWjqX-2" value="" style="group;strokeColor=default;" parent="1" vertex="1" connectable="0">
          <mxGeometry x="-1010" y="-2670" width="580" height="88" as="geometry" />
        </mxCell>
        <mxCell id="a_BFMCWsll-u18ZBWjqX-3" value="&lt;font style=&quot;font-size: 14px;&quot;&gt;名前&lt;/font&gt;" style="rounded=0;whiteSpace=wrap;html=1;fontSize=16;strokeColor=none;" parent="a_BFMCWsll-u18ZBWjqX-2" vertex="1">
          <mxGeometry x="15.660250042242348" y="5.587301587301587" width="62.259682052530984" height="6.634920634920634" as="geometry" />
        </mxCell>
        <mxCell id="a_BFMCWsll-u18ZBWjqX-4" value="&lt;font style=&quot;font-size: 14px;&quot;&gt;年齢&lt;/font&gt;" style="rounded=0;whiteSpace=wrap;html=1;fontSize=16;strokeColor=none;" parent="a_BFMCWsll-u18ZBWjqX-2" vertex="1">
          <mxGeometry x="86.40268383842503" y="5.587301587301587" width="62.259682052530984" height="6.634920634920634" as="geometry" />
        </mxCell>
        <mxCell id="a_BFMCWsll-u18ZBWjqX-5" value="&lt;font style=&quot;font-size: 14px;&quot;&gt;好きな食べ物&lt;/font&gt;" style="rounded=0;whiteSpace=wrap;html=1;fontSize=16;strokeColor=none;" parent="a_BFMCWsll-u18ZBWjqX-2" vertex="1">
          <mxGeometry x="189.23472853865547" y="5.59" width="147.96442781227185" height="6.63" as="geometry" />
        </mxCell>
        <mxCell id="a_BFMCWsll-u18ZBWjqX-6" value="&lt;font style=&quot;font-size: 14px;&quot;&gt;性別&lt;/font&gt;" style="rounded=0;whiteSpace=wrap;html=1;fontSize=16;strokeColor=none;" parent="a_BFMCWsll-u18ZBWjqX-2" vertex="1">
          <mxGeometry x="144.4693320452293" y="5.587301587301587" width="62.259682052530984" height="6.634920634920634" as="geometry" />
        </mxCell>
        <mxCell id="a_BFMCWsll-u18ZBWjqX-7" value="&lt;font style=&quot;font-size: 14px;&quot;&gt;満足度&lt;/font&gt;" style="rounded=0;whiteSpace=wrap;html=1;fontSize=16;strokeColor=none;" parent="a_BFMCWsll-u18ZBWjqX-2" vertex="1">
          <mxGeometry x="325.04172585683006" y="5.59" width="66.88579484100495" height="6.63" as="geometry" />
        </mxCell>
        <mxCell id="a_BFMCWsll-u18ZBWjqX-9" value="&lt;font color=&quot;#0000cc&quot; style=&quot;font-size: 14px;&quot;&gt;回答画面に戻る&lt;/font&gt;" style="rounded=0;whiteSpace=wrap;html=1;fontSize=16;strokeColor=none;" parent="a_BFMCWsll-u18ZBWjqX-2" vertex="1">
          <mxGeometry x="10" y="70" width="149.23" height="7.68" as="geometry" />
        </mxCell>
        <mxCell id="a_BFMCWsll-u18ZBWjqX-8" value="&lt;font style=&quot;font-size: 14px;&quot;&gt;コメント&lt;/font&gt;" style="rounded=0;whiteSpace=wrap;html=1;fontSize=16;strokeColor=none;" parent="a_BFMCWsll-u18ZBWjqX-2" vertex="1">
          <mxGeometry x="391.92752069783506" y="5.59" width="78.82119921058026" height="6.63" as="geometry" />
        </mxCell>
        <mxCell id="a_BFMCWsll-u18ZBWjqX-10" value="" style="endArrow=none;html=1;rounded=0;fontSize=12;startSize=8;endSize=8;strokeColor=#0000FF;" parent="a_BFMCWsll-u18ZBWjqX-2" edge="1">
          <mxGeometry width="50" height="50" relative="1" as="geometry">
            <mxPoint x="32.84492916282724" y="80" as="sourcePoint" />
            <mxPoint x="130" y="80" as="targetPoint" />
            <Array as="points">
              <mxPoint x="120.22118263236575" y="80.1" />
            </Array>
          </mxGeometry>
        </mxCell>
        <mxCell id="ncYB65TdfWAMsd-72Ibr-10" value="&lt;font style=&quot;font-size: 14px;&quot;&gt;コマンド&lt;/font&gt;" style="rounded=0;whiteSpace=wrap;html=1;fontSize=16;strokeColor=none;" parent="a_BFMCWsll-u18ZBWjqX-2" vertex="1">
          <mxGeometry x="459.39528715937087" y="5.59" width="74.26963803539509" height="6.63" as="geometry" />
        </mxCell>
        <mxCell id="ncYB65TdfWAMsd-72Ibr-21" value="&lt;font style=&quot;font-size: 13px;&quot;&gt;MORIOKA&lt;/font&gt;" style="rounded=0;whiteSpace=wrap;html=1;fontSize=16;strokeColor=none;" parent="a_BFMCWsll-u18ZBWjqX-2" vertex="1">
          <mxGeometry x="15.656368169555925" y="29.997301587301536" width="62.259682052530984" height="6.634920634920634" as="geometry" />
        </mxCell>
        <mxCell id="ncYB65TdfWAMsd-72Ibr-22" value="&lt;font style=&quot;font-size: 13px;&quot;&gt;26&lt;/font&gt;" style="rounded=0;whiteSpace=wrap;html=1;fontSize=16;strokeColor=none;" parent="a_BFMCWsll-u18ZBWjqX-2" vertex="1">
          <mxGeometry x="90.58790292466222" y="29.997301587301536" width="53.87857100699797" height="6.634920634920634" as="geometry" />
        </mxCell>
        <mxCell id="ncYB65TdfWAMsd-72Ibr-23" value="&lt;font style=&quot;font-size: 13px;&quot;&gt;1&lt;/font&gt;" style="rounded=0;whiteSpace=wrap;html=1;fontSize=16;strokeColor=none;" parent="a_BFMCWsll-u18ZBWjqX-2" vertex="1">
          <mxGeometry x="148.65586597492722" y="29.997301587301536" width="53.87857100699797" height="6.634920634920634" as="geometry" />
        </mxCell>
        <mxCell id="ncYB65TdfWAMsd-72Ibr-24" value="&lt;font style=&quot;font-size: 13px;&quot;&gt;apple&lt;/font&gt;" style="rounded=0;whiteSpace=wrap;html=1;fontSize=16;strokeColor=none;" parent="a_BFMCWsll-u18ZBWjqX-2" vertex="1">
          <mxGeometry x="224.45360545029416" y="29.997301587301536" width="53.87857100699797" height="6.634920634920634" as="geometry" />
        </mxCell>
        <mxCell id="ncYB65TdfWAMsd-72Ibr-25" value="&lt;font style=&quot;font-size: 13px;&quot;&gt;1&lt;/font&gt;" style="rounded=0;whiteSpace=wrap;html=1;fontSize=16;strokeColor=none;" parent="a_BFMCWsll-u18ZBWjqX-2" vertex="1">
          <mxGeometry x="331.542172752977" y="29.997301587301536" width="53.87857100699797" height="6.634920634920634" as="geometry" />
        </mxCell>
        <mxCell id="ncYB65TdfWAMsd-72Ibr-26" value="&lt;font style=&quot;font-size: 13px;&quot;&gt;コメント&lt;/font&gt;" style="rounded=0;whiteSpace=wrap;html=1;fontSize=16;strokeColor=none;" parent="a_BFMCWsll-u18ZBWjqX-2" vertex="1">
          <mxGeometry x="395.8883849797737" y="30" width="70.91267352764264" height="6.63" as="geometry" />
        </mxCell>
        <mxCell id="ncYB65TdfWAMsd-72Ibr-27" value="&lt;font color=&quot;#0000cc&quot; style=&quot;font-size: 13px;&quot;&gt;削除&lt;/font&gt;" style="rounded=0;whiteSpace=wrap;html=1;fontSize=16;strokeColor=none;" parent="a_BFMCWsll-u18ZBWjqX-2" vertex="1">
          <mxGeometry x="466.8056879811839" y="29.997301587301536" width="53.87857100699797" height="6.634920634920634" as="geometry" />
        </mxCell>
        <mxCell id="ncYB65TdfWAMsd-72Ibr-28" value="&lt;span style=&quot;font-size: 12px;&quot;&gt;編集&lt;/span&gt;" style="rounded=0;whiteSpace=wrap;html=1;fontSize=16;strokeColor=none;" parent="a_BFMCWsll-u18ZBWjqX-2" vertex="1">
          <mxGeometry x="533.66" y="5.59" width="36.34" height="6.63" as="geometry" />
        </mxCell>
        <mxCell id="ncYB65TdfWAMsd-72Ibr-29" value="&lt;font color=&quot;#0000cc&quot; style=&quot;font-size: 13px;&quot;&gt;編集&lt;/font&gt;" style="rounded=0;whiteSpace=wrap;html=1;fontSize=16;strokeColor=none;" parent="a_BFMCWsll-u18ZBWjqX-2" vertex="1">
          <mxGeometry x="533.6635064118116" y="29.997301587301536" width="40.80819273663141" height="6.634920634920634" as="geometry" />
        </mxCell>
        <mxCell id="ncYB65TdfWAMsd-72Ibr-31" style="edgeStyle=orthogonalEdgeStyle;rounded=0;orthogonalLoop=1;jettySize=auto;html=1;exitX=0.5;exitY=0;exitDx=0;exitDy=0;entryX=0.5;entryY=0;entryDx=0;entryDy=0;" parent="1" target="ncYB65TdfWAMsd-72Ibr-30" edge="1">
          <mxGeometry relative="1" as="geometry">
            <mxPoint x="-740" y="-2580" as="sourcePoint" />
          </mxGeometry>
        </mxCell>
        <mxCell id="stvNaT_APv3C1QGeEGqv-2" style="edgeStyle=orthogonalEdgeStyle;rounded=0;orthogonalLoop=1;jettySize=auto;html=1;exitX=0.5;exitY=1;exitDx=0;exitDy=0;" parent="1" source="ncYB65TdfWAMsd-72Ibr-30" target="stvNaT_APv3C1QGeEGqv-1" edge="1">
          <mxGeometry relative="1" as="geometry">
            <Array as="points">
              <mxPoint x="-780" y="-2450" />
            </Array>
          </mxGeometry>
        </mxCell>
        <mxCell id="ema6SHbA3j11apGJr0g6-5" style="edgeStyle=orthogonalEdgeStyle;rounded=0;orthogonalLoop=1;jettySize=auto;html=1;exitX=0;exitY=0.5;exitDx=0;exitDy=0;entryX=1;entryY=0.5;entryDx=0;entryDy=0;" parent="1" source="ncYB65TdfWAMsd-72Ibr-30" target="ema6SHbA3j11apGJr0g6-4" edge="1">
          <mxGeometry relative="1" as="geometry" />
        </mxCell>
        <mxCell id="ncYB65TdfWAMsd-72Ibr-30" value="&lt;font style=&quot;font-size: 18px;&quot;&gt;ExecuteDel.java&lt;br&gt;&lt;/font&gt;" style="rounded=0;whiteSpace=wrap;html=1;" parent="1" vertex="1">
          <mxGeometry x="-815" y="-2510" width="150" height="60" as="geometry" />
        </mxCell>
        <mxCell id="stvNaT_APv3C1QGeEGqv-4" style="edgeStyle=orthogonalEdgeStyle;rounded=0;orthogonalLoop=1;jettySize=auto;html=1;exitX=0.25;exitY=1;exitDx=0;exitDy=0;entryX=0.25;entryY=0;entryDx=0;entryDy=0;" parent="1" source="stvNaT_APv3C1QGeEGqv-1" target="stvNaT_APv3C1QGeEGqv-3" edge="1">
          <mxGeometry relative="1" as="geometry" />
        </mxCell>
        <mxCell id="ema6SHbA3j11apGJr0g6-3" style="edgeStyle=orthogonalEdgeStyle;rounded=0;orthogonalLoop=1;jettySize=auto;html=1;exitX=0.75;exitY=0;exitDx=0;exitDy=0;entryX=0.696;entryY=1.039;entryDx=0;entryDy=0;entryPerimeter=0;" parent="1" source="stvNaT_APv3C1QGeEGqv-1" target="ncYB65TdfWAMsd-72Ibr-30" edge="1">
          <mxGeometry relative="1" as="geometry" />
        </mxCell>
        <mxCell id="stvNaT_APv3C1QGeEGqv-1" value="&lt;font style=&quot;font-size: 18px;&quot;&gt;DeleteBL.java&lt;/font&gt;" style="rounded=0;whiteSpace=wrap;html=1;" parent="1" vertex="1">
          <mxGeometry x="-800" y="-2380" width="120" height="60" as="geometry" />
        </mxCell>
        <mxCell id="5b-3YdlISV-GG8zAUW_K-6" style="edgeStyle=orthogonalEdgeStyle;rounded=0;orthogonalLoop=1;jettySize=auto;html=1;exitX=0.25;exitY=1;exitDx=0;exitDy=0;entryX=0.351;entryY=-0.005;entryDx=0;entryDy=0;entryPerimeter=0;" parent="1" source="stvNaT_APv3C1QGeEGqv-3" target="5b-3YdlISV-GG8zAUW_K-2" edge="1">
          <mxGeometry relative="1" as="geometry" />
        </mxCell>
        <mxCell id="QjA1vxZGLF585OAKWCsp-3" style="edgeStyle=orthogonalEdgeStyle;rounded=0;orthogonalLoop=1;jettySize=auto;html=1;exitX=0.75;exitY=0;exitDx=0;exitDy=0;entryX=0.75;entryY=1;entryDx=0;entryDy=0;" parent="1" source="stvNaT_APv3C1QGeEGqv-3" target="stvNaT_APv3C1QGeEGqv-1" edge="1">
          <mxGeometry relative="1" as="geometry" />
        </mxCell>
        <mxCell id="stvNaT_APv3C1QGeEGqv-3" value="&lt;font style=&quot;font-size: 18px;&quot;&gt;SaveyDao&lt;/font&gt;" style="rounded=0;whiteSpace=wrap;html=1;" parent="1" vertex="1">
          <mxGeometry x="-800" y="-2270" width="120" height="60" as="geometry" />
        </mxCell>
        <mxCell id="5b-3YdlISV-GG8zAUW_K-1" value="" style="group" parent="1" vertex="1" connectable="0">
          <mxGeometry x="-850" y="-2110" width="230" height="310" as="geometry" />
        </mxCell>
        <mxCell id="5b-3YdlISV-GG8zAUW_K-2" value="" style="shape=cylinder3;whiteSpace=wrap;html=1;boundedLbl=1;backgroundOutline=1;size=54.28571428571422;" parent="5b-3YdlISV-GG8zAUW_K-1" vertex="1">
          <mxGeometry width="230" height="310" as="geometry" />
        </mxCell>
        <mxCell id="5b-3YdlISV-GG8zAUW_K-3" value="&lt;font style=&quot;font-size: 18px;&quot;&gt;データベース&lt;/font&gt;" style="rounded=0;whiteSpace=wrap;html=1;" parent="5b-3YdlISV-GG8zAUW_K-1" vertex="1">
          <mxGeometry x="55" y="29" width="120" height="60" as="geometry" />
        </mxCell>
        <mxCell id="5b-3YdlISV-GG8zAUW_K-4" value="&lt;font style=&quot;font-size: 18px;&quot;&gt;ID&lt;br&gt;NAME&lt;br&gt;AGE&lt;br&gt;FOOD&lt;br&gt;SEX&lt;br&gt;SATISFACTION_LEVEL&lt;br&gt;MESSAGE&lt;br&gt;TIME&lt;br&gt;DEL&lt;br&gt;&lt;/font&gt;" style="rounded=0;whiteSpace=wrap;html=1;strokeColor=none;fillColor=none;" parent="5b-3YdlISV-GG8zAUW_K-1" vertex="1">
          <mxGeometry x="15" y="120" width="200" height="180" as="geometry" />
        </mxCell>
        <mxCell id="5b-3YdlISV-GG8zAUW_K-7" style="edgeStyle=orthogonalEdgeStyle;rounded=0;orthogonalLoop=1;jettySize=auto;html=1;exitX=0.608;exitY=-0.011;exitDx=0;exitDy=0;entryX=0.75;entryY=1;entryDx=0;entryDy=0;exitPerimeter=0;" parent="1" source="5b-3YdlISV-GG8zAUW_K-2" target="stvNaT_APv3C1QGeEGqv-3" edge="1">
          <mxGeometry relative="1" as="geometry" />
        </mxCell>
        <mxCell id="ema6SHbA3j11apGJr0g6-2" value="&lt;font style=&quot;font-size: 12px;&quot;&gt;Delete成功&lt;/font&gt;" style="rounded=0;whiteSpace=wrap;html=1;strokeColor=none;fillColor=default;fontSize=9;" parent="1" vertex="1">
          <mxGeometry x="-910" y="-2510" width="70" height="20" as="geometry" />
        </mxCell>
        <mxCell id="ema6SHbA3j11apGJr0g6-4" value="&lt;font style=&quot;font-size: 18px;&quot;&gt;finish&lt;/font&gt;" style="rounded=0;whiteSpace=wrap;html=1;" parent="1" vertex="1">
          <mxGeometry x="-1060" y="-2510" width="120" height="60" as="geometry" />
        </mxCell>
        <mxCell id="7h1JAT8seoSr4XogHIze-1" value="&lt;font style=&quot;font-size: 14px;&quot;&gt;Delete可否&lt;/font&gt;" style="rounded=0;whiteSpace=wrap;html=1;strokeColor=none;fillColor=default;fontSize=9;" parent="1" vertex="1">
          <mxGeometry x="-735" y="-2420" width="75" height="20" as="geometry" />
        </mxCell>
        <mxCell id="QjA1vxZGLF585OAKWCsp-1" value="&lt;font style=&quot;font-size: 14px;&quot;&gt;Delete可否&lt;/font&gt;" style="rounded=0;whiteSpace=wrap;html=1;strokeColor=none;fillColor=default;fontSize=9;" parent="1" vertex="1">
          <mxGeometry x="-740" y="-2300" width="75" height="20" as="geometry" />
        </mxCell>
        <mxCell id="h8OMLe9wgw3jRVudwAzy-1" value="&lt;font style=&quot;font-size: 18px;&quot;&gt;削除フラグを立てる&lt;/font&gt;" style="shape=callout;whiteSpace=wrap;html=1;perimeter=calloutPerimeter;" parent="1" vertex="1">
          <mxGeometry x="-675" y="-2181" width="120" height="80" as="geometry" />
        </mxCell>
        <mxCell id="RUp3_7hn4EOODD3up0xR-1" value="&lt;font style=&quot;font-size: 16px;&quot;&gt;ID&lt;/font&gt;" style="rounded=0;whiteSpace=wrap;html=1;strokeColor=none;fillColor=none;" parent="1" vertex="1">
          <mxGeometry x="-785" y="-2560" width="120" height="30" as="geometry" />
        </mxCell>
        <mxCell id="F3seUuE67GlONO3TNvI4-1" value="&lt;font style=&quot;font-size: 14px;&quot;&gt;doDelete&lt;/font&gt;" style="rounded=0;whiteSpace=wrap;html=1;strokeColor=none;fillColor=default;fontSize=9;" vertex="1" parent="1">
          <mxGeometry x="-815" y="-2181" width="75" height="20" as="geometry" />
        </mxCell>
      </root>
    </mxGraphModel>
  </diagram>
  <diagram id="XXBaQLYH8Sctiv_V1pl0" name="ページ6">
    <mxGraphModel dx="2543" dy="3939" grid="1" gridSize="10" guides="1" tooltips="1" connect="1" arrows="1" fold="1" page="1" pageScale="1" pageWidth="827" pageHeight="1169" math="0" shadow="0">
      <root>
        <mxCell id="0" />
        <mxCell id="1" parent="0" />
        <mxCell id="RrtTITyQDN1-pf9UqRJR-1" value="&lt;font style=&quot;font-size: 20px;&quot;&gt;show.jsp&lt;/font&gt;" style="rounded=0;whiteSpace=wrap;html=1;" parent="1" vertex="1">
          <mxGeometry x="-780" y="-2750" width="120" height="60" as="geometry" />
        </mxCell>
        <mxCell id="RrtTITyQDN1-pf9UqRJR-2" value="" style="group;strokeColor=default;" parent="1" vertex="1" connectable="0">
          <mxGeometry x="-1010" y="-2670" width="580" height="88" as="geometry" />
        </mxCell>
        <mxCell id="RrtTITyQDN1-pf9UqRJR-3" value="&lt;font style=&quot;font-size: 14px;&quot;&gt;名前&lt;/font&gt;" style="rounded=0;whiteSpace=wrap;html=1;fontSize=16;strokeColor=none;" parent="RrtTITyQDN1-pf9UqRJR-2" vertex="1">
          <mxGeometry x="15.660250042242348" y="5.587301587301587" width="62.259682052530984" height="6.634920634920634" as="geometry" />
        </mxCell>
        <mxCell id="RrtTITyQDN1-pf9UqRJR-4" value="&lt;font style=&quot;font-size: 14px;&quot;&gt;年齢&lt;/font&gt;" style="rounded=0;whiteSpace=wrap;html=1;fontSize=16;strokeColor=none;" parent="RrtTITyQDN1-pf9UqRJR-2" vertex="1">
          <mxGeometry x="86.40268383842503" y="5.587301587301587" width="62.259682052530984" height="6.634920634920634" as="geometry" />
        </mxCell>
        <mxCell id="RrtTITyQDN1-pf9UqRJR-5" value="&lt;font style=&quot;font-size: 14px;&quot;&gt;好きな食べ物&lt;/font&gt;" style="rounded=0;whiteSpace=wrap;html=1;fontSize=16;strokeColor=none;" parent="RrtTITyQDN1-pf9UqRJR-2" vertex="1">
          <mxGeometry x="189.23472853865547" y="5.59" width="147.96442781227185" height="6.63" as="geometry" />
        </mxCell>
        <mxCell id="RrtTITyQDN1-pf9UqRJR-6" value="&lt;font style=&quot;font-size: 14px;&quot;&gt;性別&lt;/font&gt;" style="rounded=0;whiteSpace=wrap;html=1;fontSize=16;strokeColor=none;" parent="RrtTITyQDN1-pf9UqRJR-2" vertex="1">
          <mxGeometry x="144.4693320452293" y="5.587301587301587" width="62.259682052530984" height="6.634920634920634" as="geometry" />
        </mxCell>
        <mxCell id="RrtTITyQDN1-pf9UqRJR-7" value="&lt;font style=&quot;font-size: 14px;&quot;&gt;満足度&lt;/font&gt;" style="rounded=0;whiteSpace=wrap;html=1;fontSize=16;strokeColor=none;" parent="RrtTITyQDN1-pf9UqRJR-2" vertex="1">
          <mxGeometry x="325.04172585683006" y="5.59" width="66.88579484100495" height="6.63" as="geometry" />
        </mxCell>
        <mxCell id="RrtTITyQDN1-pf9UqRJR-8" value="&lt;font color=&quot;#0000cc&quot; style=&quot;font-size: 14px;&quot;&gt;回答画面に戻る&lt;/font&gt;" style="rounded=0;whiteSpace=wrap;html=1;fontSize=16;strokeColor=none;" parent="RrtTITyQDN1-pf9UqRJR-2" vertex="1">
          <mxGeometry x="10" y="70" width="149.23" height="7.68" as="geometry" />
        </mxCell>
        <mxCell id="RrtTITyQDN1-pf9UqRJR-9" value="&lt;font style=&quot;font-size: 14px;&quot;&gt;コメント&lt;/font&gt;" style="rounded=0;whiteSpace=wrap;html=1;fontSize=16;strokeColor=none;" parent="RrtTITyQDN1-pf9UqRJR-2" vertex="1">
          <mxGeometry x="391.92752069783506" y="5.59" width="78.82119921058026" height="6.63" as="geometry" />
        </mxCell>
        <mxCell id="RrtTITyQDN1-pf9UqRJR-10" value="" style="endArrow=none;html=1;rounded=0;fontSize=12;startSize=8;endSize=8;strokeColor=#0000FF;" parent="RrtTITyQDN1-pf9UqRJR-2" edge="1">
          <mxGeometry width="50" height="50" relative="1" as="geometry">
            <mxPoint x="32.84492916282724" y="80" as="sourcePoint" />
            <mxPoint x="130" y="80" as="targetPoint" />
            <Array as="points">
              <mxPoint x="120.22118263236575" y="80.1" />
            </Array>
          </mxGeometry>
        </mxCell>
        <mxCell id="RrtTITyQDN1-pf9UqRJR-11" value="&lt;font style=&quot;font-size: 14px;&quot;&gt;コマンド&lt;/font&gt;" style="rounded=0;whiteSpace=wrap;html=1;fontSize=16;strokeColor=none;" parent="RrtTITyQDN1-pf9UqRJR-2" vertex="1">
          <mxGeometry x="459.39528715937087" y="5.59" width="74.26963803539509" height="6.63" as="geometry" />
        </mxCell>
        <mxCell id="RrtTITyQDN1-pf9UqRJR-12" value="&lt;font style=&quot;font-size: 13px;&quot;&gt;MORIOKA&lt;/font&gt;" style="rounded=0;whiteSpace=wrap;html=1;fontSize=16;strokeColor=none;" parent="RrtTITyQDN1-pf9UqRJR-2" vertex="1">
          <mxGeometry x="15.656368169555925" y="29.997301587301536" width="62.259682052530984" height="6.634920634920634" as="geometry" />
        </mxCell>
        <mxCell id="RrtTITyQDN1-pf9UqRJR-13" value="&lt;font style=&quot;font-size: 13px;&quot;&gt;26&lt;/font&gt;" style="rounded=0;whiteSpace=wrap;html=1;fontSize=16;strokeColor=none;" parent="RrtTITyQDN1-pf9UqRJR-2" vertex="1">
          <mxGeometry x="90.58790292466222" y="29.997301587301536" width="53.87857100699797" height="6.634920634920634" as="geometry" />
        </mxCell>
        <mxCell id="RrtTITyQDN1-pf9UqRJR-14" value="&lt;font style=&quot;font-size: 13px;&quot;&gt;1&lt;/font&gt;" style="rounded=0;whiteSpace=wrap;html=1;fontSize=16;strokeColor=none;" parent="RrtTITyQDN1-pf9UqRJR-2" vertex="1">
          <mxGeometry x="148.65586597492722" y="29.997301587301536" width="53.87857100699797" height="6.634920634920634" as="geometry" />
        </mxCell>
        <mxCell id="RrtTITyQDN1-pf9UqRJR-15" value="&lt;font style=&quot;font-size: 13px;&quot;&gt;apple&lt;/font&gt;" style="rounded=0;whiteSpace=wrap;html=1;fontSize=16;strokeColor=none;" parent="RrtTITyQDN1-pf9UqRJR-2" vertex="1">
          <mxGeometry x="224.45360545029416" y="29.997301587301536" width="53.87857100699797" height="6.634920634920634" as="geometry" />
        </mxCell>
        <mxCell id="RrtTITyQDN1-pf9UqRJR-16" value="&lt;font style=&quot;font-size: 13px;&quot;&gt;1&lt;/font&gt;" style="rounded=0;whiteSpace=wrap;html=1;fontSize=16;strokeColor=none;" parent="RrtTITyQDN1-pf9UqRJR-2" vertex="1">
          <mxGeometry x="331.542172752977" y="29.997301587301536" width="53.87857100699797" height="6.634920634920634" as="geometry" />
        </mxCell>
        <mxCell id="RrtTITyQDN1-pf9UqRJR-17" value="&lt;font style=&quot;font-size: 13px;&quot;&gt;コメント&lt;/font&gt;" style="rounded=0;whiteSpace=wrap;html=1;fontSize=16;strokeColor=none;" parent="RrtTITyQDN1-pf9UqRJR-2" vertex="1">
          <mxGeometry x="395.8883849797737" y="30" width="70.91267352764264" height="6.63" as="geometry" />
        </mxCell>
        <mxCell id="RrtTITyQDN1-pf9UqRJR-18" value="&lt;font color=&quot;#0000cc&quot; style=&quot;font-size: 13px;&quot;&gt;削除&lt;/font&gt;" style="rounded=0;whiteSpace=wrap;html=1;fontSize=16;strokeColor=none;" parent="RrtTITyQDN1-pf9UqRJR-2" vertex="1">
          <mxGeometry x="466.8056879811839" y="29.997301587301536" width="53.87857100699797" height="6.634920634920634" as="geometry" />
        </mxCell>
        <mxCell id="RrtTITyQDN1-pf9UqRJR-19" value="&lt;span style=&quot;font-size: 12px;&quot;&gt;編集&lt;/span&gt;" style="rounded=0;whiteSpace=wrap;html=1;fontSize=16;strokeColor=none;" parent="RrtTITyQDN1-pf9UqRJR-2" vertex="1">
          <mxGeometry x="533.66" y="5.59" width="36.34" height="6.63" as="geometry" />
        </mxCell>
        <mxCell id="RrtTITyQDN1-pf9UqRJR-20" value="&lt;font color=&quot;#0000cc&quot; style=&quot;font-size: 13px;&quot;&gt;編集&lt;/font&gt;" style="rounded=0;whiteSpace=wrap;html=1;fontSize=16;strokeColor=none;" parent="RrtTITyQDN1-pf9UqRJR-2" vertex="1">
          <mxGeometry x="533.6635064118116" y="29.997301587301536" width="40.80819273663141" height="6.634920634920634" as="geometry" />
        </mxCell>
        <mxCell id="LLtfAYLdqdwl37-n0D_k-46" style="edgeStyle=orthogonalEdgeStyle;rounded=0;orthogonalLoop=1;jettySize=auto;html=1;exitX=0;exitY=0.5;exitDx=0;exitDy=0;entryX=1;entryY=0.5;entryDx=0;entryDy=0;" parent="1" edge="1">
          <mxGeometry relative="1" as="geometry">
            <mxPoint x="-790" y="-2487" as="sourcePoint" />
            <mxPoint x="-890" y="-2487" as="targetPoint" />
          </mxGeometry>
        </mxCell>
        <mxCell id="TEQivMVPD7Cf3Oj4kVCY-8" style="edgeStyle=orthogonalEdgeStyle;rounded=0;orthogonalLoop=1;jettySize=auto;html=1;exitX=1;exitY=0.75;exitDx=0;exitDy=0;entryX=0.353;entryY=-0.007;entryDx=0;entryDy=0;entryPerimeter=0;" parent="1" edge="1">
          <mxGeometry relative="1" as="geometry">
            <mxPoint x="-650" y="-2452.4" as="sourcePoint" />
            <mxPoint x="-440.6399999999999" y="-2327.61" as="targetPoint" />
          </mxGeometry>
        </mxCell>
        <mxCell id="TEQivMVPD7Cf3Oj4kVCY-21" style="edgeStyle=orthogonalEdgeStyle;rounded=0;orthogonalLoop=1;jettySize=auto;html=1;exitX=0.75;exitY=0;exitDx=0;exitDy=0;" parent="1" source="RrtTITyQDN1-pf9UqRJR-21" edge="1">
          <mxGeometry relative="1" as="geometry">
            <mxPoint x="-510" y="-2520" as="targetPoint" />
            <Array as="points">
              <mxPoint x="-670" y="-2520" />
            </Array>
          </mxGeometry>
        </mxCell>
        <mxCell id="RrtTITyQDN1-pf9UqRJR-21" value="&lt;font style=&quot;font-size: 18px;&quot;&gt;ExecuteEdit.java&lt;/font&gt;" style="rounded=0;whiteSpace=wrap;html=1;" parent="1" vertex="1">
          <mxGeometry x="-800" y="-2500" width="160" height="60" as="geometry" />
        </mxCell>
        <mxCell id="TEQivMVPD7Cf3Oj4kVCY-9" style="edgeStyle=orthogonalEdgeStyle;rounded=0;orthogonalLoop=1;jettySize=auto;html=1;exitX=0.642;exitY=0.002;exitDx=0;exitDy=0;entryX=1;entryY=0.25;entryDx=0;entryDy=0;exitPerimeter=0;" parent="1" source="lTINB1845pGQoYHK6mTI-1" target="RrtTITyQDN1-pf9UqRJR-21" edge="1">
          <mxGeometry relative="1" as="geometry">
            <Array as="points">
              <mxPoint x="-380" y="-2330" />
              <mxPoint x="-380" y="-2485" />
            </Array>
          </mxGeometry>
        </mxCell>
        <mxCell id="jpwS00CIzzgCjX7kdo7w-1" style="edgeStyle=orthogonalEdgeStyle;rounded=0;orthogonalLoop=1;jettySize=auto;html=1;exitX=0.25;exitY=1;exitDx=0;exitDy=0;entryX=0.25;entryY=0;entryDx=0;entryDy=0;" edge="1" parent="1" source="lTINB1845pGQoYHK6mTI-1" target="BrIzgmlE_BFpYSNsURJq-2">
          <mxGeometry relative="1" as="geometry" />
        </mxCell>
        <mxCell id="lTINB1845pGQoYHK6mTI-1" value="&lt;font style=&quot;font-size: 18px;&quot;&gt;SelectOneBL&lt;/font&gt;" style="rounded=0;whiteSpace=wrap;html=1;" parent="1" vertex="1">
          <mxGeometry x="-473" y="-2330" width="120" height="30" as="geometry" />
        </mxCell>
        <mxCell id="ui0BFbvR3cIO9S2I-KdZ-14" style="edgeStyle=orthogonalEdgeStyle;rounded=0;orthogonalLoop=1;jettySize=auto;html=1;exitX=0.25;exitY=1;exitDx=0;exitDy=0;entryX=1;entryY=0;entryDx=0;entryDy=104.64285714285711;entryPerimeter=0;" parent="1" source="BrIzgmlE_BFpYSNsURJq-2" target="BrIzgmlE_BFpYSNsURJq-4" edge="1">
          <mxGeometry relative="1" as="geometry" />
        </mxCell>
        <mxCell id="jpwS00CIzzgCjX7kdo7w-2" style="edgeStyle=orthogonalEdgeStyle;rounded=0;orthogonalLoop=1;jettySize=auto;html=1;exitX=0.75;exitY=0;exitDx=0;exitDy=0;entryX=0.75;entryY=1;entryDx=0;entryDy=0;" edge="1" parent="1" source="BrIzgmlE_BFpYSNsURJq-2" target="lTINB1845pGQoYHK6mTI-1">
          <mxGeometry relative="1" as="geometry" />
        </mxCell>
        <mxCell id="BrIzgmlE_BFpYSNsURJq-2" value="&lt;font style=&quot;font-size: 18px;&quot;&gt;SaveyDao&lt;/font&gt;" style="rounded=0;whiteSpace=wrap;html=1;" parent="1" vertex="1">
          <mxGeometry x="-473" y="-2210" width="120" height="60" as="geometry" />
        </mxCell>
        <mxCell id="BrIzgmlE_BFpYSNsURJq-3" value="" style="group" parent="1" vertex="1" connectable="0">
          <mxGeometry x="-850" y="-2180" width="230" height="310" as="geometry" />
        </mxCell>
        <mxCell id="BrIzgmlE_BFpYSNsURJq-4" value="" style="shape=cylinder3;whiteSpace=wrap;html=1;boundedLbl=1;backgroundOutline=1;size=54.28571428571422;" parent="BrIzgmlE_BFpYSNsURJq-3" vertex="1">
          <mxGeometry width="230" height="310" as="geometry" />
        </mxCell>
        <mxCell id="BrIzgmlE_BFpYSNsURJq-5" value="&lt;font style=&quot;font-size: 18px;&quot;&gt;データベース&lt;/font&gt;" style="rounded=0;whiteSpace=wrap;html=1;" parent="BrIzgmlE_BFpYSNsURJq-3" vertex="1">
          <mxGeometry x="55" y="29" width="120" height="60" as="geometry" />
        </mxCell>
        <mxCell id="BrIzgmlE_BFpYSNsURJq-6" value="&lt;font style=&quot;font-size: 18px;&quot;&gt;ID&lt;br&gt;NAME&lt;br&gt;AGE&lt;br&gt;FOOD&lt;br&gt;SEX&lt;br&gt;SATISFACTION_LEVEL&lt;br&gt;MESSAGE&lt;br&gt;TIME&lt;/font&gt;" style="rounded=0;whiteSpace=wrap;html=1;strokeColor=none;" parent="BrIzgmlE_BFpYSNsURJq-3" vertex="1">
          <mxGeometry x="15" y="110" width="200" height="170" as="geometry" />
        </mxCell>
        <mxCell id="LLtfAYLdqdwl37-n0D_k-44" value="押された行のIDを取得" style="shape=callout;whiteSpace=wrap;html=1;perimeter=calloutPerimeter;size=40;position=0.62;base=16;position2=0.25;direction=west;fontSize=13;" parent="1" vertex="1">
          <mxGeometry x="-590" y="-2620" width="160" height="80" as="geometry" />
        </mxCell>
        <mxCell id="ui0BFbvR3cIO9S2I-KdZ-2" style="edgeStyle=orthogonalEdgeStyle;rounded=0;orthogonalLoop=1;jettySize=auto;html=1;exitX=0.25;exitY=1;exitDx=0;exitDy=0;entryX=0.25;entryY=0;entryDx=0;entryDy=0;" parent="1" source="LLtfAYLdqdwl37-n0D_k-45" target="ui0BFbvR3cIO9S2I-KdZ-1" edge="1">
          <mxGeometry relative="1" as="geometry" />
        </mxCell>
        <mxCell id="TEQivMVPD7Cf3Oj4kVCY-2" style="edgeStyle=orthogonalEdgeStyle;rounded=0;orthogonalLoop=1;jettySize=auto;html=1;exitX=1;exitY=0.75;exitDx=0;exitDy=0;entryX=0;entryY=0.75;entryDx=0;entryDy=0;" parent="1" source="LLtfAYLdqdwl37-n0D_k-45" target="RrtTITyQDN1-pf9UqRJR-21" edge="1">
          <mxGeometry relative="1" as="geometry" />
        </mxCell>
        <mxCell id="LLtfAYLdqdwl37-n0D_k-45" value="&lt;font style=&quot;font-size: 18px;&quot;&gt;UpdateBL&lt;/font&gt;" style="rounded=0;whiteSpace=wrap;html=1;" parent="1" vertex="1">
          <mxGeometry x="-1010" y="-2500" width="120" height="60" as="geometry" />
        </mxCell>
        <mxCell id="LLtfAYLdqdwl37-n0D_k-49" value="&lt;font style=&quot;font-size: 18px;&quot;&gt;取得したIDの情報&lt;/font&gt;" style="shape=callout;whiteSpace=wrap;html=1;perimeter=calloutPerimeter;position2=0;" parent="1" vertex="1">
          <mxGeometry x="-380" y="-2100" width="120" height="80" as="geometry" />
        </mxCell>
        <mxCell id="ui0BFbvR3cIO9S2I-KdZ-3" style="edgeStyle=orthogonalEdgeStyle;rounded=0;orthogonalLoop=1;jettySize=auto;html=1;exitX=0.75;exitY=0;exitDx=0;exitDy=0;entryX=0.75;entryY=1;entryDx=0;entryDy=0;" parent="1" source="ui0BFbvR3cIO9S2I-KdZ-1" target="LLtfAYLdqdwl37-n0D_k-45" edge="1">
          <mxGeometry relative="1" as="geometry" />
        </mxCell>
        <mxCell id="ui0BFbvR3cIO9S2I-KdZ-4" style="edgeStyle=orthogonalEdgeStyle;rounded=0;orthogonalLoop=1;jettySize=auto;html=1;exitX=0.25;exitY=1;exitDx=0;exitDy=0;" parent="1" source="ui0BFbvR3cIO9S2I-KdZ-1" edge="1">
          <mxGeometry relative="1" as="geometry">
            <mxPoint x="-980.0769230769231" y="-2319.3846153846152" as="targetPoint" />
          </mxGeometry>
        </mxCell>
        <mxCell id="ui0BFbvR3cIO9S2I-KdZ-7" style="edgeStyle=orthogonalEdgeStyle;rounded=0;orthogonalLoop=1;jettySize=auto;html=1;exitX=0.25;exitY=1;exitDx=0;exitDy=0;entryX=0;entryY=0.5;entryDx=0;entryDy=0;entryPerimeter=0;" parent="1" source="ui0BFbvR3cIO9S2I-KdZ-1" target="BrIzgmlE_BFpYSNsURJq-4" edge="1">
          <mxGeometry relative="1" as="geometry" />
        </mxCell>
        <mxCell id="ui0BFbvR3cIO9S2I-KdZ-1" value="&lt;font style=&quot;font-size: 18px;&quot;&gt;SaveyDao&lt;/font&gt;" style="rounded=0;whiteSpace=wrap;html=1;" parent="1" vertex="1">
          <mxGeometry x="-1010" y="-2380" width="120" height="60" as="geometry" />
        </mxCell>
        <mxCell id="ui0BFbvR3cIO9S2I-KdZ-6" style="edgeStyle=orthogonalEdgeStyle;rounded=0;orthogonalLoop=1;jettySize=auto;html=1;exitX=0;exitY=0;exitDx=0;exitDy=104.64285714285711;entryX=0.75;entryY=1;entryDx=0;entryDy=0;exitPerimeter=0;" parent="1" source="BrIzgmlE_BFpYSNsURJq-4" target="ui0BFbvR3cIO9S2I-KdZ-1" edge="1">
          <mxGeometry relative="1" as="geometry" />
        </mxCell>
        <mxCell id="ui0BFbvR3cIO9S2I-KdZ-15" style="edgeStyle=orthogonalEdgeStyle;rounded=0;orthogonalLoop=1;jettySize=auto;html=1;exitX=1.019;exitY=0.532;exitDx=0;exitDy=0;entryX=0.75;entryY=1;entryDx=0;entryDy=0;exitPerimeter=0;" parent="1" source="BrIzgmlE_BFpYSNsURJq-4" target="BrIzgmlE_BFpYSNsURJq-2" edge="1">
          <mxGeometry relative="1" as="geometry" />
        </mxCell>
        <mxCell id="ui0BFbvR3cIO9S2I-KdZ-16" value="&lt;font style=&quot;font-size: 18px;&quot;&gt;finish&lt;/font&gt;" style="rounded=0;whiteSpace=wrap;html=1;" parent="1" vertex="1">
          <mxGeometry x="-510" y="-2530" width="120" height="25" as="geometry" />
        </mxCell>
        <mxCell id="TEQivMVPD7Cf3Oj4kVCY-1" value="&lt;font style=&quot;font-size: 18px;&quot;&gt;更新成功&lt;/font&gt;" style="whiteSpace=wrap;html=1;strokeColor=none;" parent="1" vertex="1">
          <mxGeometry x="-610" y="-2530" width="80" height="30" as="geometry" />
        </mxCell>
        <mxCell id="TEQivMVPD7Cf3Oj4kVCY-3" value="&lt;font style=&quot;font-size: 15px;&quot;&gt;更新データ&lt;/font&gt;" style="rounded=0;whiteSpace=wrap;html=1;fillColor=none;strokeColor=none;rotation=0;" parent="1" vertex="1">
          <mxGeometry x="-890" y="-2523" width="100" height="37" as="geometry" />
        </mxCell>
        <mxCell id="6TZdmncMIVMM5s20Yw1V-9" style="edgeStyle=orthogonalEdgeStyle;rounded=0;orthogonalLoop=1;jettySize=auto;html=1;exitX=0.25;exitY=0;exitDx=0;exitDy=0;entryX=0.25;entryY=1;entryDx=0;entryDy=0;" edge="1" parent="1" source="TEQivMVPD7Cf3Oj4kVCY-11" target="RrtTITyQDN1-pf9UqRJR-21">
          <mxGeometry relative="1" as="geometry" />
        </mxCell>
        <mxCell id="konvPZNgZx-UvpGPpY_i-4" style="edgeStyle=orthogonalEdgeStyle;rounded=0;orthogonalLoop=1;jettySize=auto;html=1;exitX=0.621;exitY=1.049;exitDx=0;exitDy=0;entryX=0.75;entryY=0;entryDx=0;entryDy=0;exitPerimeter=0;" edge="1" parent="1" source="RrtTITyQDN1-pf9UqRJR-21" target="TEQivMVPD7Cf3Oj4kVCY-11">
          <mxGeometry relative="1" as="geometry" />
        </mxCell>
        <mxCell id="TEQivMVPD7Cf3Oj4kVCY-11" value="edit.jsp" style="rounded=1;whiteSpace=wrap;html=1;fontSize=18;" parent="1" vertex="1">
          <mxGeometry x="-790" y="-2290" width="120" height="60" as="geometry" />
        </mxCell>
        <mxCell id="TEQivMVPD7Cf3Oj4kVCY-19" value="" style="endArrow=classic;html=1;rounded=0;entryX=0.344;entryY=0;entryDx=0;entryDy=0;entryPerimeter=0;" parent="1" edge="1">
          <mxGeometry width="50" height="50" relative="1" as="geometry">
            <mxPoint x="-720" y="-2580" as="sourcePoint" />
            <mxPoint x="-720.0600000000001" y="-2500" as="targetPoint" />
            <Array as="points">
              <mxPoint x="-720.1" y="-2520" />
              <mxPoint x="-720.1" y="-2510" />
            </Array>
          </mxGeometry>
        </mxCell>
        <mxCell id="TEQivMVPD7Cf3Oj4kVCY-16" value="&lt;span style=&quot;font-size: 15px;&quot;&gt;GET&lt;/span&gt;" style="rounded=0;whiteSpace=wrap;html=1;fillColor=default;strokeColor=none;rotation=0;" parent="1" vertex="1">
          <mxGeometry x="-770" y="-2560" width="100" height="37" as="geometry" />
        </mxCell>
        <mxCell id="dH_75UAjiUwrx_MZo2Rz-1" value="&lt;font style=&quot;font-size: 16px;&quot;&gt;doUpdate&lt;/font&gt;" style="rounded=0;whiteSpace=wrap;html=1;strokeColor=none;fillColor=none;" parent="1" vertex="1">
          <mxGeometry x="-1080" y="-2120" width="120" height="60" as="geometry" />
        </mxCell>
        <mxCell id="dH_75UAjiUwrx_MZo2Rz-2" value="&lt;font style=&quot;font-size: 18px;&quot;&gt;1&lt;/font&gt;" style="ellipse;whiteSpace=wrap;html=1;aspect=fixed;" parent="1" vertex="1">
          <mxGeometry x="-580" y="-2480" width="20" height="20" as="geometry" />
        </mxCell>
        <mxCell id="dH_75UAjiUwrx_MZo2Rz-4" value="&lt;font style=&quot;font-size: 18px;&quot;&gt;3&lt;/font&gt;" style="ellipse;whiteSpace=wrap;html=1;aspect=fixed;" parent="1" vertex="1">
          <mxGeometry x="-850" y="-2480" width="20" height="20" as="geometry" />
        </mxCell>
        <mxCell id="dH_75UAjiUwrx_MZo2Rz-6" value="&lt;font style=&quot;font-size: 18px;&quot;&gt;4&lt;/font&gt;" style="ellipse;whiteSpace=wrap;html=1;aspect=fixed;" parent="1" vertex="1">
          <mxGeometry x="-650" y="-2543" width="20" height="20" as="geometry" />
        </mxCell>
        <mxCell id="6TZdmncMIVMM5s20Yw1V-1" value="&lt;font style=&quot;font-size: 14px;&quot;&gt;doSelectOne&lt;/font&gt;" style="rounded=0;whiteSpace=wrap;html=1;strokeColor=none;" vertex="1" parent="1">
          <mxGeometry x="-600" y="-2120" width="120" height="20" as="geometry" />
        </mxCell>
        <mxCell id="6TZdmncMIVMM5s20Yw1V-2" value="リクエストスコープ" style="ellipse;whiteSpace=wrap;html=1;" vertex="1" parent="1">
          <mxGeometry x="-593" y="-2406" width="120" height="80" as="geometry" />
        </mxCell>
        <mxCell id="TEQivMVPD7Cf3Oj4kVCY-15" value="&lt;span style=&quot;font-size: 15px;&quot;&gt;POST&lt;/span&gt;" style="rounded=0;whiteSpace=wrap;html=1;fillColor=default;strokeColor=none;rotation=0;" parent="1" vertex="1">
          <mxGeometry x="-820" y="-2417" width="65" height="37" as="geometry" />
        </mxCell>
        <mxCell id="dH_75UAjiUwrx_MZo2Rz-5" value="&lt;font style=&quot;font-size: 18px;&quot;&gt;2&lt;/font&gt;" style="ellipse;whiteSpace=wrap;html=1;aspect=fixed;" parent="1" vertex="1">
          <mxGeometry x="-740" y="-2360" width="20" height="20" as="geometry" />
        </mxCell>
        <mxCell id="konvPZNgZx-UvpGPpY_i-2" value="" style="curved=1;endArrow=classic;html=1;rounded=0;entryX=0.75;entryY=1;entryDx=0;entryDy=0;exitX=1.014;exitY=0.876;exitDx=0;exitDy=0;exitPerimeter=0;" edge="1" parent="1" source="RrtTITyQDN1-pf9UqRJR-21">
          <mxGeometry width="50" height="50" relative="1" as="geometry">
            <mxPoint x="-620" y="-2455" as="sourcePoint" />
            <mxPoint x="-660" y="-2440" as="targetPoint" />
            <Array as="points">
              <mxPoint x="-590" y="-2425" />
              <mxPoint x="-580" y="-2380" />
              <mxPoint x="-630" y="-2400" />
            </Array>
          </mxGeometry>
        </mxCell>
        <mxCell id="TEQivMVPD7Cf3Oj4kVCY-13" value="&lt;span style=&quot;font-size: 15px;&quot;&gt;フォワード&lt;/span&gt;" style="rounded=0;whiteSpace=wrap;html=1;fillColor=default;strokeColor=none;rotation=0;" parent="1" vertex="1">
          <mxGeometry x="-750" y="-2417" width="100" height="37" as="geometry" />
        </mxCell>
        <mxCell id="konvPZNgZx-UvpGPpY_i-5" value="" style="curved=1;endArrow=classic;html=1;rounded=0;exitX=0.831;exitY=0.008;exitDx=0;exitDy=0;exitPerimeter=0;entryX=1;entryY=0.25;entryDx=0;entryDy=0;" edge="1" parent="1" source="TEQivMVPD7Cf3Oj4kVCY-11" target="TEQivMVPD7Cf3Oj4kVCY-11">
          <mxGeometry width="50" height="50" relative="1" as="geometry">
            <mxPoint x="-670" y="-2290" as="sourcePoint" />
            <mxPoint x="-520" y="-2260" as="targetPoint" />
            <Array as="points">
              <mxPoint x="-640" y="-2340" />
              <mxPoint x="-600" y="-2360" />
              <mxPoint x="-590" y="-2350" />
              <mxPoint x="-590" y="-2320" />
            </Array>
          </mxGeometry>
        </mxCell>
        <mxCell id="konvPZNgZx-UvpGPpY_i-6" value="&lt;font style=&quot;font-size: 12px;&quot;&gt;ID情報保存&lt;/font&gt;" style="rounded=0;whiteSpace=wrap;html=1;fillColor=default;strokeColor=none;rotation=0;" vertex="1" parent="1">
          <mxGeometry x="-640" y="-2440" width="70" height="10" as="geometry" />
        </mxCell>
        <mxCell id="konvPZNgZx-UvpGPpY_i-8" value="&lt;font style=&quot;font-size: 12px;&quot;&gt;ID情報取得&lt;/font&gt;" style="rounded=0;whiteSpace=wrap;html=1;fillColor=default;strokeColor=none;rotation=0;" vertex="1" parent="1">
          <mxGeometry x="-690" y="-2348" width="70" height="10" as="geometry" />
        </mxCell>
      </root>
    </mxGraphModel>
  </diagram>
  <diagram id="xgv9KIU2qlWNzCu-kecz" name="ページ7">
    <mxGraphModel dx="1375" dy="667" grid="1" gridSize="10" guides="1" tooltips="1" connect="1" arrows="1" fold="1" page="1" pageScale="1" pageWidth="827" pageHeight="1169" math="0" shadow="0">
      <root>
        <mxCell id="0" />
        <mxCell id="1" parent="0" />
        <mxCell id="LrAZnTlzf4Zo_CJ2uYji-120" value="" style="group" parent="1" vertex="1" connectable="0">
          <mxGeometry x="130" y="210" width="840" height="780" as="geometry" />
        </mxCell>
        <mxCell id="LrAZnTlzf4Zo_CJ2uYji-1" value="プロジェクト名" style="rounded=0;whiteSpace=wrap;html=1;" parent="LrAZnTlzf4Zo_CJ2uYji-120" vertex="1">
          <mxGeometry x="310" y="60" width="120" height="60" as="geometry" />
        </mxCell>
        <mxCell id="LrAZnTlzf4Zo_CJ2uYji-2" value="作成日" style="rounded=0;whiteSpace=wrap;html=1;" parent="LrAZnTlzf4Zo_CJ2uYji-120" vertex="1">
          <mxGeometry x="310" width="120" height="60" as="geometry" />
        </mxCell>
        <mxCell id="LrAZnTlzf4Zo_CJ2uYji-7" value="" style="group" parent="LrAZnTlzf4Zo_CJ2uYji-120" vertex="1" connectable="0">
          <mxGeometry width="270" height="120" as="geometry" />
        </mxCell>
        <mxCell id="LrAZnTlzf4Zo_CJ2uYji-3" value="nekoAn" style="rounded=0;whiteSpace=wrap;html=1;" parent="LrAZnTlzf4Zo_CJ2uYji-7" vertex="1">
          <mxGeometry x="120" y="60" width="150" height="60" as="geometry" />
        </mxCell>
        <mxCell id="LrAZnTlzf4Zo_CJ2uYji-4" value="物理テーブル" style="rounded=0;whiteSpace=wrap;html=1;" parent="LrAZnTlzf4Zo_CJ2uYji-7" vertex="1">
          <mxGeometry y="60" width="120" height="60" as="geometry" />
        </mxCell>
        <mxCell id="LrAZnTlzf4Zo_CJ2uYji-5" value="ねこ暮らし改善アンケート" style="rounded=0;whiteSpace=wrap;html=1;" parent="LrAZnTlzf4Zo_CJ2uYji-7" vertex="1">
          <mxGeometry x="120" width="150" height="60" as="geometry" />
        </mxCell>
        <mxCell id="LrAZnTlzf4Zo_CJ2uYji-6" value="論理テーブル名" style="rounded=0;whiteSpace=wrap;html=1;" parent="LrAZnTlzf4Zo_CJ2uYji-7" vertex="1">
          <mxGeometry width="120" height="60" as="geometry" />
        </mxCell>
        <mxCell id="LrAZnTlzf4Zo_CJ2uYji-8" value="2023-07-28" style="rounded=0;whiteSpace=wrap;html=1;" parent="LrAZnTlzf4Zo_CJ2uYji-120" vertex="1">
          <mxGeometry x="430" width="150" height="60" as="geometry" />
        </mxCell>
        <mxCell id="LrAZnTlzf4Zo_CJ2uYji-9" value="ねこ暮らし改善アンケート" style="rounded=0;whiteSpace=wrap;html=1;" parent="LrAZnTlzf4Zo_CJ2uYji-120" vertex="1">
          <mxGeometry x="430" y="60" width="150" height="60" as="geometry" />
        </mxCell>
        <mxCell id="LrAZnTlzf4Zo_CJ2uYji-119" value="" style="whiteSpace=wrap;html=1;container=0;" parent="LrAZnTlzf4Zo_CJ2uYji-120" vertex="1">
          <mxGeometry x="480" y="480" width="120" height="60" as="geometry" />
        </mxCell>
        <mxCell id="LrAZnTlzf4Zo_CJ2uYji-13" value="論理名" style="rounded=0;whiteSpace=wrap;html=1;container=0;" parent="LrAZnTlzf4Zo_CJ2uYji-120" vertex="1">
          <mxGeometry x="120" y="180" width="120" height="60" as="geometry" />
        </mxCell>
        <mxCell id="LrAZnTlzf4Zo_CJ2uYji-23" value="" style="rounded=0;whiteSpace=wrap;html=1;container=0;" parent="LrAZnTlzf4Zo_CJ2uYji-120" vertex="1">
          <mxGeometry x="120" y="240" width="120" height="60" as="geometry" />
        </mxCell>
        <mxCell id="LrAZnTlzf4Zo_CJ2uYji-24" value="" style="rounded=0;whiteSpace=wrap;html=1;container=0;" parent="LrAZnTlzf4Zo_CJ2uYji-120" vertex="1">
          <mxGeometry x="120" y="420" width="120" height="60" as="geometry" />
        </mxCell>
        <mxCell id="LrAZnTlzf4Zo_CJ2uYji-25" value="" style="rounded=0;whiteSpace=wrap;html=1;container=0;" parent="LrAZnTlzf4Zo_CJ2uYji-120" vertex="1">
          <mxGeometry x="120" y="360" width="120" height="60" as="geometry" />
        </mxCell>
        <mxCell id="LrAZnTlzf4Zo_CJ2uYji-26" value="" style="rounded=0;whiteSpace=wrap;html=1;container=0;" parent="LrAZnTlzf4Zo_CJ2uYji-120" vertex="1">
          <mxGeometry x="120" y="300" width="120" height="60" as="geometry" />
        </mxCell>
        <mxCell id="LrAZnTlzf4Zo_CJ2uYji-27" value="" style="rounded=0;whiteSpace=wrap;html=1;container=0;" parent="LrAZnTlzf4Zo_CJ2uYji-120" vertex="1">
          <mxGeometry x="120" y="600" width="120" height="60" as="geometry" />
        </mxCell>
        <mxCell id="LrAZnTlzf4Zo_CJ2uYji-28" value="" style="rounded=0;whiteSpace=wrap;html=1;container=0;" parent="LrAZnTlzf4Zo_CJ2uYji-120" vertex="1">
          <mxGeometry x="120" y="540" width="120" height="60" as="geometry" />
        </mxCell>
        <mxCell id="LrAZnTlzf4Zo_CJ2uYji-29" value="" style="rounded=0;whiteSpace=wrap;html=1;container=0;" parent="LrAZnTlzf4Zo_CJ2uYji-120" vertex="1">
          <mxGeometry x="120" y="480" width="120" height="60" as="geometry" />
        </mxCell>
        <mxCell id="LrAZnTlzf4Zo_CJ2uYji-30" value="" style="rounded=0;whiteSpace=wrap;html=1;container=0;" parent="LrAZnTlzf4Zo_CJ2uYji-120" vertex="1">
          <mxGeometry x="120" y="720" width="120" height="60" as="geometry" />
        </mxCell>
        <mxCell id="LrAZnTlzf4Zo_CJ2uYji-31" value="" style="rounded=0;whiteSpace=wrap;html=1;container=0;" parent="LrAZnTlzf4Zo_CJ2uYji-120" vertex="1">
          <mxGeometry x="120" y="660" width="120" height="60" as="geometry" />
        </mxCell>
        <mxCell id="LrAZnTlzf4Zo_CJ2uYji-52" value="物理名" style="rounded=0;whiteSpace=wrap;html=1;container=0;" parent="LrAZnTlzf4Zo_CJ2uYji-120" vertex="1">
          <mxGeometry x="240" y="180" width="120" height="60" as="geometry" />
        </mxCell>
        <mxCell id="LrAZnTlzf4Zo_CJ2uYji-53" value="ID" style="rounded=0;whiteSpace=wrap;html=1;container=0;" parent="LrAZnTlzf4Zo_CJ2uYji-120" vertex="1">
          <mxGeometry x="240" y="240" width="120" height="60" as="geometry" />
        </mxCell>
        <mxCell id="LrAZnTlzf4Zo_CJ2uYji-54" value="FOOD" style="rounded=0;whiteSpace=wrap;html=1;container=0;" parent="LrAZnTlzf4Zo_CJ2uYji-120" vertex="1">
          <mxGeometry x="240" y="420" width="120" height="60" as="geometry" />
        </mxCell>
        <mxCell id="LrAZnTlzf4Zo_CJ2uYji-55" value="AGE" style="rounded=0;whiteSpace=wrap;html=1;container=0;" parent="LrAZnTlzf4Zo_CJ2uYji-120" vertex="1">
          <mxGeometry x="240" y="360" width="120" height="60" as="geometry" />
        </mxCell>
        <mxCell id="LrAZnTlzf4Zo_CJ2uYji-56" value="NAME" style="rounded=0;whiteSpace=wrap;html=1;container=0;" parent="LrAZnTlzf4Zo_CJ2uYji-120" vertex="1">
          <mxGeometry x="240" y="300" width="120" height="60" as="geometry" />
        </mxCell>
        <mxCell id="LrAZnTlzf4Zo_CJ2uYji-57" value="MESSAGE" style="rounded=0;whiteSpace=wrap;html=1;container=0;" parent="LrAZnTlzf4Zo_CJ2uYji-120" vertex="1">
          <mxGeometry x="240" y="600" width="120" height="60" as="geometry" />
        </mxCell>
        <mxCell id="LrAZnTlzf4Zo_CJ2uYji-58" value="SATISFACTION_&lt;br&gt;LEVEL" style="rounded=0;whiteSpace=wrap;html=1;container=0;" parent="LrAZnTlzf4Zo_CJ2uYji-120" vertex="1">
          <mxGeometry x="240" y="540" width="120" height="60" as="geometry" />
        </mxCell>
        <mxCell id="LrAZnTlzf4Zo_CJ2uYji-59" value="SEX" style="rounded=0;whiteSpace=wrap;html=1;container=0;" parent="LrAZnTlzf4Zo_CJ2uYji-120" vertex="1">
          <mxGeometry x="240" y="480" width="120" height="60" as="geometry" />
        </mxCell>
        <mxCell id="LrAZnTlzf4Zo_CJ2uYji-60" value="DEL" style="rounded=0;whiteSpace=wrap;html=1;container=0;" parent="LrAZnTlzf4Zo_CJ2uYji-120" vertex="1">
          <mxGeometry x="240" y="720" width="120" height="60" as="geometry" />
        </mxCell>
        <mxCell id="LrAZnTlzf4Zo_CJ2uYji-61" value="TIME" style="rounded=0;whiteSpace=wrap;html=1;container=0;" parent="LrAZnTlzf4Zo_CJ2uYji-120" vertex="1">
          <mxGeometry x="240" y="660" width="120" height="60" as="geometry" />
        </mxCell>
        <mxCell id="LrAZnTlzf4Zo_CJ2uYji-62" value="" style="rounded=0;whiteSpace=wrap;html=1;container=0;" parent="LrAZnTlzf4Zo_CJ2uYji-120" vertex="1">
          <mxGeometry x="360" y="180" width="120" height="60" as="geometry" />
        </mxCell>
        <mxCell id="LrAZnTlzf4Zo_CJ2uYji-63" value="varchar(20)" style="rounded=0;whiteSpace=wrap;html=1;container=0;" parent="LrAZnTlzf4Zo_CJ2uYji-120" vertex="1">
          <mxGeometry x="360" y="300" width="120" height="60" as="geometry" />
        </mxCell>
        <mxCell id="LrAZnTlzf4Zo_CJ2uYji-64" value="varchar(20)" style="rounded=0;whiteSpace=wrap;html=1;container=0;" parent="LrAZnTlzf4Zo_CJ2uYji-120" vertex="1">
          <mxGeometry x="360" y="420" width="120" height="60" as="geometry" />
        </mxCell>
        <mxCell id="LrAZnTlzf4Zo_CJ2uYji-65" value="int" style="rounded=0;whiteSpace=wrap;html=1;container=0;" parent="LrAZnTlzf4Zo_CJ2uYji-120" vertex="1">
          <mxGeometry x="360" y="360" width="120" height="60" as="geometry" />
        </mxCell>
        <mxCell id="LrAZnTlzf4Zo_CJ2uYji-67" value="varchar(20)" style="rounded=0;whiteSpace=wrap;html=1;container=0;" parent="LrAZnTlzf4Zo_CJ2uYji-120" vertex="1">
          <mxGeometry x="360" y="600" width="120" height="60" as="geometry" />
        </mxCell>
        <mxCell id="LrAZnTlzf4Zo_CJ2uYji-68" value="int" style="rounded=0;whiteSpace=wrap;html=1;container=0;" parent="LrAZnTlzf4Zo_CJ2uYji-120" vertex="1">
          <mxGeometry x="360" y="540" width="120" height="60" as="geometry" />
        </mxCell>
        <mxCell id="LrAZnTlzf4Zo_CJ2uYji-69" value="int" style="rounded=0;whiteSpace=wrap;html=1;container=0;" parent="LrAZnTlzf4Zo_CJ2uYji-120" vertex="1">
          <mxGeometry x="360" y="480" width="120" height="60" as="geometry" />
        </mxCell>
        <mxCell id="LrAZnTlzf4Zo_CJ2uYji-70" value="int" style="rounded=0;whiteSpace=wrap;html=1;container=0;" parent="LrAZnTlzf4Zo_CJ2uYji-120" vertex="1">
          <mxGeometry x="360" y="720" width="120" height="60" as="geometry" />
        </mxCell>
        <mxCell id="LrAZnTlzf4Zo_CJ2uYji-71" value="timestamp" style="rounded=0;whiteSpace=wrap;html=1;container=0;" parent="LrAZnTlzf4Zo_CJ2uYji-120" vertex="1">
          <mxGeometry x="360" y="660" width="120" height="60" as="geometry" />
        </mxCell>
        <mxCell id="LrAZnTlzf4Zo_CJ2uYji-72" value="データ型" style="rounded=0;whiteSpace=wrap;html=1;container=0;" parent="LrAZnTlzf4Zo_CJ2uYji-120" vertex="1">
          <mxGeometry x="360" y="180" width="120" height="60" as="geometry" />
        </mxCell>
        <mxCell id="LrAZnTlzf4Zo_CJ2uYji-73" value="int auto_increment" style="rounded=0;whiteSpace=wrap;html=1;container=0;" parent="LrAZnTlzf4Zo_CJ2uYji-120" vertex="1">
          <mxGeometry x="360" y="240" width="120" height="60" as="geometry" />
        </mxCell>
        <mxCell id="LrAZnTlzf4Zo_CJ2uYji-14" value="9" style="rounded=0;whiteSpace=wrap;html=1;container=0;" parent="LrAZnTlzf4Zo_CJ2uYji-120" vertex="1">
          <mxGeometry y="720" width="120" height="60" as="geometry" />
        </mxCell>
        <mxCell id="LrAZnTlzf4Zo_CJ2uYji-10" value="No" style="rounded=0;whiteSpace=wrap;html=1;container=0;" parent="LrAZnTlzf4Zo_CJ2uYji-120" vertex="1">
          <mxGeometry y="180" width="120" height="60" as="geometry" />
        </mxCell>
        <mxCell id="LrAZnTlzf4Zo_CJ2uYji-11" value="1" style="rounded=0;whiteSpace=wrap;html=1;container=0;" parent="LrAZnTlzf4Zo_CJ2uYji-120" vertex="1">
          <mxGeometry y="240" width="120" height="60" as="geometry" />
        </mxCell>
        <mxCell id="LrAZnTlzf4Zo_CJ2uYji-12" value="8" style="rounded=0;whiteSpace=wrap;html=1;container=0;" parent="LrAZnTlzf4Zo_CJ2uYji-120" vertex="1">
          <mxGeometry y="660" width="120" height="60" as="geometry" />
        </mxCell>
        <mxCell id="LrAZnTlzf4Zo_CJ2uYji-15" value="7" style="rounded=0;whiteSpace=wrap;html=1;container=0;" parent="LrAZnTlzf4Zo_CJ2uYji-120" vertex="1">
          <mxGeometry y="600" width="120" height="60" as="geometry" />
        </mxCell>
        <mxCell id="LrAZnTlzf4Zo_CJ2uYji-16" value="2" style="rounded=0;whiteSpace=wrap;html=1;container=0;" parent="LrAZnTlzf4Zo_CJ2uYji-120" vertex="1">
          <mxGeometry y="300" width="120" height="60" as="geometry" />
        </mxCell>
        <mxCell id="LrAZnTlzf4Zo_CJ2uYji-17" value="4" style="rounded=0;whiteSpace=wrap;html=1;container=0;" parent="LrAZnTlzf4Zo_CJ2uYji-120" vertex="1">
          <mxGeometry y="420" width="120" height="60" as="geometry" />
        </mxCell>
        <mxCell id="LrAZnTlzf4Zo_CJ2uYji-18" value="6" style="rounded=0;whiteSpace=wrap;html=1;container=0;" parent="LrAZnTlzf4Zo_CJ2uYji-120" vertex="1">
          <mxGeometry y="540" width="120" height="60" as="geometry" />
        </mxCell>
        <mxCell id="LrAZnTlzf4Zo_CJ2uYji-19" value="5" style="rounded=0;whiteSpace=wrap;html=1;container=0;" parent="LrAZnTlzf4Zo_CJ2uYji-120" vertex="1">
          <mxGeometry y="480" width="120" height="60" as="geometry" />
        </mxCell>
        <mxCell id="LrAZnTlzf4Zo_CJ2uYji-20" value="3" style="rounded=0;whiteSpace=wrap;html=1;container=0;" parent="LrAZnTlzf4Zo_CJ2uYji-120" vertex="1">
          <mxGeometry y="360" width="120" height="60" as="geometry" />
        </mxCell>
        <mxCell id="LrAZnTlzf4Zo_CJ2uYji-76" value="デフォルト" style="rounded=0;whiteSpace=wrap;html=1;container=0;" parent="LrAZnTlzf4Zo_CJ2uYji-120" vertex="1">
          <mxGeometry x="600" y="180" width="120" height="60" as="geometry" />
        </mxCell>
        <mxCell id="LrAZnTlzf4Zo_CJ2uYji-89" value="" style="rounded=0;whiteSpace=wrap;html=1;container=0;" parent="LrAZnTlzf4Zo_CJ2uYji-120" vertex="1">
          <mxGeometry x="600" y="240" width="120" height="60" as="geometry" />
        </mxCell>
        <mxCell id="LrAZnTlzf4Zo_CJ2uYji-90" value="" style="rounded=0;whiteSpace=wrap;html=1;container=0;" parent="LrAZnTlzf4Zo_CJ2uYji-120" vertex="1">
          <mxGeometry x="600" y="420" width="120" height="60" as="geometry" />
        </mxCell>
        <mxCell id="LrAZnTlzf4Zo_CJ2uYji-91" value="" style="rounded=0;whiteSpace=wrap;html=1;container=0;" parent="LrAZnTlzf4Zo_CJ2uYji-120" vertex="1">
          <mxGeometry x="600" y="360" width="120" height="60" as="geometry" />
        </mxCell>
        <mxCell id="LrAZnTlzf4Zo_CJ2uYji-92" value="" style="rounded=0;whiteSpace=wrap;html=1;container=0;" parent="LrAZnTlzf4Zo_CJ2uYji-120" vertex="1">
          <mxGeometry x="600" y="300" width="120" height="60" as="geometry" />
        </mxCell>
        <mxCell id="LrAZnTlzf4Zo_CJ2uYji-93" value="" style="rounded=0;whiteSpace=wrap;html=1;container=0;" parent="LrAZnTlzf4Zo_CJ2uYji-120" vertex="1">
          <mxGeometry x="600" y="600" width="120" height="60" as="geometry" />
        </mxCell>
        <mxCell id="LrAZnTlzf4Zo_CJ2uYji-94" value="" style="rounded=0;whiteSpace=wrap;html=1;container=0;" parent="LrAZnTlzf4Zo_CJ2uYji-120" vertex="1">
          <mxGeometry x="600" y="540" width="120" height="60" as="geometry" />
        </mxCell>
        <mxCell id="LrAZnTlzf4Zo_CJ2uYji-95" value="" style="rounded=0;whiteSpace=wrap;html=1;container=0;" parent="LrAZnTlzf4Zo_CJ2uYji-120" vertex="1">
          <mxGeometry x="600" y="480" width="120" height="60" as="geometry" />
        </mxCell>
        <mxCell id="LrAZnTlzf4Zo_CJ2uYji-96" value="０" style="rounded=0;whiteSpace=wrap;html=1;container=0;" parent="LrAZnTlzf4Zo_CJ2uYji-120" vertex="1">
          <mxGeometry x="600" y="720" width="120" height="60" as="geometry" />
        </mxCell>
        <mxCell id="LrAZnTlzf4Zo_CJ2uYji-97" value="null" style="rounded=0;whiteSpace=wrap;html=1;container=0;" parent="LrAZnTlzf4Zo_CJ2uYji-120" vertex="1">
          <mxGeometry x="600" y="660" width="120" height="60" as="geometry" />
        </mxCell>
        <mxCell id="LrAZnTlzf4Zo_CJ2uYji-98" value="コメント" style="rounded=0;whiteSpace=wrap;html=1;container=0;" parent="LrAZnTlzf4Zo_CJ2uYji-120" vertex="1">
          <mxGeometry x="720" y="180" width="120" height="60" as="geometry" />
        </mxCell>
        <mxCell id="LrAZnTlzf4Zo_CJ2uYji-99" value="" style="rounded=0;whiteSpace=wrap;html=1;container=0;" parent="LrAZnTlzf4Zo_CJ2uYji-120" vertex="1">
          <mxGeometry x="720" y="240" width="120" height="60" as="geometry" />
        </mxCell>
        <mxCell id="LrAZnTlzf4Zo_CJ2uYji-100" value="" style="rounded=0;whiteSpace=wrap;html=1;container=0;" parent="LrAZnTlzf4Zo_CJ2uYji-120" vertex="1">
          <mxGeometry x="720" y="420" width="120" height="60" as="geometry" />
        </mxCell>
        <mxCell id="LrAZnTlzf4Zo_CJ2uYji-101" value="" style="rounded=0;whiteSpace=wrap;html=1;container=0;" parent="LrAZnTlzf4Zo_CJ2uYji-120" vertex="1">
          <mxGeometry x="720" y="360" width="120" height="60" as="geometry" />
        </mxCell>
        <mxCell id="LrAZnTlzf4Zo_CJ2uYji-102" value="" style="rounded=0;whiteSpace=wrap;html=1;container=0;" parent="LrAZnTlzf4Zo_CJ2uYji-120" vertex="1">
          <mxGeometry x="720" y="300" width="120" height="60" as="geometry" />
        </mxCell>
        <mxCell id="LrAZnTlzf4Zo_CJ2uYji-103" value="" style="rounded=0;whiteSpace=wrap;html=1;container=0;" parent="LrAZnTlzf4Zo_CJ2uYji-120" vertex="1">
          <mxGeometry x="720" y="600" width="120" height="60" as="geometry" />
        </mxCell>
        <mxCell id="LrAZnTlzf4Zo_CJ2uYji-104" value="" style="rounded=0;whiteSpace=wrap;html=1;container=0;" parent="LrAZnTlzf4Zo_CJ2uYji-120" vertex="1">
          <mxGeometry x="720" y="540" width="120" height="60" as="geometry" />
        </mxCell>
        <mxCell id="LrAZnTlzf4Zo_CJ2uYji-105" value="" style="rounded=0;whiteSpace=wrap;html=1;container=0;" parent="LrAZnTlzf4Zo_CJ2uYji-120" vertex="1">
          <mxGeometry x="720" y="480" width="120" height="60" as="geometry" />
        </mxCell>
        <mxCell id="LrAZnTlzf4Zo_CJ2uYji-106" value="" style="rounded=0;whiteSpace=wrap;html=1;container=0;" parent="LrAZnTlzf4Zo_CJ2uYji-120" vertex="1">
          <mxGeometry x="720" y="720" width="120" height="60" as="geometry" />
        </mxCell>
        <mxCell id="LrAZnTlzf4Zo_CJ2uYji-107" value="" style="rounded=0;whiteSpace=wrap;html=1;container=0;" parent="LrAZnTlzf4Zo_CJ2uYji-120" vertex="1">
          <mxGeometry x="720" y="660" width="120" height="60" as="geometry" />
        </mxCell>
        <mxCell id="LrAZnTlzf4Zo_CJ2uYji-78" value="" style="rounded=0;whiteSpace=wrap;html=1;container=0;" parent="LrAZnTlzf4Zo_CJ2uYji-120" vertex="1">
          <mxGeometry x="480" y="720" width="120" height="60" as="geometry" />
        </mxCell>
        <mxCell id="LrAZnTlzf4Zo_CJ2uYji-80" value="必須" style="rounded=0;whiteSpace=wrap;html=1;container=0;" parent="LrAZnTlzf4Zo_CJ2uYji-120" vertex="1">
          <mxGeometry x="480" y="180" width="120" height="60" as="geometry" />
        </mxCell>
        <mxCell id="LrAZnTlzf4Zo_CJ2uYji-81" value="Yes" style="rounded=0;whiteSpace=wrap;html=1;container=0;" parent="LrAZnTlzf4Zo_CJ2uYji-120" vertex="1">
          <mxGeometry x="480" y="240" width="120" height="60" as="geometry" />
        </mxCell>
        <mxCell id="LrAZnTlzf4Zo_CJ2uYji-82" value="" style="rounded=0;whiteSpace=wrap;html=1;container=0;" parent="LrAZnTlzf4Zo_CJ2uYji-120" vertex="1">
          <mxGeometry x="480" y="660" width="120" height="60" as="geometry" />
        </mxCell>
        <mxCell id="LrAZnTlzf4Zo_CJ2uYji-83" value="" style="rounded=0;whiteSpace=wrap;html=1;container=0;" parent="LrAZnTlzf4Zo_CJ2uYji-120" vertex="1">
          <mxGeometry x="480" y="600" width="120" height="60" as="geometry" />
        </mxCell>
        <mxCell id="LrAZnTlzf4Zo_CJ2uYji-84" value="" style="rounded=0;whiteSpace=wrap;html=1;container=0;" parent="LrAZnTlzf4Zo_CJ2uYji-120" vertex="1">
          <mxGeometry x="480" y="300" width="120" height="60" as="geometry" />
        </mxCell>
        <mxCell id="LrAZnTlzf4Zo_CJ2uYji-85" value="" style="rounded=0;whiteSpace=wrap;html=1;container=0;" parent="LrAZnTlzf4Zo_CJ2uYji-120" vertex="1">
          <mxGeometry x="480" y="420" width="120" height="60" as="geometry" />
        </mxCell>
        <mxCell id="LrAZnTlzf4Zo_CJ2uYji-86" value="" style="rounded=0;whiteSpace=wrap;html=1;container=0;" parent="LrAZnTlzf4Zo_CJ2uYji-120" vertex="1">
          <mxGeometry x="480" y="540" width="120" height="60" as="geometry" />
        </mxCell>
        <mxCell id="LrAZnTlzf4Zo_CJ2uYji-88" value="" style="rounded=0;whiteSpace=wrap;html=1;container=0;" parent="LrAZnTlzf4Zo_CJ2uYji-120" vertex="1">
          <mxGeometry x="480" y="360" width="120" height="60" as="geometry" />
        </mxCell>
        <mxCell id="LrAZnTlzf4Zo_CJ2uYji-121" value="ER図" style="rounded=0;whiteSpace=wrap;html=1;strokeColor=none;fillColor=none;" parent="1" vertex="1">
          <mxGeometry x="130" y="1010" width="80" height="40" as="geometry" />
        </mxCell>
        <mxCell id="gQHaM-sc4kn2a5M5lM_K-14" value="nekoAn" style="swimlane;fontStyle=0;childLayout=stackLayout;horizontal=1;startSize=26;horizontalStack=0;resizeParent=1;resizeParentMax=0;resizeLast=0;collapsible=1;marginBottom=0;align=center;fontSize=14;" parent="1" vertex="1">
          <mxGeometry x="130" y="1040" width="210" height="120" as="geometry" />
        </mxCell>
        <mxCell id="gQHaM-sc4kn2a5M5lM_K-15" value="ID(PK)&lt;span style=&quot;white-space: pre;&quot;&gt;&#x9;&lt;/span&gt;・FOOD&lt;span style=&quot;white-space: pre;&quot;&gt;&#x9;&lt;/span&gt;&lt;span style=&quot;white-space: pre;&quot;&gt;&#x9;&lt;/span&gt;・TIME&lt;br&gt;" style="text;strokeColor=none;fillColor=none;spacingLeft=4;spacingRight=4;overflow=hidden;rotatable=0;points=[[0,0.5],[1,0.5]];portConstraint=eastwest;fontSize=12;whiteSpace=wrap;html=1;" parent="gQHaM-sc4kn2a5M5lM_K-14" vertex="1">
          <mxGeometry y="26" width="210" height="30" as="geometry" />
        </mxCell>
        <mxCell id="gQHaM-sc4kn2a5M5lM_K-16" value="NAME&lt;span style=&quot;white-space: pre;&quot;&gt;&#x9;&lt;/span&gt;・SEX&lt;span style=&quot;white-space: pre;&quot;&gt;&#x9;&lt;/span&gt;&lt;span style=&quot;white-space: pre;&quot;&gt;&#x9;&lt;/span&gt;・DEL" style="text;strokeColor=none;fillColor=none;spacingLeft=4;spacingRight=4;overflow=hidden;rotatable=0;points=[[0,0.5],[1,0.5]];portConstraint=eastwest;fontSize=12;whiteSpace=wrap;html=1;" parent="gQHaM-sc4kn2a5M5lM_K-14" vertex="1">
          <mxGeometry y="56" width="210" height="30" as="geometry" />
        </mxCell>
        <mxCell id="gQHaM-sc4kn2a5M5lM_K-17" value="AGE&lt;span style=&quot;white-space: pre;&quot;&gt;&#x9;&lt;/span&gt;・MESSAGE" style="text;strokeColor=none;fillColor=none;spacingLeft=4;spacingRight=4;overflow=hidden;rotatable=0;points=[[0,0.5],[1,0.5]];portConstraint=eastwest;fontSize=12;whiteSpace=wrap;html=1;" parent="gQHaM-sc4kn2a5M5lM_K-14" vertex="1">
          <mxGeometry y="86" width="210" height="34" as="geometry" />
        </mxCell>
      </root>
    </mxGraphModel>
  </diagram>
  <diagram id="RqaZZJsjSoTgM6-cfrIu" name="ページ8">
    <mxGraphModel dx="756" dy="367" grid="1" gridSize="10" guides="1" tooltips="1" connect="1" arrows="1" fold="1" page="1" pageScale="1" pageWidth="827" pageHeight="1169" math="0" shadow="0">
      <root>
        <mxCell id="0" />
        <mxCell id="1" parent="0" />
        <mxCell id="CqfYo3HeTdNAsoWTBbI1-1" value="論理名" style="rounded=0;whiteSpace=wrap;html=1;container=0;" parent="1" vertex="1">
          <mxGeometry x="250" y="1190" width="120" height="60" as="geometry" />
        </mxCell>
        <mxCell id="CqfYo3HeTdNAsoWTBbI1-2" value="" style="rounded=0;whiteSpace=wrap;html=1;container=0;" parent="1" vertex="1">
          <mxGeometry x="250" y="1250" width="120" height="60" as="geometry" />
        </mxCell>
        <mxCell id="CqfYo3HeTdNAsoWTBbI1-3" value="" style="rounded=0;whiteSpace=wrap;html=1;container=0;" parent="1" vertex="1">
          <mxGeometry x="250" y="1370" width="120" height="60" as="geometry" />
        </mxCell>
        <mxCell id="CqfYo3HeTdNAsoWTBbI1-4" value="" style="rounded=0;whiteSpace=wrap;html=1;container=0;" parent="1" vertex="1">
          <mxGeometry x="250" y="1310" width="120" height="60" as="geometry" />
        </mxCell>
        <mxCell id="CqfYo3HeTdNAsoWTBbI1-5" value="物理名" style="rounded=0;whiteSpace=wrap;html=1;container=0;" parent="1" vertex="1">
          <mxGeometry x="370" y="1190" width="120" height="60" as="geometry" />
        </mxCell>
        <mxCell id="CqfYo3HeTdNAsoWTBbI1-6" value="USER_ID" style="rounded=0;whiteSpace=wrap;html=1;container=0;" parent="1" vertex="1">
          <mxGeometry x="370" y="1250" width="120" height="60" as="geometry" />
        </mxCell>
        <mxCell id="CqfYo3HeTdNAsoWTBbI1-7" value="AGE" style="rounded=0;whiteSpace=wrap;html=1;container=0;" parent="1" vertex="1">
          <mxGeometry x="370" y="1370" width="120" height="60" as="geometry" />
        </mxCell>
        <mxCell id="CqfYo3HeTdNAsoWTBbI1-8" value="USER＿NAME" style="rounded=0;whiteSpace=wrap;html=1;container=0;" parent="1" vertex="1">
          <mxGeometry x="370" y="1310" width="120" height="60" as="geometry" />
        </mxCell>
        <mxCell id="CqfYo3HeTdNAsoWTBbI1-9" value="" style="rounded=0;whiteSpace=wrap;html=1;container=0;" parent="1" vertex="1">
          <mxGeometry x="490" y="1190" width="120" height="60" as="geometry" />
        </mxCell>
        <mxCell id="CqfYo3HeTdNAsoWTBbI1-10" value="varchar(20)" style="rounded=0;whiteSpace=wrap;html=1;container=0;" parent="1" vertex="1">
          <mxGeometry x="490" y="1310" width="120" height="60" as="geometry" />
        </mxCell>
        <mxCell id="CqfYo3HeTdNAsoWTBbI1-11" value="varchar(20)" style="rounded=0;whiteSpace=wrap;html=1;container=0;" parent="1" vertex="1">
          <mxGeometry x="490" y="1370" width="120" height="60" as="geometry" />
        </mxCell>
        <mxCell id="CqfYo3HeTdNAsoWTBbI1-12" value="データ型" style="rounded=0;whiteSpace=wrap;html=1;container=0;" parent="1" vertex="1">
          <mxGeometry x="490" y="1190" width="120" height="60" as="geometry" />
        </mxCell>
        <mxCell id="CqfYo3HeTdNAsoWTBbI1-13" value="varchar(20)" style="rounded=0;whiteSpace=wrap;html=1;container=0;" parent="1" vertex="1">
          <mxGeometry x="490" y="1250" width="120" height="60" as="geometry" />
        </mxCell>
        <mxCell id="CqfYo3HeTdNAsoWTBbI1-14" value="No" style="rounded=0;whiteSpace=wrap;html=1;container=0;" parent="1" vertex="1">
          <mxGeometry x="130" y="1190" width="120" height="60" as="geometry" />
        </mxCell>
        <mxCell id="CqfYo3HeTdNAsoWTBbI1-15" value="1" style="rounded=0;whiteSpace=wrap;html=1;container=0;" parent="1" vertex="1">
          <mxGeometry x="130" y="1250" width="120" height="60" as="geometry" />
        </mxCell>
        <mxCell id="CqfYo3HeTdNAsoWTBbI1-16" value="2" style="rounded=0;whiteSpace=wrap;html=1;container=0;" parent="1" vertex="1">
          <mxGeometry x="130" y="1310" width="120" height="60" as="geometry" />
        </mxCell>
        <mxCell id="CqfYo3HeTdNAsoWTBbI1-17" value="3" style="rounded=0;whiteSpace=wrap;html=1;container=0;" parent="1" vertex="1">
          <mxGeometry x="130" y="1370" width="120" height="60" as="geometry" />
        </mxCell>
        <mxCell id="CqfYo3HeTdNAsoWTBbI1-18" value="デフォルト" style="rounded=0;whiteSpace=wrap;html=1;container=0;" parent="1" vertex="1">
          <mxGeometry x="730" y="1190" width="120" height="60" as="geometry" />
        </mxCell>
        <mxCell id="CqfYo3HeTdNAsoWTBbI1-19" value="" style="rounded=0;whiteSpace=wrap;html=1;container=0;" parent="1" vertex="1">
          <mxGeometry x="730" y="1250" width="120" height="60" as="geometry" />
        </mxCell>
        <mxCell id="CqfYo3HeTdNAsoWTBbI1-20" value="" style="rounded=0;whiteSpace=wrap;html=1;container=0;" parent="1" vertex="1">
          <mxGeometry x="730" y="1370" width="120" height="60" as="geometry" />
        </mxCell>
        <mxCell id="CqfYo3HeTdNAsoWTBbI1-21" value="" style="rounded=0;whiteSpace=wrap;html=1;container=0;" parent="1" vertex="1">
          <mxGeometry x="730" y="1310" width="120" height="60" as="geometry" />
        </mxCell>
        <mxCell id="CqfYo3HeTdNAsoWTBbI1-22" value="コメント" style="rounded=0;whiteSpace=wrap;html=1;container=0;" parent="1" vertex="1">
          <mxGeometry x="850" y="1190" width="120" height="60" as="geometry" />
        </mxCell>
        <mxCell id="CqfYo3HeTdNAsoWTBbI1-23" value="" style="rounded=0;whiteSpace=wrap;html=1;container=0;" parent="1" vertex="1">
          <mxGeometry x="850" y="1250" width="120" height="60" as="geometry" />
        </mxCell>
        <mxCell id="CqfYo3HeTdNAsoWTBbI1-24" value="" style="rounded=0;whiteSpace=wrap;html=1;container=0;" parent="1" vertex="1">
          <mxGeometry x="850" y="1370" width="120" height="60" as="geometry" />
        </mxCell>
        <mxCell id="CqfYo3HeTdNAsoWTBbI1-25" value="" style="rounded=0;whiteSpace=wrap;html=1;container=0;" parent="1" vertex="1">
          <mxGeometry x="850" y="1310" width="120" height="60" as="geometry" />
        </mxCell>
        <mxCell id="CqfYo3HeTdNAsoWTBbI1-26" value="必須" style="rounded=0;whiteSpace=wrap;html=1;container=0;" parent="1" vertex="1">
          <mxGeometry x="610" y="1190" width="120" height="60" as="geometry" />
        </mxCell>
        <mxCell id="CqfYo3HeTdNAsoWTBbI1-27" value="Yes" style="rounded=0;whiteSpace=wrap;html=1;container=0;" parent="1" vertex="1">
          <mxGeometry x="610" y="1250" width="120" height="60" as="geometry" />
        </mxCell>
        <mxCell id="CqfYo3HeTdNAsoWTBbI1-28" value="Yes" style="rounded=0;whiteSpace=wrap;html=1;container=0;" parent="1" vertex="1">
          <mxGeometry x="610" y="1310" width="120" height="60" as="geometry" />
        </mxCell>
        <mxCell id="CqfYo3HeTdNAsoWTBbI1-29" value="Yes" style="rounded=0;whiteSpace=wrap;html=1;container=0;" parent="1" vertex="1">
          <mxGeometry x="610" y="1370" width="120" height="60" as="geometry" />
        </mxCell>
        <mxCell id="CqfYo3HeTdNAsoWTBbI1-30" value="nekoAn" style="swimlane;fontStyle=0;childLayout=stackLayout;horizontal=1;startSize=26;horizontalStack=0;resizeParent=1;resizeParentMax=0;resizeLast=0;collapsible=1;marginBottom=0;align=center;fontSize=14;" parent="1" vertex="1">
          <mxGeometry x="130" y="1480" width="210" height="80" as="geometry" />
        </mxCell>
        <mxCell id="CqfYo3HeTdNAsoWTBbI1-31" value="USER_ID&lt;br&gt;USER_NAME&lt;br&gt;AGE" style="text;strokeColor=none;fillColor=none;spacingLeft=4;spacingRight=4;overflow=hidden;rotatable=0;points=[[0,0.5],[1,0.5]];portConstraint=eastwest;fontSize=12;whiteSpace=wrap;html=1;" parent="CqfYo3HeTdNAsoWTBbI1-30" vertex="1">
          <mxGeometry y="26" width="210" height="54" as="geometry" />
        </mxCell>
        <mxCell id="Sh8ii__vNOr8YKNJo0XK-1" value="プロジェクト名" style="rounded=0;whiteSpace=wrap;html=1;" vertex="1" parent="1">
          <mxGeometry x="440" y="1109" width="120" height="60" as="geometry" />
        </mxCell>
        <mxCell id="Sh8ii__vNOr8YKNJo0XK-2" value="作成日" style="rounded=0;whiteSpace=wrap;html=1;" vertex="1" parent="1">
          <mxGeometry x="440" y="1049" width="120" height="60" as="geometry" />
        </mxCell>
        <mxCell id="Sh8ii__vNOr8YKNJo0XK-3" value="" style="group" vertex="1" connectable="0" parent="1">
          <mxGeometry x="130" y="1049" width="270" height="120" as="geometry" />
        </mxCell>
        <mxCell id="Sh8ii__vNOr8YKNJo0XK-4" value="nekoAn" style="rounded=0;whiteSpace=wrap;html=1;" vertex="1" parent="Sh8ii__vNOr8YKNJo0XK-3">
          <mxGeometry x="120" y="60" width="150" height="60" as="geometry" />
        </mxCell>
        <mxCell id="Sh8ii__vNOr8YKNJo0XK-5" value="物理テーブル" style="rounded=0;whiteSpace=wrap;html=1;" vertex="1" parent="Sh8ii__vNOr8YKNJo0XK-3">
          <mxGeometry y="60" width="120" height="60" as="geometry" />
        </mxCell>
        <mxCell id="Sh8ii__vNOr8YKNJo0XK-6" value="ねこ暮らし改善アンケート" style="rounded=0;whiteSpace=wrap;html=1;" vertex="1" parent="Sh8ii__vNOr8YKNJo0XK-3">
          <mxGeometry x="120" width="150" height="60" as="geometry" />
        </mxCell>
        <mxCell id="Sh8ii__vNOr8YKNJo0XK-7" value="論理テーブル名" style="rounded=0;whiteSpace=wrap;html=1;" vertex="1" parent="Sh8ii__vNOr8YKNJo0XK-3">
          <mxGeometry width="120" height="60" as="geometry" />
        </mxCell>
        <mxCell id="Sh8ii__vNOr8YKNJo0XK-8" value="2023-07-28" style="rounded=0;whiteSpace=wrap;html=1;" vertex="1" parent="1">
          <mxGeometry x="560" y="1049" width="150" height="60" as="geometry" />
        </mxCell>
        <mxCell id="Sh8ii__vNOr8YKNJo0XK-9" value="ねこ暮らし改善アンケート" style="rounded=0;whiteSpace=wrap;html=1;" vertex="1" parent="1">
          <mxGeometry x="560" y="1109" width="150" height="60" as="geometry" />
        </mxCell>
        <mxCell id="KDiLdopWu9FOBCkC-_7F-1" value="ER図" style="rounded=0;whiteSpace=wrap;html=1;strokeColor=none;fillColor=none;" vertex="1" parent="1">
          <mxGeometry x="130" y="1460" width="50" height="20" as="geometry" />
        </mxCell>
      </root>
    </mxGraphModel>
  </diagram>
</mxfile>
